<?xml version="1.0" encoding="UTF-8"?><svg version="1.1" xmlns="http://www.w3.org/2000/svg" xmlns:xlink="http://www.w3.org/1999/xlink" viewBox="0 0 600 600" width="600" height="600" x="0px" y="0px">
    
    
    <!-- ITEM 0 -->
    <g>
        <defs>
            <clipPath id="clip-path-id-viewbox-item-0">
                <rect x="0.0" y="0.0" width="83.305" height="210.601"/>
            </clipPath>
        </defs>
        <g transform="translate(239.0 304.0) rotate(0.0 -35.0 89.0) scale(-0.8402856971370265 0.8452001652413806)">
            <g clip-path="url(#clip-path-id-viewbox-item-0)" transform="translate(-0.0 -0.0)">
                
<polygon fill="#EFF0F2" points="60.967,210.601 24.967,210.601 13.967,148.601 71.967,148.601 "/>
<path fill="#EFF0F2" d="M60.9,131.32c0,4.121-4.489,7.462-10.027,7.462s-16.022-4.464-16.022-4.464s10.484-10.459,16.022-10.459  S60.9,127.199,60.9,131.32z"/>
<path fill="#EFF0F2" d="M0,123.23c0,4.121,4.489,7.462,10.027,7.462s16.022-4.464,16.022-4.464s-10.484-10.459-16.022-10.459  S0,119.109,0,123.23z"/>
<path fill="#EFF0F2" d="M20.492,87.126c0,4.121,4.489,7.462,10.027,7.462s16.022-4.464,16.022-4.464S36.057,79.665,30.519,79.665  S20.492,83.005,20.492,87.126z"/>
<path fill="#EFF0F2" d="M39.152,61.61c0,3.434,3.74,6.217,8.354,6.217s13.349-3.72,13.349-3.72s-8.735-8.714-13.349-8.714  S39.152,58.176,39.152,61.61z"/>
<path fill="#EFF0F2" d="M19.542,31.737c0,3.09,3.366,5.595,7.518,5.595s12.013-3.347,12.013-3.347s-7.861-7.842-12.013-7.842  S19.542,28.647,19.542,31.737z"/>
<path fill="#EFF0F2" d="M27.616,3.042c0,1.68,1.83,3.042,4.087,3.042s6.531-1.82,6.531-1.82S33.96,0,31.703,0  S27.616,1.362,27.616,3.042z"/>
<path fill="#EFF0F2" d="M42.23,108.293c0,4.121-4.489,7.462-10.027,7.462s-16.022-4.464-16.022-4.464s10.484-10.459,16.022-10.459  S42.23,104.172,42.23,108.293z"/>
<path fill="#EFF0F2" d="M83.305,79.665c0,4.121-4.489,7.462-10.027,7.462c-5.538,0-16.022-4.464-16.022-4.464  s10.484-10.459,16.022-10.459C78.816,72.203,83.305,75.544,83.305,79.665z"/>
<path fill="#EFF0F2" d="M65.426,40.768c0,3.262-3.553,5.906-7.936,5.906S44.81,43.14,44.81,43.14s8.298-8.278,12.681-8.278  S65.426,37.506,65.426,40.768z"/>
<path fill="#EFF0F2" d="M54.846,13.384c0,3.262-3.553,5.906-7.936,5.906S34.23,15.756,34.23,15.756s8.298-8.278,12.681-8.278  S54.846,10.122,54.846,13.384z"/>
<path fill="#EFF0F2" d="M46.345,158.765c0,0-0.299-0.725-0.86-2.085c-0.558-1.349-1.391-3.329-2.548-5.77  c-1.162-2.437-2.664-5.347-4.698-8.406c-1.014-1.53-2.211-3.058-3.546-4.555l-0.511-0.557c-0.11-0.126-0.362-0.365-0.538-0.544  c-0.389-0.39-0.784-0.787-1.165-1.123c-0.752-0.703-1.614-1.437-2.485-2.171c-1.802-1.501-3.678-3.064-5.62-4.682  c-1.965-1.691-3.967-3.625-5.683-5.982c-0.822-1.203-1.636-2.453-2.26-3.832l-0.243-0.511l-0.1-0.223l-0.044-0.122l-0.088-0.245  l-0.354-0.982c-0.249-0.603-0.452-1.43-0.646-2.223c-0.403-1.579-0.453-3.188-0.334-4.838c0.251-1.638,0.713-3.277,1.595-4.681  c0.866-1.391,1.912-2.65,3.138-3.647c1.196-1.04,2.497-1.9,3.826-2.702c2.698-1.532,5.512-2.8,8.367-4.007  c5.709-2.373,11.639-4.502,17.065-7.382c2.685-1.432,5.307-3.044,7.185-5.058c0.255-0.236,0.471-0.492,0.664-0.757  c0.18-0.25,0.459-0.538,0.562-0.747l0.312-0.492l0.156-0.246l0.097-0.204c0.126-0.285,0.271-0.501,0.391-0.833  c0.536-1.215,0.905-2.538,1.134-3.909c0.464-2.747,0.439-5.649,0.193-8.524c-0.061-0.72-0.135-1.44-0.222-2.16l-0.031-0.27  l-0.008-0.067c0.032,0.254,0.002,0.031,0.006,0.069l-0.025-0.138l-0.097-0.552l-0.192-1.101c-0.052-0.4-0.153-0.665-0.243-0.947  l-0.258-0.85c-0.161-0.567-0.481-1.162-0.703-1.739c-2.154-4.588-6.458-7.934-10.569-11.352c-2.066-1.715-4.149-3.437-6.016-5.352  c-0.475-0.461-0.913-0.979-1.363-1.458l-0.333-0.365l-0.083-0.091l-0.157-0.182l-0.034-0.047l-0.136-0.187l-0.541-0.743  l-0.269-0.369l-0.28-0.474l-0.545-0.964c-0.394-0.66-0.593-1.231-0.858-1.826c-0.967-2.368-1.562-4.662-1.97-6.854  c-0.456-2.185-0.62-4.284-0.76-6.245c-0.232-3.928,0.055-7.367,0.604-10.141c0.561-2.776,1.358-4.881,2.127-6.2  c0.159-0.342,0.356-0.618,0.535-0.851c0.171-0.234,0.315-0.43,0.432-0.589c0.23-0.312,0.349-0.474,0.349-0.474L38.076,4.5  c0,0-0.081,0.175-0.237,0.513c-0.077,0.167-0.173,0.375-0.287,0.621c-0.12,0.241-0.248,0.523-0.331,0.877  c-0.478,1.337-0.859,3.406-0.999,6.052c-0.126,2.651,0.058,5.898,0.662,9.543c0.319,1.818,0.724,3.74,1.293,5.706  c0.536,1.972,1.278,3.993,2.235,5.898c0.24,0.462,0.473,1,0.731,1.347l0.367,0.591c0.064,0.101,0.111,0.196,0.187,0.304l0.291,0.352  l0.586,0.708l0.147,0.178l0.037,0.045c-0.218-0.26-0.038-0.05-0.077-0.099l0.078,0.075l0.314,0.302  c0.427,0.399,0.823,0.821,1.281,1.212c1.767,1.602,3.767,3.154,5.896,4.791c2.117,1.65,4.368,3.393,6.52,5.525  c2.139,2.118,4.199,4.698,5.502,7.79c0.289,0.794,0.637,1.523,0.862,2.382l0.331,1.29c0.109,0.432,0.224,0.879,0.254,1.221  l0.153,1.108l0.076,0.555l0.019,0.139l0.027,0.208l0.005,0.072l0.021,0.29c0.057,0.771,0.102,1.55,0.133,2.335  c0.113,3.135,0.044,6.394-0.702,9.69c-0.379,1.641-0.922,3.296-1.75,4.864c-0.18,0.383-0.476,0.811-0.718,1.208l-0.192,0.301  l-0.176,0.232l-0.353,0.464c-0.316,0.448-0.614,0.693-0.924,1.046c-0.302,0.337-0.618,0.647-0.957,0.917  c-2.668,2.276-5.662,3.624-8.618,4.829c-5.945,2.334-11.978,3.955-17.632,6.305c-2.823,1.151-5.572,2.448-7.995,4.111  c-1.191,0.845-2.359,1.713-3.292,2.757c-0.985,0.997-1.74,2.136-2.269,3.31c-0.551,1.174-0.699,2.43-0.751,3.643l0.084,0.924  c0.026,0.305,0.039,0.607,0.133,0.913c0.156,0.604,0.25,1.222,0.486,1.768c0.203,0.56,0.356,1.092,0.706,1.755l0.451,0.942  l0.112,0.235l0.056,0.117c-0.075-0.17-0.003-0.018-0.012-0.043l0.03,0.051l0.237,0.406c0.579,1.104,1.328,2.101,2.077,3.071  c3.107,3.82,7.061,6.902,10.619,10.126c0.891,0.811,1.719,1.633,2.557,2.512c0.432,0.438,0.793,0.851,1.154,1.26  c0.195,0.224,0.334,0.365,0.571,0.654l0.54,0.666c1.429,1.763,2.521,3.595,3.469,5.328c0.945,1.737,1.703,3.413,2.307,4.991  c0.613,1.574,1.131,3.029,1.512,4.369c0.807,2.664,1.25,4.792,1.532,6.249c0.248,1.456,0.381,2.232,0.381,2.232L46.345,158.765z"/>

            </g>
        </g>
    </g>
    
    <!-- ITEM 1 -->
    <g>
        <defs>
            <clipPath id="clip-path-id-viewbox-item-1">
                <rect x="0.0" y="0.0" width="130.52" height="102.53"/>
            </clipPath>
        </defs>
        <g transform="translate(322.0 379.0) rotate(0.0 65.0 51.0) scale(0.99601593625498 0.9948307812347605)">
            <g clip-path="url(#clip-path-id-viewbox-item-1)" transform="translate(-0.0 -0.0)">
                
<ellipse fill="#EFF0F2" cx="65.26" cy="42.471" rx="6.674" ry="42.471"/>
<g>
	<path fill="#EFF0F2" d="M73.948,64.549C71.266,46.13,81.61,26.42,100.126,13.702c1.681-1.154,0.726-3.791-1.305-3.61   c-7.966,0.711-20.803,4.225-28.467,18.591c-10.022,18.786,0.293,36.96,0.293,36.96L73.948,64.549z"/>
	<path fill="#EFF0F2" d="M56.572,64.549c2.682-18.419-7.662-38.129-26.178-50.847c-1.681-1.154-0.726-3.791,1.305-3.61   c7.966,0.711,20.803,4.225,28.467,18.591c10.022,18.786-0.293,36.96-0.293,36.96L56.572,64.549z"/>
</g>
<g>
	<path fill="#EFF0F2" d="M74.437,57.887c4.301-15.787,19.554-28.043,38.94-31.798c1.76-0.341,1.915-2.801,0.215-3.368   c-6.67-2.222-18.249-3.894-29.467,4.996C69.455,39.343,71.392,57.611,71.392,57.611L74.437,57.887z"/>
	<path fill="#EFF0F2" d="M56.083,57.887C51.782,42.1,36.528,29.844,17.143,26.09c-1.76-0.341-1.915-2.801-0.215-3.368   c6.67-2.222,18.249-3.894,29.467,4.996c14.669,11.625,12.732,29.892,12.732,29.892L56.083,57.887z"/>
</g>
<g>
	<path fill="#EFF0F2" d="M70.483,58.422c14.091-12.339,36.397-14.381,57.266-5.697c1.894,0.788,3.599-1.46,2.336-3.077   c-4.957-6.34-14.946-15.261-31.272-13.878c-21.349,1.809-31.059,20.461-31.059,20.461L70.483,58.422z"/>
	<path fill="#EFF0F2" d="M60.037,58.422C45.945,46.083,23.64,44.041,2.771,52.725c-1.894,0.788-3.599-1.46-2.336-3.077   c4.957-6.34,14.946-15.261,31.272-13.878c21.349,1.809,31.059,20.461,31.059,20.461L60.037,58.422z"/>
</g>
<path fill="#EFF0F2" d="M42.973,49.239c-5.576,5.653-9.021,13.414-9.021,21.982c0,17.291,14.017,31.308,31.308,31.308  s31.308-14.017,31.308-31.308c0-8.568-3.445-16.329-9.021-21.982H42.973z"/>
<g>
	<path fill="#EFF0F2" d="M65.217,46.567c15.351-2.482,31.951,5.901,42.817,21.201c0.986,1.389,3.177,0.557,2.998-1.137   c-0.698-6.645-3.801-17.322-15.902-23.536c-15.824-8.126-30.87,0.729-30.87,0.729L65.217,46.567z"/>
	<path fill="#EFF0F2" d="M65.303,46.567c-15.351-2.482-31.951,5.901-42.817,21.201c-0.986,1.389-3.177,0.557-2.998-1.137   c0.698-6.645,3.801-17.322,15.902-23.536c15.824-8.126,30.87,0.729,30.87,0.729L65.303,46.567z"/>
</g>
<rect x="49.865" y="90.23" fill="#EFF0F2" width="30.79" height="12.218"/>

            </g>
        </g>
    </g>
    
    <!-- ITEM 2 -->
    <g>
        <defs>
            <clipPath id="clip-path-id-viewbox-item-2">
                <rect x="0.0" y="0.0" width="186.087" height="19.009"/>
            </clipPath>
        </defs>
        <g transform="translate(399.0 507.0) rotate(0.0 69.0 7.0) scale(0.7415886117783618 0.7364932400441896)">
            <g clip-path="url(#clip-path-id-viewbox-item-2)" transform="translate(-0.0 -0.0)">
                
<path fill="#EFF0F2" d="M186.087,0L186.087,0c0,10.498-8.971,19.009-20.036,19.009H20.036C8.971,19.009,0,10.498,0,0L186.087,0z"/>

            </g>
        </g>
    </g>
    
    <!-- ITEM 3 -->
    <g>
        <defs>
            <clipPath id="clip-path-id-viewbox-item-3">
                <rect x="0.0" y="0.0" width="186.087" height="19.009"/>
            </clipPath>
        </defs>
        <g transform="translate(57.0 504.0) rotate(0.0 69.0 7.0) scale(0.7415886117783618 0.7364932400441896)">
            <g clip-path="url(#clip-path-id-viewbox-item-3)" transform="translate(-0.0 -0.0)">
                
<path fill="#EFF0F2" d="M186.087,0L186.087,0c0,10.498-8.971,19.009-20.036,19.009H20.036C8.971,19.009,0,10.498,0,0L186.087,0z"/>

            </g>
        </g>
    </g>
    
    <!-- ITEM 4 -->
    <g>
        <defs>
            <clipPath id="clip-path-id-viewbox-item-4">
                <rect x="0.0" y="0.0" width="130.362" height="351.69"/>
            </clipPath>
        </defs>
        <g transform="translate(534.0 159.0) rotate(0.0 -65.0 175.5) scale(-0.9972231171660454 0.9980380448690608)">
            <g clip-path="url(#clip-path-id-viewbox-item-4)" transform="translate(-0.0 -0.0)">
                
<g>
	<path fill="#013B84" d="M69.864,138.09l0.037,17.958l-14.366,97.615c0,0-27.751-9.844-27.706-10.37l3.82-105.39L69.864,138.09z"/>
</g>
<g>
	<path fill="#C78982" d="M15.081,271.097l-4.041,35.45l-1.378,12.077l-0.754,6.596l-0.222,1.952l-0.718,6.309l-0.356,3.112   l-0.543,4.733l-0.029,0.271c0,0,3.242,0.089,6.999,0.194c1.656,0.048,3.412,0.097,5.03,0.149c0.917,0.024,1.783,0.053,2.571,0.077   c2.019,0.061,3.475,0.113,3.659,0.129l0.172-0.586l0.489-1.661l3.852-13.059l4.318-14.647l18.035-45.329l7.539-41.107   l-26.939-0.812l-15.824,39.573C15.955,266.724,15.327,268.947,15.081,271.097z"/>
</g>
<g>
	<path fill="#013B84" d="M9.072,324.113h24.892l18.2-57.25l7.54-41.11l-26.94-0.81l-15.82,39.57c-0.99,2.21-1.62,4.43-1.86,6.58   L9.072,324.113z"/>
</g>
<path opacity="0.25" fill="#002652" d="M59.643,225.751l10.258-69.703l-0.037-17.958l-38.215-0.187l-3.581,98.782l-11.125,27.828  c-0.99,2.21-1.62,4.43-1.86,6.58l-6.011,52.353h24.892l18.2-56.583l2.479-13.517c0.563,0.2,0.893,0.317,0.893,0.317l3.862-26.241  l0.306-1.669L59.643,225.751z"/>
<path fill="#2888FF" d="M50.716,348.536l4.399-2.62c1.213-0.723,2.057-1.958,2.244-3.284l0,0c0.274-1.949-0.927-3.602-2.818-3.878  l-8.342-1.216c-5.272-0.769-9.621-3.836-11.919-8.407l-2.751-5.472l-3.66,2.059c-0.882,0.496-1.337,1.523-1.057,2.387l0.801,2.472  l-5.018,1.97c-3.399,1.334-7.004,0.72-9.286-1.583l-3.524-3.555c-0.617-0.623-1.795-0.156-1.976,0.784L4.73,344.189l0.434,3.765  L50.716,348.536z"/>
<path fill="#016EEA" d="M3.349,345.241l0.523,1.583c0.942,2.848,3.552,4.665,6.7,4.665h33.473c0.643,0,1.299-0.166,1.905-0.481  l6.047-3.153c0.5-0.261,0.314-1.017-0.249-1.017H26.386c-0.488,0-0.93-0.191-1.232-0.531l0,0c-1.516-1.71-3.736-2.668-6.188-2.668  H4.591C3.766,343.638,3.102,344.496,3.349,345.241z"/>
<polygon fill="#C78982" points="24.535,303.35 18.333,314.458 12.274,319.939 29.584,333.643 41.413,315.612 "/>
<path fill="#2888FF" d="M5.336,327.122l11.521,10.813l14.581,13.685c0.858,0.023,5.805-0.352,5.805-0.352l-0.105-1.539  l-0.816-12.101l-0.918-13.573l-0.61-0.12c-0.936-0.183-1.858,0.367-2.146,1.274l-0.82,2.599L27,326.059  c-3.27-1.18-5.58-4.127-5.948-7.584l-0.569-5.341c-0.097-0.933-1.236-1.341-1.906-0.682l-6.464,6.371l-4.551,4.487l-0.393,0.386  L5.336,327.122z"/>
<path fill="#2888FF" d="M17.272,333.385l2.618,10.539l18.217,4.603l12.618,0.161h0.03l0.195-0.127l2.419-1.573l1.416-0.921  c1.112-0.723,1.783-1.959,1.783-3.285c0-0.974-0.36-1.873-0.959-2.566c-0.599-0.689-1.442-1.172-2.404-1.311l-8.513-1.217  c-2.704-0.386-5.262-1.356-7.506-2.802c-2.217-1.431-4.135-3.333-5.595-5.603l-6.888-3.412c-0.813,0.494-1.124,1.521-0.723,2.386  l1.146,2.472l-4.742,1.97C19.377,333.119,18.321,333.348,17.272,333.385z"/>
<path fill="#016EEA" d="M27.585,346.988v4.652h17.371c0.644,0,1.277-0.165,1.839-0.479l4.389-2.472l0.225-0.128l2.274-1.573H27.585z  "/>
<path fill="#016EEA" d="M7.306,333.718l11.003,10.063l8.416,7.7c1.551,0.045,3.195,0.09,4.712,0.138  c0.858,0.023,1.67,0.049,2.408,0.071l-12.214-11.176c-0.36-0.33-0.577-0.787-0.607-1.273c-0.071-1.221-0.378-2.408-0.895-3.494  s-1.24-2.075-2.146-2.903l-3.094-2.831l-7.33-6.704l-0.184-0.169c-0.607-0.554-1.588-0.288-1.832,0.498l-0.517,1.67  C4.096,328.317,4.983,331.59,7.306,333.718z"/>
<path fill="#013B84" d="M55.331,151.362l29.322,97.227c1.71,5.671,0.819,11.808-2.433,16.758l-33.476,50.948l-6.523,11.419  l-22.053-16.757l5.089-9.261l19.216-42.269c0.412-0.94,0.9-1.845,1.461-2.706l7.151-10.982l-33.32-52.681  c-5.31-8.395-7.306-18.466-5.6-28.252l4.652-26.976l32.591,0.217L55.331,151.362z"/>
<polygon fill="#A5CDFF" points="18.816,137.83 11.993,174.544 11.493,228.544 79.993,228.544 69.993,185.544 69.993,138.09 "/>
<polygon fill="#93C3FF" points="47.7,197.641 39.79,197.7 40.046,169.986 47.7,169.986 "/>
<g>
	<path fill="#C78982" d="M105.998,86.932l16.777-9.076l-1.314,0.625c-0.126,0.058-0.257,0.108-0.393,0.147   c-1.397,0.405-2.859-0.4-3.268-1.795l-0.027-0.041c-0.25-0.876-0.11-1.82,0.385-2.586l2.388-3.655   c0.613-0.916,0.968-1.988,1.023-3.089c0.013-0.754-0.107-1.493-0.417-2.067c-0.166-0.307-0.382-0.566-0.665-0.758   c-0.039-0.025-0.077-0.049-0.118-0.068c-0.52-0.247-1.143-0.028-1.39,0.493l-6.916,11.512l-2.214,2.316   c-1.365,1.414-2.371,3.133-2.939,5.016l-0.845,2.835C106.046,86.804,106.023,86.867,105.998,86.932z"/>
	<g>
		<path fill="#C78982" d="M104.015,91.745c-1.292-3.518,0.88-2.619,1.956-5.074l0.342-0.474l22.522-13.097l0.638-0.926l0.788,2.085    c0.222,0.589,0.07,1.254-0.388,1.687l-0.859,0.813l0.283,1.069c0.141,0.534-0.01,1.103-0.398,1.496l-1.419,1.44l-0.101,3.205    c-0.034,1.115-0.477,2.179-1.254,2.983l-6.479,7.61l-19.933,12.027l-2.574-9.175L104.015,91.745z"/>
	</g>
	<path fill="#C78982" d="M126.763,77.136l-1.434-10.767c-0.061-1.146,0.573-2.123,1.464-2.398c0.005-0.001,0.01-0.002,0.015-0.003   c0.323-0.06,0.634,0.152,0.694,0.474l2.181,8.175L126.763,77.136z"/>
	<path fill="#C78982" d="M126.19,78.022l-4.164-7.928c-0.451-1.056-0.192-2.19,0.55-2.755c0.004-0.002,0.008-0.006,0.013-0.008   c0.282-0.168,0.647-0.076,0.815,0.206l4.978,7.094L126.19,78.022z"/>
	<path fill="#C78982" d="M124.089,81.271l-3.626-6.904c-0.451-1.056-0.192-2.19,0.55-2.755c0.004-0.002,0.008-0.006,0.013-0.008   c0.282-0.168,0.647-0.076,0.815,0.206l4.353,6.203L124.089,81.271z"/>
	
		<rect x="122.677" y="77.364" transform="matrix(-0.9918 -0.1275 0.1275 -0.9918 237.8557 177.6943)" fill="#C78982" width="3.873" height="7.746"/>
	
		<rect x="118.296" y="81.572" transform="matrix(-0.743 -0.6693 0.6693 -0.743 151.7471 233.9823)" fill="#C78982" width="5.007" height="12.565"/>
</g>
<path fill="#93C3FF" d="M108.435,102.453l-34.308,20.685c-3.657,2.204-7.924,3.181-12.175,2.787l-9.891-0.918l-8.555-20.518  l26.45-4.759l33.087-10.385L108.435,102.453z"/>
<rect x="36.166" y="85.316" transform="matrix(-0.3987 -0.9171 0.9171 -0.3987 -8.7123 186.8338)" fill="#93C3FF" width="41.458" height="21.913"/>
<path fill="#A5CDFF" d="M69.973,132.644l-0.055,18.593l-39.285,7.124l-13.47-21.372c-5.478-8.692-9.048-18.447-10.475-28.622  L2.931,77.415c-0.275-1.956,3.133-6.914,4.789-7.991l7.352-4.653l3.849-2.507c16.181-8.383,36.248-4.195,42.019,16.737l8.508,47.622  C69.803,128.611,69.979,130.626,69.973,132.644z"/>
<path fill="#A5CDFF" d="M44.656,60.643l-11.4-16.478l-6.441-0.228c-1.196-0.042-2.384,0.198-3.477,0.684  C9.228,50.893,0.77,65.712,2.711,81.183l2.46,19.613l50.744-22.809L44.656,60.643z"/>
<path opacity="0.07" fill="#002652" d="M23.5,97.235l11.081,1.529c1.813,0.53,3.282-1.516,2.201-3.064L27,81.691L23.5,97.235z"/>
<g>
	<path fill="#C78982" d="M38.538,194.839c-0.996-0.027-1.927-0.85-2.194-2.047l-2.589-18.44l5.117-3.393l0.26,23.191   c0.03,0.349-0.229,0.657-0.578,0.687C38.554,194.838,38.543,194.839,38.538,194.839z"/>
	<path fill="#C78982" d="M35.157,188.979c-0.984,0.153-2.05-0.487-2.528-1.615l-5.888-17.666l4.418-4.264l4.458,22.76   c0.093,0.338-0.106,0.688-0.444,0.78C35.167,188.976,35.162,188.978,35.157,188.979z"/>
	<path fill="#C78982" d="M31.298,186.224c-0.989,0.115-2.029-0.565-2.464-1.711l-5.203-17.879l4.578-4.091l3.579,22.915   c0.08,0.342-0.132,0.683-0.474,0.763C31.309,186.222,31.304,186.223,31.298,186.224z"/>
	<path fill="#C78982" d="M27.392,181.823c-0.989,0.115-2.029-0.565-2.464-1.711l-4.852-16.671c-0.215-0.738,0.013-1.534,0.587-2.046   l3.64-3.253l3.579,22.915c0.08,0.342-0.132,0.683-0.474,0.763C27.403,181.821,27.398,181.822,27.392,181.823z"/>
	<path fill="#C78982" d="M25.963,170.186h5.791c3.369,0,6.125-2.756,6.125-6.125v-5.123c0-3.369-2.756-6.125-6.125-6.125h-1.443   c-5.76,0-10.472,4.713-10.472,10.472v0.775C19.838,167.429,22.594,170.186,25.963,170.186z"/>
	<path fill="#C78982" d="M36.195,154.908v16.434l0.065-1.252c0.008-0.119,0.023-0.239,0.05-0.358   c0.266-1.225,1.08-1.763,2.304-1.501l0.438-0.244c0.766,0.169,1.03,0.902,1.407,1.592l1.791,3.308   c0.443,0.84,1.109,1.548,1.922,2.041c0.566,0.32,1.57,0.292,2.132,0.292c0.3,0,0.585-0.058,0.847-0.193   c0.035-0.019,0.069-0.039,0.1-0.062c0.401-0.293,0.489-0.855,0.196-1.256l-5.889-9.96l-0.847-2.627   c-0.512-1.614-1.402-3.081-2.596-4.283l-1.802-1.802C36.272,154.996,36.234,154.954,36.195,154.908z"/>
	<path fill="#C78982" d="M22.918,166.554c0,5.389,4.041,9.757,9.025,9.757c0.277,0,0.551-0.013,0.821-0.04   c0.168-0.016,0.516,0.103,0.5-0.064c-0.049-0.52,0.625-0.6,0.722-0.147c0.032,0.148,0.292-0.077,0.436-0.122   c1.598-0.493,3.016-1.45,4.119-2.727c0.119-0.138,0.347-0.242,0.347-0.426c-0.007-3.045,1.07-3.98,1.649-3.06   c0.135,0.215,0.085-0.475,0.145-0.726c0.186-0.781,0.286-1.6,0.286-2.445c0-5.389-4.041-9.757-9.025-9.757   S22.918,161.166,22.918,166.554z"/>
</g>
<polygon fill="#93C3FF" points="19.236,197.641 40.79,197.7 40.091,169.986 19.236,169.986 "/>
<path fill="#A5CDFF" d="M17.224,163.733L0.742,118.262c-2.324-6.412,0.99-13.495,7.402-15.819l1.747-0.634  c4-1.45,8.419,0.617,9.868,4.617l18.065,49.839L17.224,163.733z"/>
<g>
	<path fill="#A5CDFF" d="M5.742,117.432c-3.382-0.366-5.827-3.404-5.461-6.786l4.543-41.964c0.734-6.781,6.827-11.683,13.607-10.949   l1.848,0.2c4.23,0.458,7.288,4.258,6.831,8.489l-5.706,52.706L5.742,117.432z"/>
</g>
<g>
	<path fill="#D4E7FF" d="M52.251,44.633l-23.658-6.476c-3.196-0.875-5.078-4.175-4.203-7.371l4.105-14.997   C30.852,7.179,39.742,2.111,48.351,4.468l13.856,3.793L52.251,44.633z"/>
	<path fill="#C78982" d="M66.946,26.842l-5.717,21.373c-0.754,2.506-3.732,3.55-5.886,2.063L35.371,36.491L66.946,26.842z"/>
	<path fill="#C78982" d="M61.657,39.332l3.804,0.944c1.584,0.393,2.878-1.289,2.092-2.72l-3.441-6.26L61.657,39.332z"/>
	<path fill="#C78982" d="M58.094,10.124l-0.483-0.146c-2.04-0.614-4.191,0.543-4.805,2.582l-3.86,12.828l17.105,5.147l1.081-3.593   C69.28,19.802,65.234,12.273,58.094,10.124z"/>
	<path fill="#C78982" d="M33.597,21.685l20.121,5.508L42.816,67.018c-0.265,0.966-1.566,1.13-2.061,0.258l-13.25-23.339   L33.597,21.685L33.597,21.685z"/>
	
		<rect x="53.807" y="26.188" transform="matrix(0.9576 0.2882 -0.2882 0.9576 12.1168 -15.7053)" fill="#C78982" width="11.197" height="14.234"/>
	<path fill="#C78982" d="M54.236,6.192l-5.112-1.399c-5.586-1.529-11.354,1.76-12.884,7.346l-6.922,25.287l32.512,8.9l4.959-18.116   C69.402,18.663,63.783,8.806,54.236,6.192z"/>
	<path opacity="0.1" fill="#1D2445" enable-background="new    " d="M48.37,46.682l-0.255-0.197   c-1.533-1.182-3.684,0.286-3.141,2.144l1.417,4.856"/>
	<path opacity="0.1" fill="#1D2445" enable-background="new    " d="M66.004,30.813l-2.474-0.677   c-0.287-0.079-0.594-0.04-0.854,0.107l-1.312,0.748c-0.87,0.496-0.706,1.795,0.26,2.06l3.53,0.966"/>
	<path fill="#D4E7FF" d="M51.384,30.869L50.336,34.7c-0.967,3.532,0.261,7.3,3.122,9.584l0,0l0,0c0.758-2.77,3.62-4.402,6.39-3.643   l3.292,0.901l-2.181,7.716c-0.763,2.699-3.994,3.795-6.242,2.117l-6.87-5.128c-1.989-1.485-2.858-4.041-2.187-6.43l3.573-12.721   l0,0C50.869,27.544,51.832,29.233,51.384,30.869z"/>
	<path fill="#C78982" d="M57.794,46.224l2.33,1.255c0.62,0.334,1.389,0.004,1.575-0.675l0.823-3.007l-2.384-0.653   c-1.277-0.35-2.595,0.402-2.945,1.679l0,0C57.044,45.373,57.292,45.954,57.794,46.224z"/>
	<path fill="#D4E7FF" d="M24.832,29.172l13.097,3.585c5.416,1.483,11.008-1.706,12.491-7.122l5.694-20.8   c0.292-1.065-0.336-2.165-1.401-2.457l-6.766-1.852C40.1-1.622,31.997,2.998,29.849,10.846L24.832,29.172z"/>
	<path fill="#D4E7FF" d="M64.202,21.628l0.514,0.141c3.826,1.047,7.777-1.205,8.825-5.032l1.136-4.15   c0.507-1.853-0.584-3.767-2.437-4.274l-5.114-1.4L50.192,2.277l-0.47,24.47l3.635-9.158c0.587-1.478,2.217-2.249,3.732-1.764l0,0   c0.636,0.203,1.186,0.611,1.566,1.16l0.963,1.394C60.716,19.967,62.339,21.118,64.202,21.628z"/>
	<path fill="#C78982" d="M44.193,32.021l3.129,1.137l2.083-6.661c0.673-2.153-0.466-4.455-2.586-5.225l-0.227-0.083   c-2.179-0.792-4.49,0.793-4.537,3.111l-0.089,4.474C41.938,30.222,42.833,31.527,44.193,32.021z"/>
</g>

            </g>
        </g>
    </g>
    
    <!-- ITEM 5 -->
    <g>
        <defs>
            <clipPath id="clip-path-id-viewbox-item-5">
                <rect x="0.0" y="0.0" width="90.04" height="183.583"/>
            </clipPath>
        </defs>
        <g transform="translate(206.0 110.0) rotate(0.0 91.5 186.5) scale(2.03243003109729 2.0317785415860947)">
            <g clip-path="url(#clip-path-id-viewbox-item-5)" transform="translate(-0.0 -0.0)">
                
<g>
	<path fill="#f7f7f7" d="M14,181.583c-6.617,0-12-5.383-12-12V14C2,7.382,7.383,2,14,2h62.04c6.617,0,12,5.383,12,12v155.583   c0,6.617-5.383,12-12,12H14z"/>
	<path fill="#2888ff" d="M76.04,4c5.514,0,10,4.486,10,10v155.583c0,5.514-4.486,10-10,10H14c-5.514,0-10-4.486-10-10V14   C4,8.486,8.486,4,14,4H76.04 M76.04,0H14C6.268,0,0,6.268,0,14v155.583c0,7.732,6.268,14,14,14h62.04c7.732,0,14-6.268,14-14V14   C90.04,6.268,83.771,0,76.04,0L76.04,0z"/>
</g>
<path fill="#2888ff" d="M26.072,10.51h35.794c2.209,0,4-1.791,4-4V2.102H22.072V6.51C22.072,8.72,23.863,10.51,26.072,10.51z"/>

            </g>
        </g>
    </g>
    
    <!-- ITEM 6 -->
    <g>
        <defs>
            <clipPath id="clip-path-id-viewbox-item-6">
                <rect x="0.0" y="0.0" width="47.156" height="56.117"/>
            </clipPath>
        </defs>
        <g transform="translate(445.0 203.0) rotate(0.0 -23.5 28.0) scale(-0.9966918313682246 0.9979150702995527)">
            <g clip-path="url(#clip-path-id-viewbox-item-6)" transform="translate(-0.0 -0.0)">
                
<g>
	<g>
		<path fill="#F3F4F6" d="M10.797,55.087l-9.98-10.984c-1.036-1.14-1.093-2.864-0.134-4.07l30.89-38.846    c1.206-1.517,3.484-1.591,4.787-0.157l9.98,10.984c1.036,1.14,1.093,2.864,0.134,4.07L15.584,54.93    C14.378,56.447,12.1,56.521,10.797,55.087z"/>
	</g>
	<g>
		<polygon fill="#E8E9EC" points="13.29,54.295 2.258,41.572 33.866,1.822 44.899,14.545   "/>
	</g>
</g>

            </g>
        </g>
    </g>
    
    <!-- ITEM 7 -->
    <g>
        <defs>
            <clipPath id="clip-path-id-viewbox-item-7">
                <rect x="0.0" y="0.0" width="12.102" height="26.926"/>
            </clipPath>
        </defs>
        <g transform="translate(405.0 223.0) rotate(-24.512912851021422 5.0 12.5) scale(0.8263097008758883 0.9284706231894824)">
            <g clip-path="url(#clip-path-id-viewbox-item-7)" transform="translate(-0.0 -0.0)">
                
<g>
	<path fill="#C78982" d="M5.526,18.316l0.903,3.068c0.623,2.117-0.587,4.339-2.703,4.965l-0.97,0.287l-0.73,0.22l-0.25,0.07   l-1.55-5.86c-0.35-1.06-0.29-2.21,0.16-3.23l1.29-2.93L1.017,12.96c-0.174-0.514-0.064-1.082,0.289-1.494l0.72-0.84l-0.42-1.1   c-0.23-0.59-0.08-1.26,0.37-1.69l1.24-1.18l0.38-0.36l0.17,1.11l0.71,1.04l0.87,1.28l1.03,1.51l0.2,0.3l1.7,2.49l-1.77,1.32   L5.526,18.316z"/>
</g>
<path fill="#C78982" d="M3.893,12.01l5.944-9.091c0.55-1.007,0.4-2.162-0.285-2.795C9.547,0.121,9.543,0.118,9.539,0.115  C9.274-0.079,8.902-0.022,8.708,0.243L3.21,6.674L3.893,12.01z"/>
<path fill="#C78982" d="M4.026,12.987l7.18-5.352c0.863-0.757,1.119-1.892,0.694-2.722c-0.003-0.004-0.005-0.009-0.008-0.013  c-0.182-0.273-0.551-0.348-0.824-0.166L3.514,8.982L4.026,12.987z"/>
<path fill="#C78982" d="M10.766,12.166l-2.49,1.86l-1.77,1.32l-1.99,1.48l-0.49-3.84v-0.01l0.05-0.03l0.51-0.28l1.99-1.13l4.05-2.27  c0.28-0.18,0.65-0.11,0.83,0.16c0,0.01,0,0.01,0.01,0.02C11.886,10.276,11.636,11.406,10.766,12.166z"/>
<polygon fill="#C78982" points="7.116,13.496 6.506,15.346 5.526,18.316 4.686,20.856 1.006,19.636 1.346,18.606 3.436,12.286   3.956,12.456 4.496,12.636 4.586,12.666 "/>
<path fill="#C78982" d="M3.726,26.349l-0.97,0.287l-2.29-7.77l0.88-0.26l3.92-1.16l0.26,0.87l0.903,3.068  C7.051,23.502,5.842,25.723,3.726,26.349z"/>

            </g>
        </g>
    </g>
    
    <!-- ITEM 8 -->
    <g>
        <defs>
            <clipPath id="clip-path-id-viewbox-item-8">
                <rect x="0.0" y="0.0" width="95.903" height="353.096"/>
            </clipPath>
        </defs>
        <g transform="translate(76.0 154.0) rotate(0.0 47.0 176.5) scale(0.9801570336694367 0.9997281192650157)">
            <g clip-path="url(#clip-path-id-viewbox-item-8)" transform="translate(-0.0 -0.0)">
                
<ellipse fill="#93C3FF" cx="82.417" cy="112.378" rx="9.816" ry="7.87"/>
<g>
	<path fill="#013B84" d="M37.082,229.206l-16.033,32.662c-1.389,2.829-2.323,5.86-2.769,8.98l-9.309,65.214   c0,0,13.249,2.873,12.734,2.702l25.069-66.726l4.564-31.767L37.082,229.206z"/>
</g>
<path fill="#016EEA" d="M45.462,350.821l0.071-0.299l-0.104-0.025l-0.207-2.055c-0.123-1.221-0.858-2.295-1.951-2.852l-11.865-6.046  c-2.249-1.146-4.026-3.044-5.022-5.365l-0.48-1.118l4.219-9.73l-1.719-0.41c-1.48-0.353-3,0.407-3.605,1.803l-0.763,1.76  c-0.335,0.771-1.185,1.075-2.001,0.87c-0.005-0.001-0.01-0.002-0.015-0.004l-11.538-2.575l-0.582,2.441l-2.448,3.701  c-1.592,2.406-2.737,5.08-3.381,7.892l-0.396,1.729l-0.062-0.015l-0.816,3.118l38.052,9.075l4.276-0.489l0.328-1.377l0.011,0.003  L45.462,350.821z"/>
<path opacity="0.5" fill="#BEDBFF" d="M4.484,344.16l34.646,8.262c0,0,8.498-0.139,8.507-1.177c0.041-4.53-1.948-8.91-5.525-11.865  l-12.82-10.587l-18.473-4.369L0.55,338.994c-1.222,1.734-0.307,4.154,1.756,4.646L4.484,344.16z"/>
<g>
	<path fill="#013B84" d="M73.571,143.108l7.035,22.727l-31.692,85.289c0,0-14.609-8.508-14.609-9.019l12.751-97.914L73.571,143.108z   "/>
</g>
<polygon fill="#013B84" points="18.817,268.455 46.056,271.739 40.676,331.524 10.44,324.895 "/>
<g opacity="0.25">
	<path fill="#002652" d="M50.324,247.33l30.282-81.496l-7.035-22.727l-26.515,1.083l-11.468,88.057l-14.54,29.619   c-1.389,2.829-2.323,5.86-2.769,8.98l-7.841,54.029c0,0,28.769,6.349,28.254,6.178l8.081-59.017L50.324,247.33z"/>
</g>
<g>
	<path fill="#013B84" d="M84.63,132.231l5.384,21.051c0.282,1.101,0.291,2.269,0.027,3.404l-18.603,79.983   c0,0-18.426,1.565-18.399,1.053l3.104-57.723l1.913-46.685L84.63,132.231z"/>
</g>
<g>
	<path fill="#013B84" d="M72.059,226.176l-2.045,38.023c-0.059,1.105-0.22,2.208-0.481,3.295l-16.334,68.183   c0,0-15.708-0.042-15.169-0.013l3.923-71.367c0.114-2.069,0.583-4.123,1.386-6.071l11.128-26.97L72.059,226.176z"/>
</g>
<rect x="38.331" y="335.32" fill="#99644C" width="15.022" height="5.463"/>
<path fill="#2888FF" d="M78.152,350.102l-0.011-0.032v-0.307h-0.107l-0.678-1.951c-0.403-1.159-1.367-2.033-2.56-2.322  l-12.945-3.129c-2.454-0.593-4.622-2.027-6.128-4.053l-0.726-0.977l1.847-10.443h-1.767c-1.521,0-2.823,1.092-3.088,2.59  l-0.656,3.706c-0.461-0.209-0.961-0.333-1.481-0.333H38.074v2.509l-1.523,4.169c-0.99,2.71-1.484,5.576-1.458,8.461l0.016,1.774  h-0.057v3.222h43.089v-2.883H78.152z"/>
<path fill="#013B84" d="M61.808,172.946l10.068,3.775v-43.333H45.209v15.606C45.209,159.658,51.823,169.202,61.808,172.946z"/>
<path fill="#002652" d="M21.725,59.042h11.5V8.125h0c-6.351,0-11.5,5.149-11.5,11.5V59.042z"/>
<path fill="#ED956E" d="M49.92,39.095h15.085V13.21H37.892v13.857C37.892,33.71,43.277,39.095,49.92,39.095z"/>
<polygon fill="#ED956E" points="46.194,70.156 34.91,56.237 43.819,33.62 51.701,36.829 58.615,39.643 "/>
<path fill="#ED956E" d="M68.972,14.086v6.592c0,0.239-0.046,0.477-0.135,0.699l-0.874,2.173c-0.294,0.73-0.1,1.565,0.485,2.091  l0.524,0.471v12.75c0,2.074-1.686,3.754-3.761,3.745l-23.658-0.096l0.097-8.058L68.972,14.086z"/>
<path fill="#ED956E" d="M65.683,33.71l5.178-2.688c1.171-0.608,1.363-2.203,0.37-3.072L65.683,23.1V33.71z"/>
<path opacity="0.07" fill="#002652" d="M68.363,21.134h-3.314c-0.298,0-0.584,0.118-0.795,0.329l-1.068,1.068  c-0.708,0.708-0.207,1.918,0.795,1.918h3.853"/>
<path fill="#002652" d="M57.372,0.387h-0.56c-2.369,0-4.29,1.921-4.29,4.29v5.114v1.434v8.35h19.865v-4.173  C72.387,7.109,65.665,0.387,57.372,0.387z"/>
<path fill="#002652" d="M54.814,19.362H32.491v-4.974C32.491,6.442,38.932,0,46.879,0h4.7c1.786,0,3.235,1.448,3.235,3.235V19.362z"/>
<path fill="#002652" d="M49.458,36.905l-3.908,0c-5.017,0-9.085-4.067-9.085-9.085v-5.534c0-2.206-1.788-3.995-3.995-3.995l-0.995,0  v-4.124h27.612L49.458,36.905z"/>
<g>
	<path fill="#2888FF" d="M34.476,20.792c-0.829,0-1.5-0.672-1.5-1.5v-12.5c0-0.828,0.671-1.5,1.5-1.5s1.5,0.672,1.5,1.5v12.5   C35.976,20.12,35.304,20.792,34.476,20.792z"/>
</g>
<path fill="#ED956E" d="M53.146,30.792h3.33l-0.317-6.972c-0.102-2.253-1.959-4.028-4.215-4.028h-0.242  c-2.318,0-3.949,2.279-3.201,4.474l1.444,4.235C50.411,29.871,51.698,30.792,53.146,30.792z"/>
<path fill="#BEDBFF" d="M90.9,138.424l0.118,5.537v10.742l-49.809,8.019l4.247-42.051c0,0-8.227-20.607-9.401-22.954L27.47,70.25  c-1.627-5.207-0.506-10.883,2.98-15.079l0,0c5.22-6.285,14.547-7.148,20.832-1.928l20.512,18.983  c3.501,3.24,5.252,7.952,4.717,12.692l-1.634,14.472l7.667,18.333l5.009,8.669C89.668,130.054,90.82,134.194,90.9,138.424z"/>
<rect x="43.876" y="116.055" transform="matrix(0.9895 -0.1442 0.1442 0.9895 -16.5417 10.6058)" fill="#B4D5FF" width="42" height="6.667"/>
<path opacity="0.07" fill="#002652" d="M57.445,42.458l-2.501-0.085c-1.263-0.043-2.249,1.081-2.041,2.328l1.041,6.244"/>
<path opacity="0.07" fill="#002652" d="M65.635,33.431l0.427,0.835c0.234,0.457,0.646,0.798,1.139,0.943l1.694,0.498v-2.321  L65.635,33.431z"/>
<path fill="#BEDBFF" d="M78.786,107.514L40.545,68.832l13.553-14.094l35.294,36.208c2.972,3.049,3.617,7.677,1.591,11.422  l-1.996,3.69C86.938,109.844,81.813,110.576,78.786,107.514z"/>
<g>
	<path fill="#ED956E" d="M91.745,92.586l-0.949-41.672c-0.012-0.539-0.459-0.966-0.998-0.954l-9.748,0.222l-5.157,32.664   c-0.189,1.714-0.264,3.439-0.225,5.162l0.155,6.82c0.095,4.172,3.554,7.477,7.726,7.382h0   C87.746,102.092,91.863,97.783,91.745,92.586z"/>
	<path fill="#ED956E" d="M70.865,49.15l1.678,2.989c0.897,1.599,2.329,2.831,4.043,3.479l3.438,1.301l-6.397-11.462l-2.033,1.137   C70.688,47.101,70.363,48.244,70.865,49.15z"/>
	
		<ellipse transform="matrix(-0.8784 0.478 -0.478 -0.8784 176.19 61.5621)" fill="#ED956E" cx="80.262" cy="53.199" rx="3.435" ry="3.9"/>
	<path fill="#ED956E" d="M80.611,53.452l-6.87-12.624c-0.462-0.849-1.526-1.163-2.375-0.701l-0.403,0.22   c-0.946,0.515-1.296,1.699-0.781,2.646l6.774,12.449L80.611,53.452z"/>
	<path fill="#ED956E" d="M90.452,50.178l-4.239-7.79c-0.72-1.323-2.123-2.129-3.629-2.084l-9.039,0.267l7.896,14.511L90.452,50.178   L90.452,50.178z"/>
</g>
<path fill="#BEDBFF" d="M76.023,72.017L73.38,87.054c-0.212,1.714-0.299,3.44-0.26,5.163l0.153,6.82  c0.093,4.172,3.881,7.468,8.459,7.362c5.703-0.132,10.232-4.451,10.115-9.648l-0.563-25.14L76.023,72.017z"/>
<rect x="78.35" y="71.73" transform="matrix(0.9996 -0.0266 0.0266 0.9996 -2.0213 2.3371)" fill="#BEDBFF" width="17.107" height="10.942"/>
<polygon fill="#BEDBFF" points="62.038,58.785 32.458,55.985 37.342,44.319 56.855,47.818 "/>
<path opacity="0.07" fill="#002652" d="M74.196,104.148L53.631,84.575c-1.273-1.212-3.379-0.309-3.379,1.449v11.49L74.196,104.148z"/>
<polygon fill="#BEDBFF" points="91.033,144.096 91.033,230.096 32.366,230.096 44.84,133.388 "/>
<path opacity="0.6" fill="#BEDBFF" d="M36.736,353.096h44l0,0c0-5.693-3.3-10.87-8.461-13.274l-15.873-7.393H38.319l-6.608,16.554  c-0.787,1.97,0.665,4.112,2.786,4.112H36.736z"/>
<polygon fill="#013B84" points="41.634,267.549 69.968,264.549 69.968,333.882 37.634,333.882 "/>
<g>
	<path fill="#ED956E" d="M75.16,122.06c0.778,0.689,2.097,1.641,2.726,1.004l6.26-7.165l-2.465-4.401l-6.554,9.657   c-0.149,0.207-0.221,0.724,0.021,0.898C75.153,122.055,75.156,122.058,75.16,122.06z"/>
	<path fill="#ED956E" d="M78.636,123.123c0.778,0.689,2.097,1.641,2.726,1.004l6.26-7.165l-2.465-4.401l-6.554,9.657   c-0.149,0.207-0.221,0.724,0.021,0.898C78.629,123.118,78.632,123.121,78.636,123.123z"/>
	<path fill="#ED956E" d="M81.746,124.682c0.778,0.689,2.097,1.641,2.726,1.004l6.26-7.165l-2.465-4.401l-6.554,9.657   c-0.149,0.207-0.221,0.724,0.021,0.898C81.738,124.677,81.742,124.68,81.746,124.682z"/>
	<path fill="#ED956E" d="M84.846,125.812c0.667,0.667,1.818,1.591,2.472,0.98l6.577-6.871l-1.902-4.251l-7.091,9.27   c-0.16,0.199-0.277,0.697-0.065,0.865C84.839,125.807,84.843,125.81,84.846,125.812z"/>
	<path fill="#ED956E" d="M88.833,120.046l-6.503-4.41c-1.49-1.011-1.677-3.135-0.385-4.389l1.255-1.242   c0.697-0.69,1.53-1.227,2.445-1.58l0.666-0.256c2.118-0.815,4.52-0.204,5.992,1.524l2.323,2.727   c1.542,1.81,1.703,4.421,0.396,6.407l0,0C93.655,120.865,90.87,121.413,88.833,120.046z"/>
	
		<ellipse transform="matrix(0.8304 0.5572 -0.5572 0.8304 79.057 -28.7488)" fill="#ED956E" cx="86.747" cy="115.471" rx="6.499" ry="7.106"/>
</g>

            </g>
        </g>
    </g>
    
    <!-- ITEM 9 -->
    <g>
        <defs>
            <clipPath id="clip-path-id-viewbox-item-9">
                <rect x="0.0" y="0.0" width="20.65" height="17.1"/>
            </clipPath>
        </defs>
        <g transform="translate(332.0 283.0) rotate(0.0 10.0 8.5) scale(0.9685230024213076 0.9941520467836257)">
            <g clip-path="url(#clip-path-id-viewbox-item-9)" transform="translate(-0.0 -0.0)">
                
<g>
	<path fill="#2888FF" d="M1.404,1.404L1.404,1.404c-1.872,1.872-1.872,4.906,0,6.778l8.918,8.918l6.778-6.778L8.182,1.404   C6.31-0.468,3.275-0.468,1.404,1.404z"/>
	<path fill="#2888FF" d="M19.246,1.404L19.246,1.404c1.872,1.872,1.872,4.906,0,6.778L10.328,17.1L3.55,10.322l8.918-8.918   C14.34-0.468,17.374-0.468,19.246,1.404z"/>
</g>

            </g>
        </g>
    </g>
    
    <!-- ITEM 10 -->
    <g>
        <defs>
            <clipPath id="clip-path-id-viewbox-item-10">
                <rect x="0.0" y="0.0" width="21.229" height="25.69"/>
            </clipPath>
        </defs>
        <g transform="translate(333.0 334.0) rotate(0.0 10.5 12.5) scale(0.9892128691883745 0.9731413001167769)">
            <g clip-path="url(#clip-path-id-viewbox-item-10)" transform="translate(-0.0 -0.0)">
                
<g>
	<g>
		<path fill="#288fff" d="M18.076,25.52l-3.926-1.59c-0.865-0.351-1.432-1.191-1.432-2.125V10.412c0-2.062,2.511-3.076,3.942-1.591    l1.232,1.278c2.14,2.219,3.336,5.182,3.336,8.265v5.031C21.229,25.021,19.583,26.13,18.076,25.52z"/>
	</g>
	<g>
		<path fill="#288fff" d="M3.153,25.52l3.926-1.59c0.865-0.351,1.432-1.191,1.432-2.125V10.412C8.511,8.35,6,7.337,4.568,8.821    l-1.232,1.278C1.196,12.319,0,15.281,0,18.364v5.031C0,25.021,1.646,26.13,3.153,25.52z"/>
	</g>
	<g>
		<path fill="#288fff" d="M3.861,17.551c-0.352,0-0.692-0.186-0.875-0.514c-0.269-0.483-0.094-1.092,0.388-1.36l6.204-3.446V1    c0-0.552,0.448-1,1-1s1,0.448,1,1v11.819c0,0.363-0.197,0.698-0.514,0.874l-6.718,3.732C4.192,17.51,4.025,17.551,3.861,17.551z"/>
	</g>
	<g>
		<path fill="#288fff" d="M17.294,17.551c-0.164,0-0.331-0.041-0.485-0.126l-6.718-3.732c-0.317-0.176-0.514-0.511-0.514-0.874V1    c0-0.552,0.448-1,1-1s1,0.448,1,1v11.23l6.204,3.446c0.482,0.268,0.657,0.877,0.388,1.36    C17.987,17.365,17.646,17.551,17.294,17.551z"/>
	</g>
</g>

            </g>
        </g>
    </g>
    
    <!-- ITEM 11 -->
    <g>
        <defs>
            <clipPath id="clip-path-id-viewbox-item-11">
                <rect x="0.0" y="0.0" width="11.59" height="18.424"/>
            </clipPath>
        </defs>
        <g transform="translate(337.0 404.0) rotate(0.0 5.5 9.0) scale(0.9490940465918896 0.9769865392965698)">
            <g clip-path="url(#clip-path-id-viewbox-item-11)" transform="translate(-0.0 -0.0)">
                
<path fill="#2888FF" d="M0,12.63c0,3.2,2.594,5.795,5.795,5.795s5.795-2.594,5.795-5.795S5.795,0,5.795,0S0,9.429,0,12.63z"/>

            </g>
        </g>
    </g>
    
    <!-- ITEM 12 -->
    <g>
        <defs>
            <clipPath id="clip-path-id-viewbox-item-12">
                <rect x="0.0" y="0.0" width="74.231" height="40.412"/>
            </clipPath>
        </defs>
        <g transform="translate(237.0 262.0) rotate(0.0 37.0 20.0) scale(0.9968880925758781 0.9898050084133426)">
            <g clip-path="url(#clip-path-id-viewbox-item-12)" transform="translate(-0.0 -0.0)">
                
<g>
	<g>
		<path fill="#2888FF" d="M51.677,40.412c-0.046,0-0.093-0.006-0.139-0.02c-0.208-0.06-0.354-0.248-0.361-0.465l-0.765-24.595    l-0.687,18.879c-0.007,0.211-0.147,0.395-0.348,0.458c-0.201,0.064-0.421-0.005-0.549-0.173l-3.446-4.518l-6.549,4.624    c-0.11,0.077-0.248,0.106-0.38,0.083c-0.133-0.025-0.25-0.102-0.325-0.214l-3.262-4.893l-7.139,10.612    c-0.121,0.18-0.344,0.261-0.554,0.201c-0.208-0.06-0.354-0.248-0.361-0.465l-0.765-24.592l-0.687,18.877    c-0.007,0.211-0.147,0.395-0.348,0.458c-0.201,0.064-0.421-0.005-0.549-0.173l-3.446-4.518l-6.549,4.624    c-0.11,0.077-0.248,0.106-0.38,0.083c-0.133-0.025-0.25-0.102-0.325-0.214l-3.262-4.893L3.365,40.191    c-0.121,0.18-0.344,0.261-0.554,0.201c-0.208-0.06-0.354-0.248-0.361-0.465L1.686,15.333l-0.687,18.88    c-0.01,0.276-0.27,0.505-0.518,0.481C0.206,34.684-0.01,34.452,0,34.176L1.226,0.482C1.236,0.213,1.456,0,1.725,0    c0,0,0.001,0,0.001,0c0.27,0,0.49,0.215,0.499,0.484l1.177,37.861l6.689-9.944c0.093-0.138,0.249-0.221,0.415-0.221    c0,0,0,0,0.001,0c0.167,0,0.323,0.084,0.415,0.223l3.391,5.086l6.523-4.605c0.221-0.154,0.523-0.108,0.686,0.105l2.892,3.792    l1.174-32.299c0.01-0.27,0.273-0.474,0.501-0.482c0.27,0,0.49,0.215,0.498,0.484l1.177,37.861l6.689-9.944    c0.093-0.138,0.249-0.221,0.415-0.221c0.16-0.001,0.323,0.084,0.416,0.223l3.391,5.086l6.523-4.605    c0.222-0.154,0.523-0.108,0.686,0.105l2.892,3.792l1.174-32.299C49.961,0.213,50.182,0,50.451,0c0,0,0.001,0,0.001,0    c0.27,0,0.49,0.215,0.499,0.484l1.177,37.861l6.689-9.944c0.093-0.138,0.249-0.221,0.415-0.221c0,0,0,0,0.001,0    c0.167,0,0.323,0.084,0.415,0.223l3.391,5.086l6.523-4.605c0.217-0.152,0.516-0.109,0.681,0.098l3.88,4.901    c0.171,0.217,0.135,0.531-0.082,0.703c-0.217,0.173-0.531,0.134-0.703-0.082l-3.586-4.53l-6.556,4.628    c-0.11,0.077-0.248,0.106-0.38,0.083c-0.133-0.025-0.25-0.102-0.325-0.214l-3.262-4.893l-7.139,10.612    C51.997,40.332,51.84,40.412,51.677,40.412z"/>
	</g>
</g>

            </g>
        </g>
    </g>
    
    <!-- ITEM 13 -->
    <g>
        <defs>
            <clipPath id="clip-path-id-viewbox-item-13">
                <rect x="0.0" y="0.0" width="74.786" height="22.032"/>
            </clipPath>
        </defs>
        <g transform="translate(237.0 338.0) rotate(0.0 37.0 11.0) scale(0.9894900114994785 0.9985475671750181)">
            <g clip-path="url(#clip-path-id-viewbox-item-13)" transform="translate(-0.0 -0.0)">
                
<g>
	<g>
		<path fill="#288fff" d="M8.293,22.032c-0.253,0-0.505-0.062-0.757-0.197C4.971,20.453,5.352,15.31,5.72,10.336    C6,6.558,6.29,2.652,5.147,1.398C4.906,1.134,4.615,1.007,4.229,1C3.92,0.978,3.674,1.087,3.47,1.294    C2.463,2.316,2.575,5.67,2.685,8.913c0.145,4.285,0.294,8.715-1.952,9.893c-0.245,0.127-0.547,0.034-0.675-0.21    c-0.128-0.245-0.034-0.547,0.21-0.675c1.69-0.886,1.545-5.183,1.417-8.974C1.564,5.333,1.448,1.92,2.758,0.591    C3.156,0.188,3.654-0.005,4.249,0C4.909,0.013,5.46,0.257,5.886,0.725c1.432,1.573,1.14,5.513,0.832,9.685    C6.389,14.849,6.016,19.88,8.01,20.954c0.792,0.425,2.181-1.258,3.407-2.744c1.319-1.599,2.565-3.108,3.851-3.267    c0.86-0.106,1.557,0.741,2.295,1.637c0.43,0.522,1.074,1.331,1.4,1.284c0.274-0.018,0.517,0.183,0.54,0.458    c0.022,0.275-0.182,0.517-0.458,0.54c-0.846,0.06-1.528-0.764-2.254-1.645c-0.433-0.526-1.086-1.291-1.401-1.281    c-0.89,0.11-2.118,1.598-3.202,2.911C10.843,20.477,9.56,22.032,8.293,22.032z"/>
	</g>
	<g>
		<path fill="#288fff" d="M26.72,22.032c-0.252,0-0.505-0.062-0.756-0.197c-2.565-1.382-2.185-6.525-1.816-11.499    c0.28-3.777,0.569-7.684-0.573-8.938C23.333,1.134,23.042,1.007,22.656,1c-0.318-0.022-0.556,0.087-0.759,0.293    c-1.007,1.022-0.895,4.376-0.785,7.619c0.145,4.285,0.294,8.715-1.952,9.893c-0.246,0.127-0.547,0.034-0.675-0.21    c-0.128-0.245-0.034-0.547,0.21-0.675c1.69-0.886,1.545-5.183,1.417-8.974c-0.122-3.613-0.237-7.027,1.073-8.355    C21.583,0.188,22.082-0.005,22.675,0c0.661,0.013,1.211,0.257,1.638,0.725c1.433,1.573,1.141,5.513,0.832,9.685    c-0.329,4.439-0.702,9.47,1.293,10.544c0.787,0.425,2.181-1.258,3.407-2.744c1.319-1.598,2.565-3.108,3.851-3.266    c0.861-0.106,1.557,0.741,2.296,1.638c0.43,0.522,1.065,1.331,1.4,1.283c0.27-0.018,0.517,0.183,0.54,0.458    c0.022,0.275-0.182,0.517-0.458,0.54c-0.846,0.06-1.528-0.764-2.254-1.645c-0.433-0.526-1.091-1.291-1.402-1.281    c-0.89,0.11-2.118,1.598-3.201,2.911C29.27,20.477,27.987,22.032,26.72,22.032z"/>
	</g>
	<g>
		<path fill="#288fff" d="M45.147,22.032c-0.253,0-0.505-0.062-0.757-0.197c-2.565-1.382-2.185-6.525-1.816-11.5    c0.28-3.777,0.569-7.683-0.574-8.937C41.76,1.134,41.469,1.007,41.083,1c-0.297-0.022-0.556,0.087-0.759,0.293    c-1.007,1.022-0.895,4.376-0.785,7.62c0.145,4.284,0.293,8.714-1.952,9.893c-0.245,0.127-0.547,0.034-0.675-0.21    c-0.128-0.245-0.034-0.547,0.21-0.675c1.69-0.886,1.545-5.183,1.417-8.973c-0.122-3.614-0.237-7.027,1.073-8.355    C40.01,0.188,40.509-0.005,41.103,0c0.66,0.013,1.211,0.257,1.638,0.725c1.432,1.572,1.14,5.513,0.831,9.685    c-0.329,4.439-0.702,9.471,1.293,10.544c0.791,0.425,2.181-1.258,3.407-2.744c1.319-1.599,2.565-3.108,3.851-3.267    c0.861-0.106,1.557,0.741,2.295,1.637c0.43,0.522,1.088,1.331,1.4,1.284c0.269-0.02,0.517,0.183,0.54,0.458    c0.022,0.275-0.182,0.517-0.458,0.54c-0.846,0.06-1.528-0.764-2.254-1.645c-0.433-0.526-1.095-1.291-1.401-1.281    c-0.89,0.11-2.118,1.598-3.202,2.911C47.697,20.477,46.414,22.032,45.147,22.032z"/>
	</g>
	<g>
		<path fill="#288fff" d="M63.574,22.032c-0.253,0-0.505-0.062-0.757-0.197c-2.565-1.382-2.185-6.525-1.816-11.499    c0.28-3.777,0.569-7.683-0.573-8.938C60.187,1.134,59.896,1.007,59.51,1c-0.307-0.022-0.556,0.087-0.759,0.293    c-1.007,1.022-0.895,4.376-0.785,7.619c0.145,4.285,0.294,8.715-1.952,9.893c-0.246,0.127-0.547,0.034-0.675-0.21    c-0.128-0.245-0.034-0.547,0.21-0.675c1.69-0.886,1.545-5.183,1.417-8.974c-0.122-3.613-0.237-7.027,1.073-8.355    C58.437,0.188,58.938-0.005,59.529,0c0.661,0.013,1.211,0.257,1.638,0.725c1.432,1.573,1.14,5.513,0.831,9.685    c-0.329,4.439-0.701,9.471,1.293,10.544c0.791,0.425,2.18-1.258,3.407-2.744c1.319-1.599,2.565-3.108,3.851-3.267    c0.861-0.106,1.556,0.741,2.295,1.637c0.43,0.521,1.083,1.298,1.401,1.284c0.27-0.018,0.517,0.183,0.54,0.458    c0.022,0.275-0.182,0.517-0.458,0.54c-0.847,0.067-1.528-0.764-2.254-1.645c-0.433-0.525-1.099-1.29-1.401-1.281    c-0.89,0.11-2.118,1.598-3.202,2.911C66.124,20.477,64.841,22.032,63.574,22.032z"/>
	</g>
</g>

            </g>
        </g>
    </g>
    
    <!-- ITEM 14 -->
    <g>
        <defs>
            <clipPath id="clip-path-id-viewbox-item-14">
                <rect x="0.0" y="0.0" width="74.231" height="28.068"/>
            </clipPath>
        </defs>
        <g transform="translate(237.0 396.0) rotate(0.0 37.0 14.0) scale(0.9968880925758781 0.9975773122416987)">
            <g clip-path="url(#clip-path-id-viewbox-item-14)" transform="translate(-0.0 -0.0)">
                
<g>
	<g>
		<path fill="#2888FF" d="M51.677,28.068c-0.045,0-0.09-0.006-0.135-0.019c-0.208-0.058-0.354-0.243-0.364-0.459l-0.785-17.335    l-0.667,11.624c-0.012,0.208-0.153,0.388-0.353,0.449s-0.417-0.008-0.544-0.175l-3.446-4.518l-6.549,4.623    c-0.11,0.077-0.248,0.104-0.38,0.083c-0.133-0.025-0.25-0.102-0.325-0.214l-3.262-4.893l-7.139,10.612    c-0.121,0.179-0.341,0.261-0.55,0.202c-0.208-0.058-0.354-0.243-0.364-0.459l-0.785-17.333l-0.667,11.622    c-0.012,0.208-0.152,0.388-0.353,0.449c-0.2,0.061-0.417-0.008-0.544-0.175l-3.446-4.518l-6.549,4.623    c-0.11,0.077-0.248,0.104-0.38,0.083c-0.133-0.025-0.25-0.102-0.325-0.214l-3.262-4.893L3.366,27.847    c-0.121,0.179-0.342,0.261-0.55,0.202c-0.208-0.058-0.354-0.243-0.364-0.459L1.666,10.255L0.999,21.879    c-0.016,0.276-0.255,0.486-0.528,0.47c-0.275-0.016-0.486-0.252-0.47-0.528L1.226,0.473c0.015-0.265,0.234-0.471,0.499-0.471    c0.001,0,0.002,0,0.003,0C1.995,0.004,2.213,0.214,2.225,0.48l1.157,25.552l6.709-9.974c0.093-0.138,0.249-0.221,0.415-0.221    c0,0,0,0,0.001,0c0.167,0,0.323,0.084,0.415,0.223l3.391,5.086l6.523-4.605c0.221-0.154,0.523-0.108,0.686,0.105l2.919,3.827    l1.148-20c0.015-0.266,0.233-0.498,0.502-0.471c0.266,0.001,0.484,0.211,0.497,0.478l1.157,25.552l6.709-9.974    c0.093-0.138,0.249-0.221,0.415-0.221c0.16-0.033,0.323,0.083,0.416,0.223l3.391,5.086l6.524-4.605    c0.22-0.154,0.522-0.108,0.686,0.105l2.918,3.827l1.148-20c0.015-0.265,0.234-0.471,0.499-0.471c0.001,0,0.002,0,0.003,0    c0.266,0.001,0.484,0.211,0.497,0.478l1.157,25.552l6.709-9.975c0.093-0.138,0.249-0.221,0.415-0.221c0,0,0,0,0.001,0    c0.167,0,0.323,0.084,0.415,0.223l3.391,5.086l6.523-4.605c0.219-0.152,0.516-0.109,0.681,0.098l3.88,4.901    c0.171,0.217,0.135,0.531-0.082,0.703c-0.217,0.171-0.532,0.135-0.703-0.082l-3.586-4.53l-6.556,4.628    c-0.11,0.077-0.248,0.104-0.38,0.083c-0.133-0.025-0.25-0.102-0.325-0.214l-3.262-4.893l-7.139,10.612    C51.997,27.987,51.84,28.068,51.677,28.068z"/>
	</g>
</g>

            </g>
        </g>
    </g>
    
    <!-- ITEM 15 -->
    <g>
        <defs>
            <clipPath id="clip-path-id-viewbox-item-15">
                <rect x="0.0" y="0.0" width="37.434" height="56.456"/>
            </clipPath>
        </defs>
        <g transform="translate(138.0 270.0) rotate(180.0 18.0 28.0) scale(0.9616925789389326 0.9919229134193)">
            <g clip-path="url(#clip-path-id-viewbox-item-15)" transform="translate(-0.0 -0.0)">
                
<g>
	<circle fill="#013B84" cx="32.767" cy="19.076" r="4.667"/>
</g>
<g>
	<path fill="#013B84" d="M24.143,56.458c-0.642,0-1.325-0.105-2.039-0.317c-3.696-1.095-7.458-4.776-9.147-8.952   c-2.492-6.156-2.007-11.576-1.985-11.804l1.991,0.19c-0.005,0.051-0.452,5.182,1.848,10.864c1.454,3.592,4.76,6.865,7.862,7.785   c0.882,0.262,2.133,0.434,3.083-0.229c2.859-1.998,5.328-3.724,6.557-20.255c0.345-4.641,0.082-9.236-0.781-13.659l1.963-0.383   c0.897,4.597,1.17,9.371,0.812,14.19c-1.212,16.303-3.606,19.091-7.406,21.745C26.118,56.181,25.184,56.458,24.143,56.458z"/>
</g>
<g>
	<g>
		<path fill="#85A1C4" d="M16.998,23.841c-0.016-0.145-1.567-14.542-5.65-20.711C10.414,1.719,9.342,1.002,8.162,1    C8.161,1,8.159,1,8.158,1C5.208,1,2.352,5.234,2.324,5.277L1.492,4.723C1.62,4.53,4.679,0,8.158,0C8.16,0,8.162,0,8.164,0    c1.535,0.002,2.887,0.87,4.018,2.578c4.218,6.374,5.748,20.558,5.811,21.159L16.998,23.841z"/>
	</g>
	<g>
		<circle fill="#85A1C4" cx="1.667" cy="4.933" r="1.667"/>
	</g>
</g>
<g>
	<g>
		<path fill="#85A1C4" d="M6.557,23.841l-0.994-0.104c0.063-0.601,1.592-14.785,5.811-21.159C12.504,0.87,13.856,0.002,15.391,0    c0.002,0,0.005,0,0.006,0c3.479,0,6.538,4.53,6.667,4.723l-0.832,0.555C21.204,5.235,18.342,1,15.398,1c-0.002,0-0.004,0-0.006,0    c-1.179,0.002-2.25,0.719-3.184,2.13C8.124,9.299,6.573,23.697,6.557,23.841z"/>
	</g>
	<g>
		<circle fill="#85A1C4" cx="21.889" cy="4.933" r="1.667"/>
	</g>
</g>
<g>
	<path fill="#013B84" d="M12.162,37.146H11.44c-2.012,0-3.933-0.862-5.27-2.366c-1.337-1.503-1.969-3.512-1.734-5.51L5.641,19.03   l1.986,0.233L6.423,29.504c-0.168,1.432,0.284,2.871,1.242,3.948s2.334,1.695,3.775,1.695h0.722c1.441,0,2.817-0.618,3.775-1.695   s1.411-2.516,1.242-3.948l-1.205-10.241l1.986-0.233l1.205,10.241c0.235,1.998-0.397,4.006-1.734,5.51   C16.095,36.284,14.174,37.146,12.162,37.146z"/>
</g>

            </g>
        </g>
    </g>
    
    <!-- ITEM 16 -->
    <g>
        <defs>
            <clipPath id="clip-path-id-viewbox-item-16">
                <rect x="0.0" y="0.0" width="21.772" height="15.568"/>
            </clipPath>
        </defs>
        <g transform="translate(150.0 278.0) rotate(125.94860470382686 10.0 -7.0) scale(0.9186110600771634 -0.8992805755395684)">
            <g clip-path="url(#clip-path-id-viewbox-item-16)" transform="translate(-0.0 -0.0)">
                
<g>
	<path fill="#ed956e" d="M21.726,1.066c0.171,1.014-0.133,1.997-0.998,2.192l-8.971,1.53L9.356,0.414l10.948-0.412   C21.57-0.054,21.726,1.061,21.726,1.066z"/>
	<path fill="#ed956e" d="M20.683,4.044c0.171,1.014-0.188,2.707-1.053,2.902l-8.824,1.413L8.405,3.984L19.94,3.542   c0.252-0.017,0.723,0.194,0.742,0.488C20.683,4.035,20.683,4.039,20.683,4.044z"/>
	<path fill="#ed956e" d="M20.363,7.47c0.171,1.014-0.269,2.712-1.133,2.907l-8.744,1.407L8.084,7.41l11.535-0.442   c0.252-0.017,0.723,0.194,0.742,0.488C20.363,7.461,20.362,7.465,20.363,7.47z"/>
	<path fill="#ed956e" d="M19.688,10.663c0.21,0.909,0.221,2.009-0.633,2.238l-9.235,2.42l-2.385-3.973l11.492-1.095   c0.251-0.03,0.729,0.132,0.759,0.398C19.686,10.655,19.687,10.659,19.688,10.663z"/>
	<path fill="#ed956e" d="M12.761,10.989l-0.295-7.766c-0.067-1.78-1.752-3.048-3.482-2.622L0.887,2.598   C0.353,2.729-0.017,3.218,0.001,3.769L0.15,8.273c0.137,4.147,3.643,7.428,7.789,7.291l0.558-0.018   C10.922,15.464,12.841,13.414,12.761,10.989z"/>
	
		<ellipse transform="matrix(-0.9995 0.0331 -0.0331 -0.9995 20.253 13.3424)" fill="#ed956e" cx="10.016" cy="6.839" rx="7.028" ry="6.428"/>
</g>

            </g>
        </g>
    </g>
    
    <!-- ITEM 17 -->
    <g>
        <defs>
            <clipPath id="clip-path-id-viewbox-item-17">
                <rect x="0.0" y="0.0" width="74.226" height="76.147"/>
            </clipPath>
        </defs>
        <g transform="translate(263.0 157.0) rotate(0.0 37.0 38.0) scale(0.9969552447929297 0.9980695234218024)">
            <g clip-path="url(#clip-path-id-viewbox-item-17)" transform="translate(-0.0 -0.0)">
                
<g>
	<path fill="#A6CEFF" d="M60.959,54.988H13.267C5.94,54.988,0,60.928,0,68.255v7.893h74.226v-7.893   C74.226,60.928,68.286,54.988,60.959,54.988z"/>
</g>
<g>
	<g>
		<path fill="#032954" d="M56.1,29.928l-36.232,0.369V17.819c0-8.762,7.103-15.865,15.865-15.865h4.502    c8.762,0,15.865,7.103,15.865,15.865V29.928z"/>
	</g>
	<g>
		<path fill="#C78982" d="M53.411,36.787h-7.632c-0.509,0-0.922-0.526-0.922-1.174v-9.652c0-0.648,0.413-1.174,0.922-1.174h7.632    c2.602,0,4.711,2.686,4.711,5.999l0,0C58.123,34.102,56.013,36.787,53.411,36.787z"/>
	</g>
	<g>
		<path fill="#C78982" d="M43.563,9.333H32.404c-4.927,0-8.921,3.994-8.921,8.921v28.079h29V18.254    C52.484,13.327,48.49,9.333,43.563,9.333z"/>
	</g>
	<g opacity="0.1">
		<g>
			<g>
				<path fill="#1D2445" d="M52.374,24.787h-8.018c-1.683,0-3.047,1.364-3.047,3.047v0.368c0,0.155,0.022,0.304,0.055,0.449h-0.055      v5.343c0,1.105-0.895,2-2,2h-3.024l5.808,2.139l6.833-6.333l1.273-1.602h2.175L52.374,24.787z"/>
			</g>
		</g>
	</g>
	<g>
		<path fill="#C78982" d="M22.803,36.787h7.632c0.509,0,0.922-0.526,0.922-1.174v-9.652c0-0.648-0.413-1.174-0.922-1.174h-7.632    c-2.602,0-4.711,2.686-4.711,5.999l0,0C18.091,34.102,20.201,36.787,22.803,36.787z"/>
	</g>
	<g>
		<path fill="#032954" d="M52.809,38.088v-13.3c-1.749,0-3.167,1.418-3.167,3.167v8.761c0,1.807-1.828,3.132-3.495,2.434    c-0.082-0.034-0.157-0.07-0.222-0.107l-3.066-1.752c-0.907-0.518-1.933-0.791-2.977-0.791h-3.073l-0.5,26.167h5.5    c7.548,0,13.667-6.119,13.667-13.667v-5.168c0-1.107-0.488-2.158-1.333-2.872l0,0C53.297,40.245,52.809,39.195,52.809,38.088z"/>
	</g>
	<g>
		<path fill="#032954" d="M23.309,38.088v-13.3c1.749,0,3.167,1.418,3.167,3.167v8.761c0,1.807,1.828,3.132,3.495,2.434    c0.082-0.034,0.157-0.07,0.222-0.107l3.066-1.752c0.907-0.518,1.933-0.791,2.977-0.791h3.073l0.5,26.167h-5.5    c-7.548,0-13.667-6.119-13.667-13.667v-5.168c0-1.107,0.488-2.158,1.333-2.872h0C22.821,40.245,23.309,39.195,23.309,38.088z"/>
	</g>
	<g>
		<path fill="#032954" d="M44.809,9.333V5c0-2.761-2.239-5-5-5h-8.406c-2.547,0-3.935,2.974-2.3,4.927l5.306,6.333    c0.57,0.68,1.412,1.073,2.3,1.073h5.1C43.466,12.333,44.809,10.99,44.809,9.333z"/>
	</g>
	<g>
		<g>
			<path fill="#C78982" d="M34.167,44.09l-0.359-1.97c-0.1-0.551,0.272-1.089,0.827-1.17c2.403-0.351,4.632-0.355,6.762-0.012     c0.556,0.089,0.912,0.644,0.793,1.194l-0.423,1.959c-0.114,0.528-0.624,0.853-1.157,0.772c-1.651-0.249-3.4-0.238-5.299,0.03     C34.771,44.971,34.264,44.624,34.167,44.09z"/>
		</g>
	</g>
</g>

            </g>
        </g>
    </g>
    
</svg>