<svg width="1119" height="844" viewBox="0 0 1119 844" fill="none" xmlns="http://www.w3.org/2000/svg">
<g opacity="0.6" clip-path="url(#clip0)">
<path d="M111.047 487.672C172.423 558.159 293.629 466.97 469.25 506.879C621.359 541.461 630.11 633.318 751.642 628.763C840.431 625.453 937.183 574.185 990.356 484.868C1049 386.389 1027.68 286.13 1021.7 261.801C994.983 152.677 915.698 95.1134 887.728 75.4526C772.488 -5.49991 643.173 8.68597 581.135 15.4605C348.1 40.9832 98.6138 207.357 87.5052 388.239C86.0288 411.919 83.3419 455.841 111.047 487.672Z" fill="#BFE9FF"/>
</g>
<defs>
<clipPath id="clip0">
<rect width="937.962" height="671.376" fill="white" transform="matrix(0.9307 -0.365783 -0.365783 -0.9307 245.578 843.94)"/>
</clipPath>
</defs>
</svg>
