<svg width="1119" height="968" viewBox="0 0 1119 968" fill="none" xmlns="http://www.w3.org/2000/svg">
<g opacity="0.6" clip-path="url(#clip0)">
<path d="M111.047 611.672C172.423 682.159 293.629 590.97 469.25 630.879C621.359 665.461 630.11 757.318 751.642 752.763C840.431 749.453 937.183 698.185 990.356 608.868C1049 510.389 1027.68 410.13 1021.7 385.801C994.983 276.677 915.698 219.113 887.728 199.453C772.488 118.5 643.173 132.686 581.136 139.461C348.1 164.983 98.6139 331.357 87.5053 512.239C86.029 535.919 83.342 579.842 111.047 611.672Z" fill="#BFE9FF"/>
</g>
<defs>
<clipPath id="clip0">
<rect width="937.962" height="671.376" fill="white" transform="matrix(0.9307 -0.365783 -0.365783 -0.9307 245.578 967.94)"/>
</clipPath>
</defs>
</svg>
