<svg width="132" height="115" viewBox="0 0 132 115" fill="none" xmlns="http://www.w3.org/2000/svg">
<g opacity="0.3">
<mask id="mask0" mask-type="alpha" maskUnits="userSpaceOnUse" x="0" y="0" width="11" height="11">
<path d="M5.22838 10.425C8.11594 10.425 10.4568 8.09121 10.4568 5.21245C10.4568 2.33368 8.11594 0 5.22838 0C2.34082 0 0 2.33368 0 5.21245C0 8.09121 2.34082 10.425 5.22838 10.425Z" fill="#4089ED"/>
</mask>
<g mask="url(#mask0)">
<path d="M5.22838 10.425C8.11594 10.425 10.4568 8.09121 10.4568 5.21245C10.4568 2.33368 8.11594 0 5.22838 0C2.34082 0 0 2.33368 0 5.21245C0 8.09121 2.34082 10.425 5.22838 10.425Z" fill="#4089ED"/>
</g>
<mask id="mask1" mask-type="alpha" maskUnits="userSpaceOnUse" x="30" y="0" width="11" height="11">
<path d="M35.5094 10.425C38.397 10.425 40.7378 8.09121 40.7378 5.21245C40.7378 2.33368 38.397 0 35.5094 0C32.6218 0 30.281 2.33368 30.281 5.21245C30.281 8.09121 32.6218 10.425 35.5094 10.425Z" fill="#4089ED"/>
</mask>
<g mask="url(#mask1)">
<path d="M35.5094 10.425C38.397 10.425 40.7378 8.09121 40.7378 5.21245C40.7378 2.33368 38.397 0 35.5094 0C32.6218 0 30.281 2.33368 30.281 5.21245C30.281 8.09121 32.6218 10.425 35.5094 10.425Z" fill="#4089ED"/>
</g>
<mask id="mask2" mask-type="alpha" maskUnits="userSpaceOnUse" x="60" y="0" width="12" height="11">
<path d="M65.7904 10.425C68.678 10.425 71.0188 8.09121 71.0188 5.21245C71.0188 2.33368 68.678 0 65.7904 0C62.9028 0 60.562 2.33368 60.562 5.21245C60.562 8.09121 62.9028 10.425 65.7904 10.425Z" fill="#4089ED"/>
</mask>
<g mask="url(#mask2)">
<path d="M65.7904 10.425C68.678 10.425 71.0188 8.09121 71.0188 5.21245C71.0188 2.33368 68.678 0 65.7904 0C62.9028 0 60.562 2.33368 60.562 5.21245C60.562 8.09121 62.9028 10.425 65.7904 10.425Z" fill="#4089ED"/>
</g>
<mask id="mask3" mask-type="alpha" maskUnits="userSpaceOnUse" x="90" y="0" width="12" height="11">
<path d="M96.0717 10.425C98.9592 10.425 101.3 8.09121 101.3 5.21245C101.3 2.33368 98.9592 0 96.0717 0C93.1841 0 90.8433 2.33368 90.8433 5.21245C90.8433 8.09121 93.1841 10.425 96.0717 10.425Z" fill="#4089ED"/>
</mask>
<g mask="url(#mask3)">
<path d="M96.0717 10.425C98.9592 10.425 101.3 8.09121 101.3 5.21245C101.3 2.33368 98.9592 0 96.0717 0C93.1841 0 90.8433 2.33368 90.8433 5.21245C90.8433 8.09121 93.1841 10.425 96.0717 10.425Z" fill="#4089ED"/>
</g>
<mask id="mask4" mask-type="alpha" maskUnits="userSpaceOnUse" x="121" y="0" width="11" height="11">
<path d="M126.353 10.425C129.24 10.425 131.581 8.09121 131.581 5.21245C131.581 2.33368 129.24 0 126.353 0C123.465 0 121.124 2.33368 121.124 5.21245C121.124 8.09121 123.465 10.425 126.353 10.425Z" fill="#4089ED"/>
</mask>
<g mask="url(#mask4)">
<path d="M126.353 10.425C129.24 10.425 131.581 8.09121 131.581 5.21245C131.581 2.33368 129.24 0 126.353 0C123.465 0 121.124 2.33368 121.124 5.21245C121.124 8.09121 123.465 10.425 126.353 10.425Z" fill="#4089ED"/>
</g>
<mask id="mask5" mask-type="alpha" maskUnits="userSpaceOnUse" x="0" y="26" width="11" height="11">
<path d="M5.22838 36.5958C8.11594 36.5958 10.4568 34.2621 10.4568 31.3834C10.4568 28.5046 8.11594 26.171 5.22838 26.171C2.34082 26.171 0 28.5046 0 31.3834C0 34.2621 2.34082 36.5958 5.22838 36.5958Z" fill="#4089ED"/>
</mask>
<g mask="url(#mask5)">
<path d="M5.22838 36.5958C8.11594 36.5958 10.4568 34.2621 10.4568 31.3834C10.4568 28.5046 8.11594 26.171 5.22838 26.171C2.34082 26.171 0 28.5046 0 31.3834C0 34.2621 2.34082 36.5958 5.22838 36.5958Z" fill="#4089ED"/>
</g>
<mask id="mask6" mask-type="alpha" maskUnits="userSpaceOnUse" x="30" y="26" width="11" height="11">
<path d="M35.5094 36.5958C38.397 36.5958 40.7378 34.2621 40.7378 31.3834C40.7378 28.5046 38.397 26.171 35.5094 26.171C32.6218 26.171 30.281 28.5046 30.281 31.3834C30.281 34.2621 32.6218 36.5958 35.5094 36.5958Z" fill="#4089ED"/>
</mask>
<g mask="url(#mask6)">
<path d="M35.5094 36.5958C38.397 36.5958 40.7378 34.2621 40.7378 31.3834C40.7378 28.5046 38.397 26.171 35.5094 26.171C32.6218 26.171 30.281 28.5046 30.281 31.3834C30.281 34.2621 32.6218 36.5958 35.5094 36.5958Z" fill="#4089ED"/>
</g>
<mask id="mask7" mask-type="alpha" maskUnits="userSpaceOnUse" x="60" y="26" width="12" height="11">
<path d="M65.7904 36.5958C68.678 36.5958 71.0188 34.2621 71.0188 31.3834C71.0188 28.5046 68.678 26.171 65.7904 26.171C62.9028 26.171 60.562 28.5046 60.562 31.3834C60.562 34.2621 62.9028 36.5958 65.7904 36.5958Z" fill="#4089ED"/>
</mask>
<g mask="url(#mask7)">
<path d="M65.7904 36.5958C68.678 36.5958 71.0188 34.2621 71.0188 31.3834C71.0188 28.5046 68.678 26.171 65.7904 26.171C62.9028 26.171 60.562 28.5046 60.562 31.3834C60.562 34.2621 62.9028 36.5958 65.7904 36.5958Z" fill="#4089ED"/>
</g>
<mask id="mask8" mask-type="alpha" maskUnits="userSpaceOnUse" x="90" y="26" width="12" height="11">
<path d="M96.0717 36.5958C98.9592 36.5958 101.3 34.2621 101.3 31.3834C101.3 28.5046 98.9592 26.171 96.0717 26.171C93.1841 26.171 90.8433 28.5046 90.8433 31.3834C90.8433 34.2621 93.1841 36.5958 96.0717 36.5958Z" fill="#4089ED"/>
</mask>
<g mask="url(#mask8)">
<path d="M96.0717 36.5958C98.9592 36.5958 101.3 34.2621 101.3 31.3834C101.3 28.5046 98.9592 26.171 96.0717 26.171C93.1841 26.171 90.8433 28.5046 90.8433 31.3834C90.8433 34.2621 93.1841 36.5958 96.0717 36.5958Z" fill="#4089ED"/>
</g>
<mask id="mask9" mask-type="alpha" maskUnits="userSpaceOnUse" x="121" y="26" width="11" height="11">
<path d="M126.353 36.5958C129.24 36.5958 131.581 34.2621 131.581 31.3834C131.581 28.5046 129.24 26.171 126.353 26.171C123.465 26.171 121.124 28.5046 121.124 31.3834C121.124 34.2621 123.465 36.5958 126.353 36.5958Z" fill="#4089ED"/>
</mask>
<g mask="url(#mask9)">
<path d="M126.353 36.5958C129.24 36.5958 131.581 34.2621 131.581 31.3834C131.581 28.5046 129.24 26.171 126.353 26.171C123.465 26.171 121.124 28.5046 121.124 31.3834C121.124 34.2621 123.465 36.5958 126.353 36.5958Z" fill="#4089ED"/>
</g>
<mask id="mask10" mask-type="alpha" maskUnits="userSpaceOnUse" x="0" y="52" width="11" height="11">
<path d="M5.22838 62.7125C8.11594 62.7125 10.4568 60.3788 10.4568 57.5C10.4568 54.6212 8.11594 52.2875 5.22838 52.2875C2.34082 52.2875 0 54.6212 0 57.5C0 60.3788 2.34082 62.7125 5.22838 62.7125Z" fill="#4089ED"/>
</mask>
<g mask="url(#mask10)">
<path d="M5.22838 62.7125C8.11594 62.7125 10.4568 60.3788 10.4568 57.5C10.4568 54.6212 8.11594 52.2875 5.22838 52.2875C2.34082 52.2875 0 54.6212 0 57.5C0 60.3788 2.34082 62.7125 5.22838 62.7125Z" fill="#4089ED"/>
</g>
<mask id="mask11" mask-type="alpha" maskUnits="userSpaceOnUse" x="30" y="52" width="11" height="11">
<path d="M35.5094 62.7125C38.397 62.7125 40.7378 60.3788 40.7378 57.5C40.7378 54.6212 38.397 52.2875 35.5094 52.2875C32.6218 52.2875 30.281 54.6212 30.281 57.5C30.281 60.3788 32.6218 62.7125 35.5094 62.7125Z" fill="#4089ED"/>
</mask>
<g mask="url(#mask11)">
<path d="M35.5094 62.7125C38.397 62.7125 40.7378 60.3788 40.7378 57.5C40.7378 54.6212 38.397 52.2875 35.5094 52.2875C32.6218 52.2875 30.281 54.6212 30.281 57.5C30.281 60.3788 32.6218 62.7125 35.5094 62.7125Z" fill="#4089ED"/>
</g>
<mask id="mask12" mask-type="alpha" maskUnits="userSpaceOnUse" x="60" y="52" width="12" height="11">
<path d="M65.7904 62.7125C68.678 62.7125 71.0188 60.3788 71.0188 57.5C71.0188 54.6212 68.678 52.2875 65.7904 52.2875C62.9028 52.2875 60.562 54.6212 60.562 57.5C60.562 60.3788 62.9028 62.7125 65.7904 62.7125Z" fill="#4089ED"/>
</mask>
<g mask="url(#mask12)">
<path d="M65.7904 62.7125C68.678 62.7125 71.0188 60.3788 71.0188 57.5C71.0188 54.6212 68.678 52.2875 65.7904 52.2875C62.9028 52.2875 60.562 54.6212 60.562 57.5C60.562 60.3788 62.9028 62.7125 65.7904 62.7125Z" fill="#4089ED"/>
</g>
<mask id="mask13" mask-type="alpha" maskUnits="userSpaceOnUse" x="90" y="52" width="12" height="11">
<path d="M96.0717 62.7125C98.9592 62.7125 101.3 60.3788 101.3 57.5C101.3 54.6212 98.9592 52.2875 96.0717 52.2875C93.1841 52.2875 90.8433 54.6212 90.8433 57.5C90.8433 60.3788 93.1841 62.7125 96.0717 62.7125Z" fill="#4089ED"/>
</mask>
<g mask="url(#mask13)">
<path d="M96.0717 62.7125C98.9592 62.7125 101.3 60.3788 101.3 57.5C101.3 54.6212 98.9592 52.2875 96.0717 52.2875C93.1841 52.2875 90.8433 54.6212 90.8433 57.5C90.8433 60.3788 93.1841 62.7125 96.0717 62.7125Z" fill="#4089ED"/>
</g>
<mask id="mask14" mask-type="alpha" maskUnits="userSpaceOnUse" x="121" y="52" width="11" height="11">
<path d="M126.353 62.7125C129.24 62.7125 131.581 60.3788 131.581 57.5C131.581 54.6212 129.24 52.2875 126.353 52.2875C123.465 52.2875 121.124 54.6212 121.124 57.5C121.124 60.3788 123.465 62.7125 126.353 62.7125Z" fill="#4089ED"/>
</mask>
<g mask="url(#mask14)">
<path d="M126.353 62.7125C129.24 62.7125 131.581 60.3788 131.581 57.5C131.581 54.6212 129.24 52.2875 126.353 52.2875C123.465 52.2875 121.124 54.6212 121.124 57.5C121.124 60.3788 123.465 62.7125 126.353 62.7125Z" fill="#4089ED"/>
</g>
<mask id="mask15" mask-type="alpha" maskUnits="userSpaceOnUse" x="0" y="78" width="11" height="11">
<path d="M5.22838 88.8834C8.11594 88.8834 10.4568 86.5496 10.4568 83.6709C10.4568 80.7921 8.11594 78.4584 5.22838 78.4584C2.34082 78.4584 0 80.7921 0 83.6709C0 86.5496 2.34082 88.8834 5.22838 88.8834Z" fill="#4089ED"/>
</mask>
<g mask="url(#mask15)">
<path d="M5.22838 88.8834C8.11594 88.8834 10.4568 86.5496 10.4568 83.6709C10.4568 80.7921 8.11594 78.4584 5.22838 78.4584C2.34082 78.4584 0 80.7921 0 83.6709C0 86.5496 2.34082 88.8834 5.22838 88.8834Z" fill="#4089ED"/>
</g>
<mask id="mask16" mask-type="alpha" maskUnits="userSpaceOnUse" x="30" y="78" width="11" height="11">
<path d="M35.5094 88.8834C38.397 88.8834 40.7378 86.5496 40.7378 83.6709C40.7378 80.7921 38.397 78.4584 35.5094 78.4584C32.6218 78.4584 30.281 80.7921 30.281 83.6709C30.281 86.5496 32.6218 88.8834 35.5094 88.8834Z" fill="#4089ED"/>
</mask>
<g mask="url(#mask16)">
<path d="M35.5094 88.8834C38.397 88.8834 40.7378 86.5496 40.7378 83.6709C40.7378 80.7921 38.397 78.4584 35.5094 78.4584C32.6218 78.4584 30.281 80.7921 30.281 83.6709C30.281 86.5496 32.6218 88.8834 35.5094 88.8834Z" fill="#4089ED"/>
</g>
<mask id="mask17" mask-type="alpha" maskUnits="userSpaceOnUse" x="60" y="78" width="12" height="11">
<path d="M65.7904 88.8834C68.678 88.8834 71.0188 86.5496 71.0188 83.6709C71.0188 80.7921 68.678 78.4584 65.7904 78.4584C62.9028 78.4584 60.562 80.7921 60.562 83.6709C60.562 86.5496 62.9028 88.8834 65.7904 88.8834Z" fill="#4089ED"/>
</mask>
<g mask="url(#mask17)">
<path d="M65.7904 88.8834C68.678 88.8834 71.0188 86.5496 71.0188 83.6709C71.0188 80.7921 68.678 78.4584 65.7904 78.4584C62.9028 78.4584 60.562 80.7921 60.562 83.6709C60.562 86.5496 62.9028 88.8834 65.7904 88.8834Z" fill="#4089ED"/>
</g>
<mask id="mask18" mask-type="alpha" maskUnits="userSpaceOnUse" x="90" y="78" width="12" height="11">
<path d="M96.0717 88.8834C98.9592 88.8834 101.3 86.5496 101.3 83.6709C101.3 80.7921 98.9592 78.4584 96.0717 78.4584C93.1841 78.4584 90.8433 80.7921 90.8433 83.6709C90.8433 86.5496 93.1841 88.8834 96.0717 88.8834Z" fill="#4089ED"/>
</mask>
<g mask="url(#mask18)">
<path d="M96.0717 88.8834C98.9592 88.8834 101.3 86.5496 101.3 83.6709C101.3 80.7921 98.9592 78.4584 96.0717 78.4584C93.1841 78.4584 90.8433 80.7921 90.8433 83.6709C90.8433 86.5496 93.1841 88.8834 96.0717 88.8834Z" fill="#4089ED"/>
</g>
<mask id="mask19" mask-type="alpha" maskUnits="userSpaceOnUse" x="121" y="78" width="11" height="11">
<path d="M126.353 88.8834C129.24 88.8834 131.581 86.5496 131.581 83.6709C131.581 80.7921 129.24 78.4584 126.353 78.4584C123.465 78.4584 121.124 80.7921 121.124 83.6709C121.124 86.5496 123.465 88.8834 126.353 88.8834Z" fill="#4089ED"/>
</mask>
<g mask="url(#mask19)">
<path d="M126.353 88.8834C129.24 88.8834 131.581 86.5496 131.581 83.6709C131.581 80.7921 129.24 78.4584 126.353 78.4584C123.465 78.4584 121.124 80.7921 121.124 83.6709C121.124 86.5496 123.465 88.8834 126.353 88.8834Z" fill="#4089ED"/>
</g>
<mask id="mask20" mask-type="alpha" maskUnits="userSpaceOnUse" x="0" y="104" width="11" height="11">
<path d="M5.22838 115C8.11594 115 10.4568 112.666 10.4568 109.788C10.4568 106.909 8.11594 104.575 5.22838 104.575C2.34082 104.575 0 106.909 0 109.788C0 112.666 2.34082 115 5.22838 115Z" fill="#4089ED"/>
</mask>
<g mask="url(#mask20)">
<path d="M5.22838 115C8.11594 115 10.4568 112.666 10.4568 109.788C10.4568 106.909 8.11594 104.575 5.22838 104.575C2.34082 104.575 0 106.909 0 109.788C0 112.666 2.34082 115 5.22838 115Z" fill="#4089ED"/>
</g>
<mask id="mask21" mask-type="alpha" maskUnits="userSpaceOnUse" x="30" y="104" width="11" height="11">
<path d="M35.5094 115C38.397 115 40.7378 112.666 40.7378 109.788C40.7378 106.909 38.397 104.575 35.5094 104.575C32.6218 104.575 30.281 106.909 30.281 109.788C30.281 112.666 32.6218 115 35.5094 115Z" fill="#4089ED"/>
</mask>
<g mask="url(#mask21)">
<path d="M35.5094 115C38.397 115 40.7378 112.666 40.7378 109.788C40.7378 106.909 38.397 104.575 35.5094 104.575C32.6218 104.575 30.281 106.909 30.281 109.788C30.281 112.666 32.6218 115 35.5094 115Z" fill="#4089ED"/>
</g>
<mask id="mask22" mask-type="alpha" maskUnits="userSpaceOnUse" x="60" y="104" width="12" height="11">
<path d="M65.7904 115C68.678 115 71.0188 112.666 71.0188 109.788C71.0188 106.909 68.678 104.575 65.7904 104.575C62.9028 104.575 60.562 106.909 60.562 109.788C60.562 112.666 62.9028 115 65.7904 115Z" fill="#4089ED"/>
</mask>
<g mask="url(#mask22)">
<path d="M65.7904 115C68.678 115 71.0188 112.666 71.0188 109.788C71.0188 106.909 68.678 104.575 65.7904 104.575C62.9028 104.575 60.562 106.909 60.562 109.788C60.562 112.666 62.9028 115 65.7904 115Z" fill="#4089ED"/>
</g>
<mask id="mask23" mask-type="alpha" maskUnits="userSpaceOnUse" x="90" y="104" width="12" height="11">
<path d="M96.0717 115C98.9592 115 101.3 112.666 101.3 109.788C101.3 106.909 98.9592 104.575 96.0717 104.575C93.1841 104.575 90.8433 106.909 90.8433 109.788C90.8433 112.666 93.1841 115 96.0717 115Z" fill="#4089ED"/>
</mask>
<g mask="url(#mask23)">
<path d="M96.0717 115C98.9592 115 101.3 112.666 101.3 109.788C101.3 106.909 98.9592 104.575 96.0717 104.575C93.1841 104.575 90.8433 106.909 90.8433 109.788C90.8433 112.666 93.1841 115 96.0717 115Z" fill="#4089ED"/>
</g>
<mask id="mask24" mask-type="alpha" maskUnits="userSpaceOnUse" x="121" y="104" width="11" height="11">
<path d="M126.353 115C129.24 115 131.581 112.666 131.581 109.788C131.581 106.909 129.24 104.575 126.353 104.575C123.465 104.575 121.124 106.909 121.124 109.788C121.124 112.666 123.465 115 126.353 115Z" fill="#4089ED"/>
</mask>
<g mask="url(#mask24)">
<path d="M126.353 115C129.24 115 131.581 112.666 131.581 109.788C131.581 106.909 129.24 104.575 126.353 104.575C123.465 104.575 121.124 106.909 121.124 109.788C121.124 112.666 123.465 115 126.353 115Z" fill="#4089ED"/>
</g>
</g>
</svg>
