<?xml version="1.0" encoding="UTF-8"?><svg version="1.1" xmlns="http://www.w3.org/2000/svg" xmlns:xlink="http://www.w3.org/1999/xlink" viewBox="0 0 1600 1200" width="1600" height="1200" x="0px" y="0px">
              
              <!-- ITEM 0 -->
<g transform="translate(196.0 242.0) rotate(0.0 169.0 169.0) scale(3.38 3.38)">
<g transform="translate(-0.0 -0.0)">
<g clip-path="url(#clipPathId-collage-item-0)">
		<defs>
			<clipPath id="clipPathId-collage-item-0">
				<rect x="0.0" y="0.0" width="100.0" height="100.0"/>
			</clipPath>
		</defs>

<circle fill="#d9e7ff" cx="50" cy="50" r="50"/>

</g>
</g>
</g>

<!-- ITEM 1 -->
<g transform="translate(955.0 219.0) rotate(0.0 222.0 222.0) scale(4.44 4.44)">
<g transform="translate(-0.0 -0.0)">
<g clip-path="url(#clipPathId-collage-item-1)">
		<defs>
			<clipPath id="clipPathId-collage-item-1">
				<rect x="0.0" y="0.0" width="100.0" height="100.0"/>
			</clipPath>
		</defs>

<circle fill="#d9e7ff" cx="50" cy="50" r="50"/>

</g>
</g>
</g>

<!-- ITEM 2 -->
<g transform="translate(340.0 137.0) rotate(0.0 464.0 464.0) scale(9.28 9.28)">
<g transform="translate(-0.0 -0.0)">
<g clip-path="url(#clipPathId-collage-item-2)">
		<defs>
			<clipPath id="clipPathId-collage-item-2">
				<rect x="0.0" y="0.0" width="100.0" height="100.0"/>
			</clipPath>
		</defs>

<circle fill="#f1f6ff" cx="50" cy="50" r="50"/>

</g>
</g>
</g>

<!-- ITEM 3 -->
<g transform="translate(1286.0 718.0) rotate(0.0 92.0 92.0) scale(1.84 1.84)">
<g transform="translate(-0.0 -0.0)">
<g clip-path="url(#clipPathId-collage-item-3)">
		<defs>
			<clipPath id="clipPathId-collage-item-3">
				<rect x="0.0" y="0.0" width="100.0" height="100.0"/>
			</clipPath>
		</defs>

<circle fill="#d9e7ff" cx="50" cy="50" r="50"/>

</g>
</g>
</g>

<!-- ITEM 4 -->
<g transform="translate(599.0 178.0) rotate(0.0 205.0 410.5) scale(2.05 2.0525)">
<g transform="translate(-0.0 -0.0)">
<g clip-path="url(#clipPathId-collage-item-4)">
		<defs>
			<clipPath id="clipPathId-collage-item-4">
				<rect x="0.0" y="0.0" width="200.0" height="400.0"/>
			</clipPath>
		</defs>

<path fill="#C1D7FD" d="M170.483,400H29.06c-14.49,0-26.237-11.621-26.237-25.953V25.954c0-14.334,11.746-25.953,26.237-25.953  h141.422c14.49,0,26.237,11.62,26.237,25.953v348.094C196.72,388.38,184.972,400,170.483,400z"/>
<ellipse fill="#A1C3FC" cx="71.914" cy="25.119" rx="4.591" ry="4.541"/>
<path fill="#A1C3FC" d="M170.483,0h-27.148c-1.392,0.857-2.761,1.736-4.101,2.624c-35.569,23.556-66.161,56.908-78.064,97.58  c-4.799,16.394-6.46,33.511-10.109,50.193c-8.351,38.196-26.96,73.455-48.236,106.401v117.248c0,14.334,11.746,25.953,26.237,25.953  h141.422c14.49,0,26.237-11.621,26.237-25.953V25.954C196.72,11.62,184.972,0,170.483,0z"/>
<linearGradient id="SVGID_1_-i4" gradientUnits="userSpaceOnUse" x1="2826.748" y1="-3296.2417" x2="3018.2227" y2="-3296.2417" gradientTransform="matrix(0.1702 0 0 -0.1702 -396.2191 -184.383)">
	<stop offset="0" style="stop-color:#A1C3FC"/>
	<stop offset="1" style="stop-color:#8AB8FD"/>
</linearGradient>
<ellipse fill="url(#SVGID_1_-i4)" cx="101.188" cy="376.637" rx="16.295" ry="16.118"/>
<polygon fill="#A1C3FC" points="84.382,23.78 117.041,19.749 117.742,25.305 85.082,29.335 "/>
<rect x="10.503" y="45.282" fill="#FFFFFF" width="178.538" height="309.834"/>
<ellipse fill="#C1D7FD" cx="99.268" cy="374.738" rx="12.454" ry="12.32"/>
<g>
	<path fill="#428DFC" d="M113.05,24.848H86.213c-0.531,0-0.96-0.425-0.96-0.949c0-0.524,0.429-0.949,0.96-0.949h26.837   c0.531,0,0.96,0.425,0.96,0.949C114.01,24.423,113.58,24.848,113.05,24.848z"/>
</g>
<ellipse fill="#428DFC" cx="72.028" cy="24.567" rx="3.15" ry="3.116"/>
<rect x="0" y="46.176" fill="#D62929" width="3.225" height="13.757"/>
<rect x="0" y="76.483" fill="#D62929" width="3.225" height="24.725"/>
<rect x="196.775" y="76.483" fill="#D62929" width="3.225" height="24.725"/>
<rect x="0" y="108.783" fill="#D62929" width="3.225" height="24.725"/>
<polygon fill="#FFFFFF" points="68.426,18.107 72.874,22.86 68.069,27.261 63.621,22.508 "/>
<polygon fill="#A1C3FC" points="65.274,18.622 68.419,21.982 65.022,25.093 61.877,21.733 "/>

</g>
</g>
</g>

<!-- ITEM 5 -->
<g transform="translate(1329.0 780.0) rotate(23.289599284581666 17.5 17.5) scale(0.35 0.35)">
<g transform="translate(-0.0 -0.0)">
<g clip-path="url(#clipPathId-collage-item-5)">
		<defs>
			<clipPath id="clipPathId-collage-item-5">
				<rect x="0.0" y="0.0" width="100.0" height="100.0"/>
			</clipPath>
		</defs>

<path fill="#E94A47" d="M98.663,98.531c-33.052,1.963-65.546,1.955-97.487,0c-1.46-34.57-1.676-67.372,0-97.487  c32.497-1.392,64.992-1.392,97.487,0C100.512,32.524,100.381,65.091,98.663,98.531z"/>

</g>
</g>
</g>

<!-- ITEM 6 -->
<g transform="translate(1352.0 650.0) rotate(339.6156387167719 8.5 8.5) scale(0.17 0.17)">
<g transform="translate(-0.0 -0.0)">
<g clip-path="url(#clipPathId-collage-item-6)">
		<defs>
			<clipPath id="clipPathId-collage-item-6">
				<rect x="0.0" y="0.0" width="100.0" height="100.0"/>
			</clipPath>
		</defs>

<path fill="#23286B" d="M98.663,98.531c-33.052,1.963-65.546,1.955-97.487,0c-1.46-34.57-1.676-67.372,0-97.487  c32.497-1.392,64.992-1.392,97.487,0C100.512,32.524,100.381,65.091,98.663,98.531z"/>

</g>
</g>
</g>

<!-- ITEM 7 -->
<g transform="translate(481.0 293.0) rotate(23.89471746386031 14.5 14.5) scale(0.29 0.29)">
<g transform="translate(-0.0 -0.0)">
<g clip-path="url(#clipPathId-collage-item-7)">
		<defs>
			<clipPath id="clipPathId-collage-item-7">
				<rect x="0.0" y="0.0" width="100.0" height="100.0"/>
			</clipPath>
		</defs>

<path fill="#E94A47" d="M98.663,98.531c-33.052,1.963-65.546,1.955-97.487,0c-1.46-34.57-1.676-67.372,0-97.487  c32.497-1.392,64.992-1.392,97.487,0C100.512,32.524,100.381,65.091,98.663,98.531z"/>

</g>
</g>
</g>

<!-- ITEM 8 -->
<g transform="translate(440.0 207.0) rotate(40.6942010059897 8.5 8.5) scale(0.17 0.17)">
<g transform="translate(-0.0 -0.0)">
<g clip-path="url(#clipPathId-collage-item-8)">
		<defs>
			<clipPath id="clipPathId-collage-item-8">
				<rect x="0.0" y="0.0" width="100.0" height="100.0"/>
			</clipPath>
		</defs>

<path fill="#23286B" d="M98.663,98.531c-33.052,1.963-65.546,1.955-97.487,0c-1.46-34.57-1.676-67.372,0-97.487  c32.497-1.392,64.992-1.392,97.487,0C100.512,32.524,100.381,65.091,98.663,98.531z"/>

</g>
</g>
</g>

<!-- ITEM 9 -->
<g transform="translate(1390.0 741.0) rotate(345.6093060966638 12.5 12.5) scale(0.25 0.25)">
<g transform="translate(-0.0 -0.0)">
<g clip-path="url(#clipPathId-collage-item-9)">
		<defs>
			<clipPath id="clipPathId-collage-item-9">
				<rect x="0.0" y="0.0" width="100.0" height="100.0"/>
			</clipPath>
		</defs>

<path fill="#A1C3FC" d="M98.663,98.531c-33.052,1.963-65.546,1.955-97.487,0c-1.46-34.57-1.676-67.372,0-97.487  c32.497-1.392,64.992-1.392,97.487,0C100.512,32.524,100.381,65.091,98.663,98.531z"/>

</g>
</g>
</g>

<!-- ITEM 10 -->
<g transform="translate(422.0 365.0) rotate(307.7730094879444 20.0 20.0) scale(0.4 0.4)">
<g transform="translate(-0.0 -0.0)">
<g clip-path="url(#clipPathId-collage-item-10)">
		<defs>
			<clipPath id="clipPathId-collage-item-10">
				<rect x="0.0" y="0.0" width="100.0" height="100.0"/>
			</clipPath>
		</defs>

<path fill="#A1C3FC" d="M98.663,98.531c-33.052,1.963-65.546,1.955-97.487,0c-1.46-34.57-1.676-67.372,0-97.487  c32.497-1.392,64.992-1.392,97.487,0C100.512,32.524,100.381,65.091,98.663,98.531z"/>

</g>
</g>
</g>

<!-- ITEM 11 -->
<g transform="translate(480.0 425.0) rotate(316.6433486828405 7.5 7.5) scale(0.15 0.15)">
<g transform="translate(-0.0 -0.0)">
<g clip-path="url(#clipPathId-collage-item-11)">
		<defs>
			<clipPath id="clipPathId-collage-item-11">
				<rect x="0.0" y="0.0" width="100.0" height="100.0"/>
			</clipPath>
		</defs>

<path fill="#23286B" d="M98.663,98.531c-33.052,1.963-65.546,1.955-97.487,0c-1.46-34.57-1.676-67.372,0-97.487  c32.497-1.392,64.992-1.392,97.487,0C100.512,32.524,100.381,65.091,98.663,98.531z"/>

</g>
</g>
</g>

<!-- ITEM 12 -->
<g transform="translate(1050.0 361.0) rotate(0.0 112.0 346.0) scale(1.382716049382716 1.384)">
<g transform="translate(-0.0 -0.0)">
<g clip-path="url(#clipPathId-collage-item-12)">
		<defs>
			<clipPath id="clipPathId-collage-item-12">
				<rect x="0.0" y="0.0" width="162.0" height="500.0"/>
			</clipPath>
		</defs>

<linearGradient id="SVGID_1_-i12" gradientUnits="userSpaceOnUse" x1="1752.7941" y1="1617.6847" x2="1851.6469" y2="1459.7379" gradientTransform="matrix(0.1503 0 0 0.1503 -232.5418 -119.7942)">
	<stop offset="0" style="stop-color:#FFBEB6"/>
	<stop offset="1" style="stop-color:#F2A19C"/>
</linearGradient>
<path fill="url(#SVGID_1_-i12)" d="M59.934,124.115c-4.198,4.283-18.772,12.324-22.906,5.894c-4.172-6.49-13.995-25.72-9.288-48.014  c0.701-3.047,0.964-6.196,1.399-9.698c0.144-1.161,0.246-2.891-0.095-4.011c-0.341-1.118-1.312-2.56-2.481-2.579  c-0.714,0.001-2.099,0-2.349,1.62c-0.342,3.429-0.687,6.858-1.029,10.288c-1.833-0.668-5.707-4.632-7.035-1.255  c-2.361,6.004,0.128,4.854-8.105,22.049c-1.12,2.339,0.338,5.171,0.777,7.727c1.622,9.443,3.424,18.978,7.457,27.668  c2.284,4.921,5.429,9.676,10.085,12.456c3.085,1.841,6.637,2.705,10.129,3.543c7.342,1.762,15.456,3.443,22.131-0.088  c-0.227-15.32,14.352-26.987,17.386-42.004C70.653,113.178,65.293,118.647,59.934,124.115z"/>
<polygon fill="#23286B" points="103.632,120.804 55.632,162.622 0,98.657 48,56.839 "/>
<path fill="#DEEAFE" d="M130.837,61.264c-1.233-1.897-4.833-5.394-4.833-5.394s-2.49,0.451-3.592,0.242  c-5.857-1.108-15.821,0.995-15.821,0.995s-11.089,11.551-15.32,16.573c-21.309,25.289-41.743,53.586-45.767,86.421  c17.969,2.819,36.122,4.45,54.305,4.878c9.785-14.717,19.634-29.555,26.368-45.898s10.225-34.491,6.771-51.827  C132.531,65.163,131.997,63.05,130.837,61.264z"/>
<g id="shoes_2_-i12">
	<path id="R_shoe_2_-i12" fill="#1D72D8" d="M121.452,464.574l12.687,35.423L44.57,500c0,0,4.593-8.866,19.904-15.433   C79.784,478,92.22,464.571,92.22,464.571L121.452,464.574"/>
</g>
<linearGradient id="R_trousers_3_-i12" gradientUnits="userSpaceOnUse" x1="1985.3823" y1="3072.6116" x2="2363.2039" y2="3072.6116" gradientTransform="matrix(0.1503 0 0 0.1503 -232.5418 -119.7942)">
	<stop offset="0" style="stop-color:#28306D"/>
	<stop offset="0.51" style="stop-color:#1F275F"/>
	<stop offset="1" style="stop-color:#171F51"/>
</linearGradient>
<path id="R_trousers_2_-i12" fill="url(#R_trousers_3_-i12)" d="M68.618,337.866c0.064,22.609,23.878,127.016,23.878,127.016h30.152  c0,0-2.25-29.626-3.529-48.763c-1.295-19.117-6.462-15.196-4.454-29.992c2.001-14.786,0.383-24.355-2.785-40  c-7.703-17.742-8.256-25.38-1.803-66.126c-0.875-14.93-0.82-33.65-0.32-47.367c-2.449,2.282-9.381-13.479-9.381-13.479  c-11.513,2.442-23.054,3.571-34.515,3.38C68.093,259.629,69.803,318.2,68.618,337.866z"/>
<g id="head-i12">
	
		<linearGradient id="neck_1_-i12" gradientUnits="userSpaceOnUse" x1="1310.8402" y1="-626.5117" x2="1376.4716" y2="-249.8406" gradientTransform="matrix(-0.0835 0 0 -0.0835 228.9238 20.8426)">
		<stop offset="0" style="stop-color:#FFBEB6"/>
		<stop offset="1" style="stop-color:#F2A19C"/>
	</linearGradient>
	<path id="neck-i12" fill="url(#neck_1_-i12)" d="M108.339,43.413c0,0,2.062,8.402-1.767,13.707c0,0,9.478,8.198,19.492-1.234l0,0   l-3.292-21.758L108.339,43.413z"/>
	<path id="face-i12" fill="#FFBEB6" d="M90.789,28.017c0.007,0.112,0.016,0.195,0.017,0.245c-0.004,0.017-0.004,0.033,0.001,0.051   c0.027,0.45,0.073,0.907,0.132,1.378c0.634,5.072-1.964,9.786-1.612,11.137c0.352,1.352,3.223,1.583,4.518,1.38   c1.295-0.204,4.433,5.698,10.505,8.02c5.698,2.18,12.82-0.102,16.922-3.971c-0.812-10.999-3.713-15.54-15.087-17.659   C93.768,26.28,92.48,18.853,92.48,18.853C91.235,21.743,90.661,24.873,90.789,28.017z"/>
	
		<linearGradient id="eyeglasses_1_-i12" gradientUnits="userSpaceOnUse" x1="2101.4023" y1="1021.876" x2="2232.3694" y2="1021.876" gradientTransform="matrix(0.1503 0 0 0.1503 -232.5418 -119.7942)">
		<stop offset="0" style="stop-color:#28306D"/>
		<stop offset="0.51" style="stop-color:#1F275F"/>
		<stop offset="1" style="stop-color:#171F51"/>
	</linearGradient>
	<path id="eyeglasses-i12" fill="url(#eyeglasses_1_-i12)" d="M83.594,33.227c-0.839-2.403,0.049-4.908,1.98-5.588h0.001   c1.932-0.676,4.188,0.729,5.028,3.131c0.096,0.276,0.171,0.558,0.222,0.844c1.265-0.087,2.512,0.322,3.48,1.14   c0.035-0.138,0.055-0.28,0.101-0.415c0.352-1.163,1.225-2.096,2.363-2.522c2.236-0.783,4.847,0.848,5.822,3.635   c0.466,1.272,0.494,2.664,0.078,3.954c-0.288,0.91-0.885,1.689-1.688,2.201c-0.213,0.13-0.439,0.237-0.673,0.32   c-1.155,0.377-2.418,0.193-3.419-0.496c-1.128-0.748-1.974-1.854-2.402-3.139c-0.319-0.904-0.428-1.866-0.32-2.816   c-0.884-0.818-2.058-1.247-3.26-1.194c0.171,1.484-0.484,2.944-1.706,3.803c-0.182,0.111-0.375,0.203-0.576,0.273   C86.692,37.035,84.436,35.63,83.594,33.227z M97.251,38.864c1.36,1.006,3.28,0.718,4.284-0.644c0.228-0.309,0.396-0.66,0.496-1.031   c0.366-1.147,0.34-2.382-0.076-3.511c-0.852-2.436-3.078-3.882-4.961-3.221c-0.19,0.066-0.371,0.152-0.544,0.258   c-0.67,0.431-1.168,1.084-1.406,1.845C94.335,34.918,95.225,37.464,97.251,38.864L97.251,38.864z M88.401,35.721   c1.584-0.557,2.283-2.674,1.565-4.727c-0.718-2.052-2.589-3.272-4.169-2.719c-1.587,0.556-2.283,2.676-1.565,4.727   C84.949,35.056,86.819,36.275,88.401,35.721L88.401,35.721z"/>
	<path id="hair-i12" fill="#23286B" d="M110.99,0.807c12.167-3.406,21.558,4.876,23.196,7.941c1.557,3.203,3.289,6.317,5.187,9.331   c0.471,0.588,0.958,1.164,1.48,1.711c2.379,2.491,5.126,3.776,8.104,5.31c3.363,1.731,6.214,3.88,6.715,7.835   c0.06,0.488-0.705,0.483-0.765,0c-0.771-6.097-7.599-7.18-11.832-10.171c1.011,1.071,2.176,1.985,3.456,2.711   c3.495,1.777,6.281,4.696,7.893,8.271c-13.554,14.878-32.977,15.693-32.977,15.693c-0.299-7.528-1.17-12.462-4.109-15.75   c3.393,4.944,3.963,11.299,1.504,16.768c-0.193,0.453-0.852,0.062-0.662-0.386c2.987-6.615,1.204-14.412-4.36-19.067   c-2.414-1.178-4.989-1.991-7.641-2.409c-12.418-2.316-13.702-9.745-13.702-9.745c-1.273,2.986-1.846,6.224-1.672,9.467   C84.746,12.307,98.822,4.213,110.99,0.807z"/>
</g>
<g id="shoes_1_-i12">
	
		<linearGradient id="R_shoe_3_-i12" gradientUnits="userSpaceOnUse" x1="2029.0901" y1="4005.8525" x2="2625.0288" y2="4005.8525" gradientTransform="matrix(0.1503 0 0 0.1503 -232.5418 -119.7942)">
		<stop offset="0" style="stop-color:#3E8AF8"/>
		<stop offset="1" style="stop-color:#1479F2"/>
	</linearGradient>
	<path id="R_shoe_1_-i12" fill="url(#R_shoe_3_-i12)" d="M149.313,464.574L162,499.997L72.43,500c0,0,4.593-8.866,19.904-15.433   c15.31-6.567,27.746-19.996,27.746-19.996L149.313,464.574"/>
</g>
<path id="R_trousers_1_-i12" fill="#23286B" d="M71.637,337.866c2.307,22.609,48.444,126.708,48.444,126.708h29.263  c0,0,4.684-29.318,1.011-48.455c-3.693-19.117-10.581-15.196-9.203-29.992c1.367-14.786,0.063-25.229-7.836-40  c-10.257-19.178-14.588-23.333-9.014-66.126c1.959-15.044-9.318-69.713-9.958-83.429c-4.047-5.738-12.467-4.73-12.467-4.73  c-15.958,2.442-32.088,3.571-48.229,3.38C60.419,232.314,71.378,318.2,71.637,337.866z"/>
<path fill="#DEEAFE" d="M67.412,310.17c-1.37,0.277-2.885,0.531-4.091-0.178c-1.301-0.762-1.791-2.369-2.172-3.829  c-12.498-47.744-23.883-97.643-15.98-146.361c19.383,0.473,37.554,1.392,56.937,1.863c2.466,15.896,11.674,29.775,19.798,43.654  c15.147,25.876,27.206,53.562,35.838,82.28C127.993,296.478,97.841,304.011,67.412,310.17z"/>
<polygon fill="#FFFFFF" points="105.808,70.176 102.656,66.178 106.65,63.023 109.802,67.02 "/>
<polygon fill="#FFFFFF" points="92.831,88 89.679,84.002 93.673,80.847 96.825,84.844 "/>
<polygon fill="#FFFFFF" points="79.601,108.626 76.448,104.629 80.442,101.473 83.595,105.471 "/>
<polygon fill="#FFFFFF" points="68.659,133.072 65.506,129.075 69.5,125.919 72.653,129.917 "/>
<polygon fill="#FFFFFF" points="52.375,191.132 49.222,187.134 53.216,183.979 56.369,187.976 "/>
<polygon fill="#FFFFFF" points="53.899,225.51 50.746,221.513 54.74,218.357 57.893,222.354 "/>
<g>
	<path fill="#FFFFFF" d="M99.515,171.139c-0.161,0-0.322-0.001-0.482-0.003c-6.405-0.076-12.804-1.234-18.992-2.354   c-2.891-0.523-5.88-1.064-8.827-1.486c-11.57-1.661-20.218-0.858-27.219,2.52l-0.464-0.899c4.616-2.556,9.597-4.28,14.803-5.124   c5.211-0.845,10.628-0.769,15.299-0.63c4.923,0.145,9.906,0.398,14.815,0.749c3.68,0.263,7.465,0.592,11.196,1.278   c-1.45-0.665-3.018-1.139-4.473-1.517c-16.241-4.22-33.621-5.297-50.261-3.118l-0.132-1.003   c16.765-2.199,34.279-1.109,50.645,3.142c2.459,0.639,5.229,1.547,7.327,3.161c2.499,0.615,4.953,1.431,7.313,2.536l-0.336,0.949   l-2.602-0.641l0.102-0.408c-0.972-0.369-1.959-0.694-2.956-0.982c0.519,0.628,0.947,1.338,1.256,2.138l0.165,0.428l-0.411,0.206   C103.494,170.977,101.472,171.139,99.515,171.139z M60.534,165.448c3.314,0,6.905,0.282,10.823,0.844   c2.965,0.425,5.963,0.968,8.863,1.493c6.148,1.112,12.503,2.263,18.824,2.338c1.818,0.023,3.706-0.06,5.349-0.749   c-0.485-1.028-1.217-1.878-2.101-2.59c-4.583-1.106-9.334-1.537-13.921-1.865c-4.895-0.35-9.864-0.601-14.773-0.747   c-4.622-0.139-9.984-0.213-15.107,0.618c-1.779,0.289-3.53,0.681-5.249,1.179C55.519,165.622,57.942,165.448,60.534,165.448z"/>
</g>
<linearGradient id="SVGID_2_-i12" gradientUnits="userSpaceOnUse" x1="1624.545" y1="1345.3372" x2="1745.9304" y2="1415.781" gradientTransform="matrix(0.1503 0 0 0.1503 -232.5418 -119.7942)">
	<stop offset="0" style="stop-color:#FFBEB6"/>
	<stop offset="1" style="stop-color:#F2A19C"/>
</linearGradient>
<path fill="url(#SVGID_2_-i12)" d="M32.859,85.22c-0.169-0.639-0.646-1.143-1.112-1.611c-3.692-3.706-5.909-5.753-10.334-8.542  c-0.986-0.622-1.228-1.167-2.481-1.241c-1.071,0.281-2.615,1.499-2.863,2.579c-0.263,1.151,0.596,3.38,1.526,4.106  c0.134,0.104,0.272,0.19,0.408,0.288c-0.277-0.136-0.54-0.267-0.833-0.407c-2.119-1.006-1.371-0.994-2.623-0.902  c-1.025,0.421-2.395,1.832-2.497,2.935c-0.048,0.517,0.184,1.07,0.536,1.582c-0.514-0.368-0.412-0.341-1.183-0.363  c-0.907,0.267-2.193,1.346-2.375,2.273c-0.018,0.089-0.115,0.605-0.117,0.706c-0.77,0.347-1.146,0.478-1.803,0.979  c-0.782,0.335-1.816,1.435-1.881,2.284c-0.07,0.905,0.837,2.501,1.627,2.945c2.206,1.244,4.158,1.819,6.543,2.673  c1.335,0.478,2.171,0.996,3.142,1.142c0.619,0.093,1.16-0.007,2.081-0.643c0.418-0.289,0.563-0.865,0.362-1.331  c-0.201-0.465,0.588-0.101,1.639,0.187c0.67,0.183,1.281,0.144,2.381-0.435c0.499-0.263,0.736-0.88,0.575-1.421  c-0.161-0.541-0.582-0.958-0.991-1.346c-1.457-1.376-2.658-2.459-3.885-3.45c1.315,0.743,2.645,1.422,4.045,1.949  c1.195,0.451,2.627,1.094,3.888,1.303c0.804,0.134,1.511,0.016,2.723-0.793c0.549-0.367,0.751-1.114,0.5-1.725  c-0.252-0.611-0.792-1.048-1.316-1.45c-2.315-1.777-3.806-3.129-2.741-2.3c1.009,0.786,2.309,1.726,3.53,2.101  c0.779,0.239,1.495,0.215,2.804-0.426C32.73,86.573,33.028,85.859,32.859,85.22z"/>
<g>
	<path fill="#23286B" d="M104.784,116.574l-0.883-0.493c2.128-3.816,0.108-8.457-0.859-10.275c-0.777-1.46-1.728-2.868-2.647-4.23   c-1.154-1.708-2.347-3.474-3.235-5.392c-3.385-7.312-2.112-15.433-0.241-24.525c1.333-6.478,6.958-14.909,9.468-16.128   c0.444-0.216,0.832-0.242,1.156-0.081l-0.452,0.907c0.006,0.003,0.01,0.004,0.01,0.004c-1.176-0.222-7.726,8.381-9.191,15.504   c-1.835,8.912-3.087,16.86,0.168,23.894c0.854,1.843,2.023,3.576,3.155,5.251c0.935,1.384,1.901,2.813,2.703,4.322   C104.981,107.295,107.156,112.325,104.784,116.574z"/>
</g>
<circle fill="#23286B" cx="104.709" cy="120.332" r="4.966"/>
<g>
	<path fill="#428DFC" d="M80.114,168.347l-0.171-0.997c16.717-2.868,15.692-22.086,15.355-28.401l1.011-0.055   C97.243,156.433,91.795,166.342,80.114,168.347z"/>
</g>
<g>
	<path fill="#428DFC" d="M98.599,168.459c-1.257,0-5.966-1.389-10.03-5.855c-3.501-3.85-7.428-11.074-6.249-23.625l1.008,0.096   c-1.146,12.184,2.625,19.151,5.989,22.848c3.787,4.164,8.191,5.524,9.282,5.524V168.459L98.599,168.459z"/>
</g>
<g>
	<path fill="#23286B" d="M96.943,141.468H94.92v-4.275c0-3.052-2.481-5.536-5.532-5.536h-0.273c-3.05,0-5.532,2.483-5.532,5.536   v4.275h-2.023v-4.275c0-4.17,3.389-7.561,7.555-7.561h0.273c4.166,0,7.555,3.392,7.555,7.561V141.468z"/>
</g>
<rect x="77.229" y="166.361" fill="#428DFC" width="3.436" height="3.439"/>
<rect x="97.648" y="166.361" fill="#428DFC" width="3.436" height="3.439"/>
<linearGradient id="SVGID_3_-i12" gradientUnits="userSpaceOnUse" x1="2159.6675" y1="1853.3549" x2="2552.8083" y2="1853.3549" gradientTransform="matrix(0.1503 0 0 0.1503 -232.5418 -119.7942)">
	<stop offset="0" style="stop-color:#FFBEB6"/>
	<stop offset="1" style="stop-color:#F2A19C"/>
</linearGradient>
<path fill="url(#SVGID_3_-i12)" d="M133.334,79.841c-6.877,5.104-10.935,26.588-14.503,34.378c-7.549,16.478-16,28.326-19.912,43.809  c-5.708,22.592-5.013,48.901-4.743,75.352c0.019,0.001-0.939,4.344-2.12,8.423h16.88c-1.314-1.397-2.632-2.868-3.927-4.434  c-3.425-4.568-3.071-17.094-2.206-23.833c1.121-8.731,4.628-19.55,8.397-27.503c7.02-14.816,18.17-33.315,25.19-48.13  c8.702-18.365,13.94-38.849,14.756-59.158C143.766,74.395,140.212,74.737,133.334,79.841z"/>
<linearGradient id="SVGID_4_-i12" gradientUnits="userSpaceOnUse" x1="2355.3416" y1="1535.9288" x2="2620.7019" y2="1839.6663" gradientTransform="matrix(0.1503 0 0 0.1503 -232.5418 -119.7942)">
	<stop offset="0" style="stop-color:#DEEAFE"/>
	<stop offset="1" style="stop-color:#A1C3FC"/>
</linearGradient>
<path fill="url(#SVGID_4_-i12)" d="M128.799,55.855c12.245,0.55,20.992,11.131,23.928,23.043c2.935,11.912,0.085,24.427-3.258,36.231  c-6.295,22.225-14.363,43.948-24.102,64.895c-4.628-9.651-18.941-18.512-29.817-24.549c12.365-19.657,18.002-35.334,21.892-58.233  c-0.308-0.252,5.112-15.268,5.921-22.234c0.761-6.555,1.918-12.597,2.679-19.152C127.071,55.781,127.536,55.798,128.799,55.855z"/>
<path fill="#E7EFFE" d="M80.349,275.58c-1.243-16.867-3.777-52.539-4.737-58.597c13.317-0.505,26.635-1.009,39.952-1.514  c1.086,19.157,2.173,38.311,3.259,57.468C105.958,272.967,93.097,273.851,80.349,275.58z"/>
<g>
	<path fill="#23286B" d="M88.569,131.09c-0.99-7.672-0.706-15.402,0.85-22.978c0.9-4.383,2.065-7.721,3.666-10.507   c1.714-2.981,4.101-5.57,6.21-7.709c4.379-4.441,9.156-8.551,14.199-12.215c0.852-0.619,1.717-1.232,2.588-1.849   c5.42-3.84,11.024-7.812,13.867-13.696c0.926-1.917,1.844-4.764,0.963-7.443c-0.732-2.222-3.146-4.231-5.58-3.679l-0.148-0.983   c3.061-0.694,5.824,1.713,6.691,4.345c0.988,3.001-0.006,6.116-1.013,8.2c-2.957,6.118-8.668,10.167-14.193,14.081   c-0.866,0.614-1.729,1.225-2.577,1.841c-4.998,3.632-9.734,7.706-14.073,12.107c-2.168,2.199-4.402,4.629-6.054,7.503   c-1.547,2.689-2.676,5.931-3.552,10.204c-1.533,7.466-1.814,15.085-0.836,22.645L88.569,131.09z"/>
</g>

</g>
</g>
</g>

<!-- ITEM 13 -->
<g transform="translate(254.0 472.0) rotate(0.0 199.5 277.0) scale(2.787402894986866 2.7798964312954113)">
<g transform="translate(-0.0 -0.0)">
<g clip-path="url(#clipPathId-collage-item-13)">
		<defs>
			<clipPath id="clipPathId-collage-item-13">
				<rect x="0.0" y="0.0" width="143.144" height="199.288"/>
			</clipPath>
		</defs>

<polygon fill="#C4D9FD" points="95.332,111.938 95.332,0 47.468,0 47.468,111.559 0,199.288 68.46,199.288 74.684,199.288   143.144,199.288 "/>
<rect x="56.343" y="0" fill="#B7D1FD" width="30.459" height="100.949"/>
<polygon fill="#e94a47" points="86.666,113.682 86.666,86.155 56.207,86.155 56.207,113.444 15.918,191.456 59.003,191.456   85.881,191.456 128.967,191.456 "/>
<rect x="62.33" y="172.598" fill="#FFFFFF" width="5.806" height="5.806"/>
<rect x="89.598" y="178.4" fill="#FFFFFF" width="5.806" height="5.806"/>
<rect x="63.95" y="159.714" transform="matrix(0.925 -0.38 0.38 0.925 -56.4573 37.1242)" fill="#FFFFFF" width="3.726" height="3.726"/>
<rect x="58.038" y="104.163" transform="matrix(0.925 -0.38 0.38 0.925 -35.7933 30.7116)" fill="#FFFFFF" width="3.726" height="3.726"/>
<rect x="75.685" y="157.525" transform="matrix(0.7596 0.6503 -0.6503 0.7596 123.728 -12.7822)" fill="#FFFFFF" width="6.944" height="6.944"/>

</g>
</g>
</g>

<!-- ITEM 14 -->
<g transform="translate(160.0 630.0) rotate(0.0 61.0 61.0) scale(1.22 1.22)">
<g transform="translate(-0.0 -0.0)">
<g clip-path="url(#clipPathId-collage-item-14)">
		<defs>
			<clipPath id="clipPathId-collage-item-14">
				<rect x="0.0" y="0.0" width="100.0" height="100.0"/>
			</clipPath>
		</defs>

<circle fill="#d9e7ff" cx="50" cy="50" r="50"/>

</g>
</g>
</g>

<!-- ITEM 15 -->
<g transform="translate(1391.0 608.0) rotate(331.7605260238881 5.5 5.5) scale(0.11 0.11)">
<g transform="translate(-0.0 -0.0)">
<g clip-path="url(#clipPathId-collage-item-15)">
		<defs>
			<clipPath id="clipPathId-collage-item-15">
				<rect x="0.0" y="0.0" width="100.0" height="100.0"/>
			</clipPath>
		</defs>

<path fill="#A1C3FC" d="M98.663,98.531c-33.052,1.963-65.546,1.955-97.487,0c-1.46-34.57-1.676-67.372,0-97.487  c32.497-1.392,64.992-1.392,97.487,0C100.512,32.524,100.381,65.091,98.663,98.531z"/>

</g>
</g>
</g>

<!-- ITEM 16 -->
<g transform="translate(653.0 432.0) rotate(0.0 151.0 151.0) scale(3.02 3.02)">
<g transform="translate(-0.0 -0.0)">
<g clip-path="url(#clipPathId-collage-item-16)">
		<defs>
			<clipPath id="clipPathId-collage-item-16">
				<rect x="0.0" y="0.0" width="100.0" height="100.0"/>
			</clipPath>
		</defs>

<path fill="#E94A47" d="M99.443,29.174c-10.178-0.475-19.824-0.548-28.647,0c0.539-9.776,0.566-19.336,0-28.647  c-14.268-0.691-28.169-0.712-41.669,0c-0.629,9.256-0.639,18.801,0,28.647c-8.853-0.745-18.492-0.649-28.647,0  c-0.631,14.038-0.645,27.931,0,41.669c10.102,0.807,19.725,0.914,28.647,0c-0.49,8.587-0.407,18.3,0,28.647  c13.691,0.68,27.581,0.679,41.669,0c0.392-9.244,0.342-18.833,0-28.647c9.039,0.697,18.62,0.653,28.647,0  C100.15,56.333,100.22,42.382,99.443,29.174z"/>

</g>
</g>
</g>

              </svg>