<?xml version="1.0" encoding="UTF-8"?><svg version="1.1" xmlns="http://www.w3.org/2000/svg" xmlns:xlink="http://www.w3.org/1999/xlink" viewBox="0 0 600 600" width="600" height="600" x="0px" y="0px">
    
    
    <!-- ITEM 0 -->
    <g>
        <defs>
            <clipPath id="clip-path-id-viewbox-item-0">
                <rect x="0.0" y="0.0" width="25.499" height="97.495"/>
            </clipPath>
        </defs>
        <g transform="translate(348.0 380.0) rotate(89.99999999999993 10.0 38.5) scale(0.7843444840974156 0.7897840914918713)">
            <g clip-path="url(#clip-path-id-viewbox-item-0)" transform="translate(-0.0 -0.0)">
                
<g>
	<rect x="0" y="0" fill="#F3F4F6" width="25.499" height="97.495"/>
	<circle fill="#C6C8D0" cx="12.749" cy="62.986" r="7.435"/>
</g>

            </g>
        </g>
    </g>
    
    <!-- ITEM 1 -->
    <g>
        <defs>
            <clipPath id="clip-path-id-viewbox-item-1">
                <rect x="0.0" y="0.0" width="186.087" height="19.009"/>
            </clipPath>
        </defs>
        <g transform="translate(42.0 517.0) rotate(0.0 76.0 7.5) scale(0.8168222390602246 0.789099900047346)">
            <g clip-path="url(#clip-path-id-viewbox-item-1)" transform="translate(-0.0 -0.0)">
                
<path fill="#EFF0F2" d="M186.087,0L186.087,0c0,10.498-8.971,19.009-20.036,19.009H20.036C8.971,19.009,0,10.498,0,0L186.087,0z"/>

            </g>
        </g>
    </g>
    
    <!-- ITEM 2 -->
    <g>
        <defs>
            <clipPath id="clip-path-id-crop-item-2">
                
          <rect transform="scale(1.327662037037037 1.3273549488054608)" x="0.0" y="89.0" width="217.0" height="178.0"/>
        
            </clipPath>
            
            <clipPath id="clip-path-id-viewbox-item-2">
                <rect x="0.0" y="0.0" width="286.775" height="388.915"/>
            </clipPath>
        </defs>
        <g clip-path="url(#clip-path-id-crop-item-2)" transform="translate(191.0 245.0) rotate(0.0 108.0 146.5) scale(0.7532037311481127 0.7533779874779836)">
            <g clip-path="url(#clip-path-id-viewbox-item-2)" transform="translate(-0.0 -0.0)">
                
<g>
	<path fill="#D2D3DA" d="M286.775,388.915H0V0h286.775V388.915z M10,378.915h266.775V10H10V378.915z"/>
</g>
<g>
	<rect x="4.35" y="117.647" fill="#D2D3DA" width="278.075" height="10"/>
</g>
<g>
	<rect x="4.35" y="242.934" fill="#D2D3DA" width="278.075" height="10"/>
</g>
<g>
	<rect x="138.388" y="1.944" fill="#D2D3DA" width="10" height="122.23"/>
</g>

            </g>
        </g>
    </g>
    
    <!-- ITEM 3 -->
    <g>
        <defs>
            <clipPath id="clip-path-id-viewbox-item-3">
                <rect x="0.0" y="0.0" width="186.087" height="19.009"/>
            </clipPath>
        </defs>
        <g transform="translate(410.0 518.0) rotate(0.0 76.0 7.5) scale(0.8168222390602246 0.789099900047346)">
            <g clip-path="url(#clip-path-id-viewbox-item-3)" transform="translate(-0.0 -0.0)">
                
<path fill="#EFF0F2" d="M186.087,0L186.087,0c0,10.498-8.971,19.009-20.036,19.009H20.036C8.971,19.009,0,10.498,0,0L186.087,0z"/>

            </g>
        </g>
    </g>
    
    <!-- ITEM 4 -->
    <g>
        <defs>
            <clipPath id="clip-path-id-crop-item-4">
                
          <rect transform="scale(0.6582285714285714 0.6547953020134228)" x="0.0" y="145.0" width="140.0" height="152.0"/>
        
            </clipPath>
            
            <clipPath id="clip-path-id-viewbox-item-4">
                <rect x="0.0" y="0.0" width="92.152" height="195.129"/>
            </clipPath>
        </defs>
        <g clip-path="url(#clip-path-id-crop-item-4)" transform="translate(140.0 -65.0) rotate(0.0 70.0 149.0) scale(1.519229099748242 1.5271948300867633)">
            <g clip-path="url(#clip-path-id-viewbox-item-4)" transform="translate(-0.0 -0.0)">
                
<polygon fill="#E8E9EC" points="62.009,21.531 62.009,0 0,0 0,195.129 92.152,195.129 92.152,21.531 "/>

            </g>
        </g>
    </g>
    
    <!-- ITEM 5 -->
    <g>
        <defs>
            <clipPath id="clip-path-id-viewbox-item-5">
                <rect x="0.0" y="0.0" width="134.648" height="338.971"/>
            </clipPath>
        </defs>
        <g transform="translate(180.0 84.0) rotate(0.0 27.5 69.5) scale(0.40847246152932093 0.4100645777957406)">
            <g clip-path="url(#clip-path-id-viewbox-item-5)" transform="translate(-0.0 -0.0)">
                
<g>
	<path fill="#bdc8da" d="M63.31,36.825h8.847c6.627,0,12-5.373,12-12V14.298C84.158,6.402,77.756,0,69.859,0h-4.251   C57.711,0,51.31,6.401,51.31,14.298v10.527C51.31,31.452,56.682,36.825,63.31,36.825z"/>
	<path fill="#d2d3da" d="M113.021,67.576l5.713,45.504c0.089,0.814,1.014,10.685,0.591,11.386l-6.886,0.557l-10.489-0.249   l-9.499-59.679L113.021,67.576z"/>
	<path fill="#d2d3da" d="M34.102,51.31l31.286-5.912l34.844,5.712c6.446,1.057,11.463,6.17,12.398,12.634l2.237,20.212   l-82.453-0.433c-6.853-0.036-12.122-6.072-11.233-12.867l0.92-7.032C23.111,57.404,27.909,52.48,34.102,51.31z"/>
	<g>
		<path fill="#d2d3da" d="M37.858,113.494l-5.496,29.745l-0.909,77.246c0,0,24.495,0.948,24.58,0.468l18.06-99.995L37.858,113.494z"/>
	</g>
	<g>
		<path fill="#d2d3da" d="M24.308,253.99l3.483,33.653l1.185,11.464l0.646,6.262l0.192,1.853l0.621,5.99l0.305,2.954l0.462,4.492    l0.028,0.257c0,0,2.991,0.506,6.458,1.094c1.528,0.261,3.149,0.536,4.644,0.796c0.846,0.142,1.646,0.282,2.373,0.407    c1.864,0.32,3.21,0.559,3.382,0.599l0.039-0.543l0.111-1.538l0.884-12.091l0.99-13.561l5.917-45.752l0.725-34.023l-23.871-4.274    l-8.205,35.858C24.223,249.887,24.098,251.949,24.308,253.99z"/>
	</g>
	<g>
		<path fill="#d2d3da" d="M95.634,113.494l5.496,29.745l0.909,77.246c0,0-24.495,0.948-24.58,0.468l-18.06-99.995L95.634,113.494z"/>
	</g>
	<g>
		<path fill="#d2d3da" d="M109.183,253.99l-3.483,33.653l-1.185,11.464l-0.646,6.262l-0.192,1.853l-0.621,5.99l-0.305,2.954    l-0.462,4.492l-0.028,0.257c0,0-2.991,0.506-6.458,1.094c-1.528,0.261-3.149,0.536-4.644,0.796    c-0.846,0.142-1.646,0.282-2.373,0.407c-1.864,0.32-3.21,0.559-3.382,0.599l-0.039-0.543l-0.111-1.538l-0.884-12.091l-0.99-13.561    l-5.917-45.752l0.275-35.023l22.871-3.274l8.205,35.858C109.268,249.887,109.393,251.949,109.183,253.99z"/>
	</g>
	<path fill="#d2d3da" d="M83.513,338.971h28.108l0.61-2.151c0.501-1.766,0.016-3.664-1.27-4.973l-7.771-7.911l-4.615-16.063   l-13.19,13.886l-2.747,12.031c-0.199,0.87-0.166,1.778,0.095,2.632L83.513,338.971z"/>
	<path fill="#d2d3da" d="M49.421,338.971H21.313l-0.61-2.151c-0.501-1.766-0.016-3.664,1.27-4.973l7.771-7.911l4.615-16.063   l13.19,13.886l2.747,12.031c0.199,0.87,0.166,1.778-0.095,2.632L49.421,338.971z"/>
	<polygon fill="#d2d3da" points="100.952,51.762 32.189,52.216 37.702,145.835 95.405,145.835  "/>
	<path fill="#d2d3da" d="M66.301,70.942l-7.502-24.42V31.204h9.519h8.35V47.27l-8.233,23.71C68.08,72.006,66.62,71.98,66.301,70.942   z"/>
	<path fill="#d2d3da" d="M81.258,6.718H67.733h-1.932c-6.403,0-11.593,5.19-11.593,11.593v6.956v6.196   c0,1.977,0.758,3.879,2.117,5.314l6.666,7.039h9.485l6.666-7.039c1.359-1.435,2.117-3.337,2.117-5.314v-6.196L81.258,6.718   L81.258,6.718z"/>
	<g>
		<path fill="#d2d3da" d="M79.325,28.837h-7.632c-0.509,0-0.922-0.413-0.922-0.922v-7.579c0-0.509,0.413-0.922,0.922-0.922h7.632    c2.602,0,4.711,2.109,4.711,4.711l0,0C84.037,26.728,81.927,28.837,79.325,28.837z"/>
		<path fill="#d2d3da" d="M56.142,28.837h7.632c0.509,0,0.922-0.413,0.922-0.922v-7.579c0-0.509-0.413-0.922-0.922-0.922h-7.632    c-2.602,0-4.711,2.109-4.711,4.711l0,0C51.431,26.728,53.541,28.837,56.142,28.837z"/>
	</g>
	<path fill="#bdc8da" d="M76.093,4.467H60.385l2.021,7.616c1.201,4.527,5.299,7.68,9.983,7.68H83.06v-8.328   C83.06,7.587,79.941,4.467,76.093,4.467z"/>
	<g>
		<path fill="#d2d3da" d="M128.228,198.883c-0.839,0.036-1.672-0.601-1.967-1.591l-3.274-15.36l4.103-3.158l1.597,19.495    c0.046,0.292-0.154,0.566-0.446,0.612C128.237,198.881,128.233,198.882,128.228,198.883z"/>
		<path fill="#d2d3da" d="M122.909,200.89c-0.84-0.004-1.642-0.68-1.889-1.683l-2.54-15.498l4.249-2.96l0.669,19.549    c0.032,0.294-0.18,0.558-0.474,0.591C122.918,200.889,122.913,200.889,122.909,200.89z"/>
		<path fill="#d2d3da" d="M120.238,198.872c-0.836,0.082-1.702-0.509-2.051-1.482l-3.7-16.322l3.522-2.214l2.654,19.38    c0.062,0.289-0.123,0.574-0.412,0.636C120.247,198.87,120.243,198.871,120.238,198.872z"/>
		<path fill="#d2d3da" d="M116.068,194.236c-0.834,0.102-1.714-0.467-2.087-1.431l-3.247-10.91c-0.753-2.531,0.014-5.27,1.973-7.041    l0.635-0.574l3.135,19.308c0.069,0.288-0.108,0.577-0.396,0.646C116.077,194.234,116.073,194.235,116.068,194.236z"/>
		<path fill="#d2d3da" d="M122.458,163.722l2.403,15.531l-0.019-1.057c-0.001-0.101,0.005-0.202,0.021-0.304    c0.151-1.046,1.122-1.773,2.168-1.625l0.035-0.006c0.655,0.097,0.897,0.393,1.256,0.951l1.703,2.677    c0.423,0.68,1.025,1.237,1.738,1.603c0.495,0.235,1.361,0.457,1.834,0.423c0.253-0.018,0.489-0.083,0.701-0.212    c0.028-0.018,0.056-0.037,0.081-0.058c0.32-0.27,0.361-0.748,0.091-1.068l-5.546-8.029l-0.869-2.159    c-0.527-1.327-1.363-2.509-2.438-3.449l-1.624-1.409C123.954,165.497,122.493,163.759,122.458,163.722z"/>
		<path fill="#d2d3da" d="M113.406,176.015c0.32,4.533-0.664,8.237,3.529,7.941c0.338-0.024,5.312-0.34,5.635-0.41    c0.056-0.012,0.176,0.018,0.167-0.038c-0.054-0.34,0.448-0.56,0.556-0.158c0.021,0.079,0.156-0.053,0.233-0.081    c1.309-0.481,2.446-1.336,3.311-2.441c0.134-0.171,0.391-0.312,0.381-0.53c-0.129-2.885,0.644-3.715,1.208-2.909    c0.088,0.125,0.059-0.301,0.083-0.453c0.1-0.644,0.131-1.312,0.082-1.995c-0.32-4.533-3.979-7.968-8.173-7.672    C116.226,167.566,113.086,171.481,113.406,176.015z"/>
		<path fill="#d2d3da" d="M110.481,180.208l0.425-12.801c0.014-0.408-0.022-0.815-0.106-1.214l-1.867-8.901l10.853-7.762    l5.164,24.668L110.481,180.208z"/>
	</g>
	<path fill="#d2d3da" d="M110.231,163.467l-8.777-34.885c-1.013-4.028,0.614-8.258,4.065-10.569l8.733-5.847l6,14.204   c1.009,2.387,1.438,4.98,1.254,7.565l-1.618,22.747L110.231,163.467z"/>
	<g>
		<path fill="#d2d3da" d="M21.627,67.576l-5.713,45.504c-0.089,0.814-1.014,10.685-0.591,11.386l6.886,0.557l10.489-0.249    l9.499-59.679L21.627,67.576z"/>
		<g>
			<path fill="#d2d3da" d="M6.42,198.883c0.839,0.036,1.672-0.601,1.967-1.591l3.274-15.36l-4.103-3.158l-1.597,19.495     c-0.046,0.292,0.154,0.566,0.446,0.612C6.411,198.881,6.415,198.882,6.42,198.883z"/>
			<path fill="#d2d3da" d="M11.739,200.89c0.84-0.004,1.642-0.68,1.889-1.683l2.54-15.498l-4.249-2.96l-0.669,19.549     c-0.032,0.294,0.18,0.558,0.474,0.591C11.73,200.889,11.735,200.889,11.739,200.89z"/>
			<path fill="#d2d3da" d="M14.41,198.872c0.836,0.082,1.702-0.509,2.051-1.482l3.7-16.322l-3.522-2.214l-2.654,19.38     c-0.062,0.289,0.123,0.574,0.412,0.636C14.401,198.87,14.405,198.871,14.41,198.872z"/>
			<path fill="#d2d3da" d="M18.58,194.236c0.834,0.102,1.714-0.467,2.087-1.431l3.247-10.91c0.753-2.531-0.014-5.27-1.973-7.041     l-0.635-0.574l-3.135,19.308c-0.069,0.288,0.108,0.577,0.396,0.646C18.571,194.234,18.575,194.235,18.58,194.236z"/>
			<path fill="#d2d3da" d="M12.19,163.722l-2.403,15.531l0.019-1.057c0.001-0.101-0.005-0.202-0.021-0.304     c-0.151-1.046-1.122-1.773-2.168-1.625l-0.035-0.006c-0.655,0.097-0.897,0.393-1.256,0.951l-1.703,2.677     c-0.423,0.68-1.025,1.237-1.738,1.603c-0.495,0.235-1.361,0.457-1.834,0.423c-0.253-0.018-0.489-0.083-0.701-0.212     c-0.028-0.018-0.056-0.037-0.081-0.058c-0.32-0.27-0.361-0.748-0.091-1.068l5.546-8.029l0.869-2.159     c0.527-1.327,1.363-2.509,2.438-3.449l1.624-1.409C10.694,165.497,12.155,163.759,12.19,163.722z"/>
			<path fill="#d2d3da" d="M21.242,176.015c-0.32,4.533,0.664,8.237-3.529,7.941c-0.338-0.024-5.312-0.34-5.635-0.41     c-0.056-0.012-0.176,0.018-0.167-0.038c0.054-0.34-0.448-0.56-0.556-0.158c-0.021,0.079-0.156-0.053-0.233-0.081     c-1.309-0.481-2.446-1.336-3.311-2.441c-0.134-0.171-0.391-0.312-0.381-0.53c0.129-2.885-0.644-3.715-1.208-2.909     c-0.088,0.125-0.059-0.301-0.083-0.453c-0.1-0.644-0.131-1.312-0.082-1.995c0.32-4.533,3.979-7.968,8.173-7.672     C18.422,167.566,21.562,171.481,21.242,176.015z"/>
			<path fill="#d2d3da" d="M24.167,180.208l-0.425-12.801c-0.014-0.408,0.022-0.815,0.106-1.214l1.867-8.901l-10.853-7.762     l-5.164,24.668L24.167,180.208z"/>
		</g>
		<path fill="#d2d3da" d="M24.417,163.467l8.777-34.885c1.013-4.028-0.614-8.258-4.065-10.569l-8.733-5.847l-6,14.204    c-1.009,2.387-1.438,4.98-1.254,7.565l1.618,22.747L24.417,163.467z"/>
	</g>
</g>

            </g>
        </g>
    </g>
    
    <!-- ITEM 6 -->
    <g>
        <defs>
            <clipPath id="clip-path-id-viewbox-item-6">
                <rect x="0.0" y="0.0" width="95.903" height="353.096"/>
            </clipPath>
        </defs>
        <g transform="translate(85.0 171.0) rotate(0.0 47.0 176.5) scale(0.9801570336694367 0.9997281192650157)">
            <g clip-path="url(#clip-path-id-viewbox-item-6)" transform="translate(-0.0 -0.0)">
                
<ellipse fill="#93C3FF" cx="82.417" cy="112.378" rx="9.816" ry="7.87"/>
<g>
	<path fill="#013B84" d="M37.082,229.206l-16.033,32.662c-1.389,2.829-2.323,5.86-2.769,8.98l-9.309,65.214   c0,0,13.249,2.873,12.734,2.702l25.069-66.726l4.564-31.767L37.082,229.206z"/>
</g>
<path fill="#016EEA" d="M45.462,350.821l0.071-0.299l-0.104-0.025l-0.207-2.055c-0.123-1.221-0.858-2.295-1.951-2.852l-11.865-6.046  c-2.249-1.146-4.026-3.044-5.022-5.365l-0.48-1.118l4.219-9.73l-1.719-0.41c-1.48-0.353-3,0.407-3.605,1.803l-0.763,1.76  c-0.335,0.771-1.185,1.075-2.001,0.87c-0.005-0.001-0.01-0.002-0.015-0.004l-11.538-2.575l-0.582,2.441l-2.448,3.701  c-1.592,2.406-2.737,5.08-3.381,7.892l-0.396,1.729l-0.062-0.015l-0.816,3.118l38.052,9.075l4.276-0.489l0.328-1.377l0.011,0.003  L45.462,350.821z"/>
<path opacity="0.5" fill="#BEDBFF" d="M4.484,344.16l34.646,8.262c0,0,8.498-0.139,8.507-1.177c0.041-4.53-1.948-8.91-5.525-11.865  l-12.82-10.587l-18.473-4.369L0.55,338.994c-1.222,1.734-0.307,4.154,1.756,4.646L4.484,344.16z"/>
<g>
	<path fill="#013B84" d="M73.571,143.108l7.035,22.727l-31.692,85.289c0,0-14.609-8.508-14.609-9.019l12.751-97.914L73.571,143.108z   "/>
</g>
<polygon fill="#013B84" points="18.817,268.455 46.056,271.739 40.676,331.524 10.44,324.895 "/>
<g opacity="0.25">
	<path fill="#002652" d="M50.324,247.33l30.282-81.496l-7.035-22.727l-26.515,1.083l-11.468,88.057l-14.54,29.619   c-1.389,2.829-2.323,5.86-2.769,8.98l-7.841,54.029c0,0,28.769,6.349,28.254,6.178l8.081-59.017L50.324,247.33z"/>
</g>
<g>
	<path fill="#013B84" d="M84.63,132.231l5.384,21.051c0.282,1.101,0.291,2.269,0.027,3.404l-18.603,79.983   c0,0-18.426,1.565-18.399,1.053l3.104-57.723l1.913-46.685L84.63,132.231z"/>
</g>
<g>
	<path fill="#013B84" d="M72.059,226.176l-2.045,38.023c-0.059,1.105-0.22,2.208-0.481,3.295l-16.334,68.183   c0,0-15.708-0.042-15.169-0.013l3.923-71.367c0.114-2.069,0.583-4.123,1.386-6.071l11.128-26.97L72.059,226.176z"/>
</g>
<rect x="38.331" y="335.32" fill="#99644C" width="15.022" height="5.463"/>
<path fill="#2888FF" d="M78.152,350.102l-0.011-0.032v-0.307h-0.107l-0.678-1.951c-0.403-1.159-1.367-2.033-2.56-2.322  l-12.945-3.129c-2.454-0.593-4.622-2.027-6.128-4.053l-0.726-0.977l1.847-10.443h-1.767c-1.521,0-2.823,1.092-3.088,2.59  l-0.656,3.706c-0.461-0.209-0.961-0.333-1.481-0.333H38.074v2.509l-1.523,4.169c-0.99,2.71-1.484,5.576-1.458,8.461l0.016,1.774  h-0.057v3.222h43.089v-2.883H78.152z"/>
<path fill="#013B84" d="M61.808,172.946l10.068,3.775v-43.333H45.209v15.606C45.209,159.658,51.823,169.202,61.808,172.946z"/>
<path fill="#002652" d="M21.725,59.042h11.5V8.125h0c-6.351,0-11.5,5.149-11.5,11.5V59.042z"/>
<path fill="#ED956E" d="M49.92,39.095h15.085V13.21H37.892v13.857C37.892,33.71,43.277,39.095,49.92,39.095z"/>
<polygon fill="#ED956E" points="46.194,70.156 34.91,56.237 43.819,33.62 51.701,36.829 58.615,39.643 "/>
<path fill="#ED956E" d="M68.972,14.086v6.592c0,0.239-0.046,0.477-0.135,0.699l-0.874,2.173c-0.294,0.73-0.1,1.565,0.485,2.091  l0.524,0.471v12.75c0,2.074-1.686,3.754-3.761,3.745l-23.658-0.096l0.097-8.058L68.972,14.086z"/>
<path fill="#ED956E" d="M65.683,33.71l5.178-2.688c1.171-0.608,1.363-2.203,0.37-3.072L65.683,23.1V33.71z"/>
<path opacity="0.07" fill="#002652" d="M68.363,21.134h-3.314c-0.298,0-0.584,0.118-0.795,0.329l-1.068,1.068  c-0.708,0.708-0.207,1.918,0.795,1.918h3.853"/>
<path fill="#002652" d="M57.372,0.387h-0.56c-2.369,0-4.29,1.921-4.29,4.29v5.114v1.434v8.35h19.865v-4.173  C72.387,7.109,65.665,0.387,57.372,0.387z"/>
<path fill="#002652" d="M54.814,19.362H32.491v-4.974C32.491,6.442,38.932,0,46.879,0h4.7c1.786,0,3.235,1.448,3.235,3.235V19.362z"/>
<path fill="#002652" d="M49.458,36.905l-3.908,0c-5.017,0-9.085-4.067-9.085-9.085v-5.534c0-2.206-1.788-3.995-3.995-3.995l-0.995,0  v-4.124h27.612L49.458,36.905z"/>
<g>
	<path fill="#2888FF" d="M34.476,20.792c-0.829,0-1.5-0.672-1.5-1.5v-12.5c0-0.828,0.671-1.5,1.5-1.5s1.5,0.672,1.5,1.5v12.5   C35.976,20.12,35.304,20.792,34.476,20.792z"/>
</g>
<path fill="#ED956E" d="M53.146,30.792h3.33l-0.317-6.972c-0.102-2.253-1.959-4.028-4.215-4.028h-0.242  c-2.318,0-3.949,2.279-3.201,4.474l1.444,4.235C50.411,29.871,51.698,30.792,53.146,30.792z"/>
<path fill="#BEDBFF" d="M90.9,138.424l0.118,5.537v10.742l-49.809,8.019l4.247-42.051c0,0-8.227-20.607-9.401-22.954L27.47,70.25  c-1.627-5.207-0.506-10.883,2.98-15.079l0,0c5.22-6.285,14.547-7.148,20.832-1.928l20.512,18.983  c3.501,3.24,5.252,7.952,4.717,12.692l-1.634,14.472l7.667,18.333l5.009,8.669C89.668,130.054,90.82,134.194,90.9,138.424z"/>
<rect x="43.876" y="116.055" transform="matrix(0.9895 -0.1442 0.1442 0.9895 -16.5417 10.6058)" fill="#B4D5FF" width="42" height="6.667"/>
<path opacity="0.07" fill="#002652" d="M57.445,42.458l-2.501-0.085c-1.263-0.043-2.249,1.081-2.041,2.328l1.041,6.244"/>
<path opacity="0.07" fill="#002652" d="M65.635,33.431l0.427,0.835c0.234,0.457,0.646,0.798,1.139,0.943l1.694,0.498v-2.321  L65.635,33.431z"/>
<path fill="#BEDBFF" d="M78.786,107.514L40.545,68.832l13.553-14.094l35.294,36.208c2.972,3.049,3.617,7.677,1.591,11.422  l-1.996,3.69C86.938,109.844,81.813,110.576,78.786,107.514z"/>
<g>
	<path fill="#ED956E" d="M91.745,92.586l-0.949-41.672c-0.012-0.539-0.459-0.966-0.998-0.954l-9.748,0.222l-5.157,32.664   c-0.189,1.714-0.264,3.439-0.225,5.162l0.155,6.82c0.095,4.172,3.554,7.477,7.726,7.382h0   C87.746,102.092,91.863,97.783,91.745,92.586z"/>
	<path fill="#ED956E" d="M70.865,49.15l1.678,2.989c0.897,1.599,2.329,2.831,4.043,3.479l3.438,1.301l-6.397-11.462l-2.033,1.137   C70.688,47.101,70.363,48.244,70.865,49.15z"/>
	
		<ellipse transform="matrix(-0.8784 0.478 -0.478 -0.8784 176.19 61.5621)" fill="#ED956E" cx="80.262" cy="53.199" rx="3.435" ry="3.9"/>
	<path fill="#ED956E" d="M80.611,53.452l-6.87-12.624c-0.462-0.849-1.526-1.163-2.375-0.701l-0.403,0.22   c-0.946,0.515-1.296,1.699-0.781,2.646l6.774,12.449L80.611,53.452z"/>
	<path fill="#ED956E" d="M90.452,50.178l-4.239-7.79c-0.72-1.323-2.123-2.129-3.629-2.084l-9.039,0.267l7.896,14.511L90.452,50.178   L90.452,50.178z"/>
</g>
<path fill="#BEDBFF" d="M76.023,72.017L73.38,87.054c-0.212,1.714-0.299,3.44-0.26,5.163l0.153,6.82  c0.093,4.172,3.881,7.468,8.459,7.362c5.703-0.132,10.232-4.451,10.115-9.648l-0.563-25.14L76.023,72.017z"/>
<rect x="78.35" y="71.73" transform="matrix(0.9996 -0.0266 0.0266 0.9996 -2.0213 2.3371)" fill="#BEDBFF" width="17.107" height="10.942"/>
<polygon fill="#BEDBFF" points="62.038,58.785 32.458,55.985 37.342,44.319 56.855,47.818 "/>
<path opacity="0.07" fill="#002652" d="M74.196,104.148L53.631,84.575c-1.273-1.212-3.379-0.309-3.379,1.449v11.49L74.196,104.148z"/>
<polygon fill="#BEDBFF" points="91.033,144.096 91.033,230.096 32.366,230.096 44.84,133.388 "/>
<path opacity="0.6" fill="#BEDBFF" d="M36.736,353.096h44l0,0c0-5.693-3.3-10.87-8.461-13.274l-15.873-7.393H38.319l-6.608,16.554  c-0.787,1.97,0.665,4.112,2.786,4.112H36.736z"/>
<polygon fill="#013B84" points="41.634,267.549 69.968,264.549 69.968,333.882 37.634,333.882 "/>
<g>
	<path fill="#ED956E" d="M75.16,122.06c0.778,0.689,2.097,1.641,2.726,1.004l6.26-7.165l-2.465-4.401l-6.554,9.657   c-0.149,0.207-0.221,0.724,0.021,0.898C75.153,122.055,75.156,122.058,75.16,122.06z"/>
	<path fill="#ED956E" d="M78.636,123.123c0.778,0.689,2.097,1.641,2.726,1.004l6.26-7.165l-2.465-4.401l-6.554,9.657   c-0.149,0.207-0.221,0.724,0.021,0.898C78.629,123.118,78.632,123.121,78.636,123.123z"/>
	<path fill="#ED956E" d="M81.746,124.682c0.778,0.689,2.097,1.641,2.726,1.004l6.26-7.165l-2.465-4.401l-6.554,9.657   c-0.149,0.207-0.221,0.724,0.021,0.898C81.738,124.677,81.742,124.68,81.746,124.682z"/>
	<path fill="#ED956E" d="M84.846,125.812c0.667,0.667,1.818,1.591,2.472,0.98l6.577-6.871l-1.902-4.251l-7.091,9.27   c-0.16,0.199-0.277,0.697-0.065,0.865C84.839,125.807,84.843,125.81,84.846,125.812z"/>
	<path fill="#ED956E" d="M88.833,120.046l-6.503-4.41c-1.49-1.011-1.677-3.135-0.385-4.389l1.255-1.242   c0.697-0.69,1.53-1.227,2.445-1.58l0.666-0.256c2.118-0.815,4.52-0.204,5.992,1.524l2.323,2.727   c1.542,1.81,1.703,4.421,0.396,6.407l0,0C93.655,120.865,90.87,121.413,88.833,120.046z"/>
	
		<ellipse transform="matrix(0.8304 0.5572 -0.5572 0.8304 79.057 -28.7488)" fill="#ED956E" cx="86.747" cy="115.471" rx="6.499" ry="7.106"/>
</g>

            </g>
        </g>
    </g>
    
    <!-- ITEM 7 -->
    <g>
        <defs>
            <clipPath id="clip-path-id-viewbox-item-7">
                <rect x="0.0" y="0.0" width="130.362" height="351.69"/>
            </clipPath>
        </defs>
        <g transform="translate(520.0 170.0) rotate(0.0 -65.0 175.5) scale(-0.9972231171660454 0.9980380448690608)">
            <g clip-path="url(#clip-path-id-viewbox-item-7)" transform="translate(-0.0 -0.0)">
                
<g>
	<path fill="#013B84" d="M69.864,138.09l0.037,17.958l-14.366,97.615c0,0-27.751-9.844-27.706-10.37l3.82-105.39L69.864,138.09z"/>
</g>
<g>
	<path fill="#C78982" d="M15.081,271.097l-4.041,35.45l-1.378,12.077l-0.754,6.596l-0.222,1.952l-0.718,6.309l-0.356,3.112   l-0.543,4.733l-0.029,0.271c0,0,3.242,0.089,6.999,0.194c1.656,0.048,3.412,0.097,5.03,0.149c0.917,0.024,1.783,0.053,2.571,0.077   c2.019,0.061,3.475,0.113,3.659,0.129l0.172-0.586l0.489-1.661l3.852-13.059l4.318-14.647l18.035-45.329l7.539-41.107   l-26.939-0.812l-15.824,39.573C15.955,266.724,15.327,268.947,15.081,271.097z"/>
</g>
<g>
	<path fill="#013B84" d="M9.072,324.113h24.892l18.2-57.25l7.54-41.11l-26.94-0.81l-15.82,39.57c-0.99,2.21-1.62,4.43-1.86,6.58   L9.072,324.113z"/>
</g>
<path opacity="0.25" fill="#002652" d="M59.643,225.751l10.258-69.703l-0.037-17.958l-38.215-0.187l-3.581,98.782l-11.125,27.828  c-0.99,2.21-1.62,4.43-1.86,6.58l-6.011,52.353h24.892l18.2-56.583l2.479-13.517c0.563,0.2,0.893,0.317,0.893,0.317l3.862-26.241  l0.306-1.669L59.643,225.751z"/>
<path fill="#2888FF" d="M50.716,348.536l4.399-2.62c1.213-0.723,2.057-1.958,2.244-3.284l0,0c0.274-1.949-0.927-3.602-2.818-3.878  l-8.342-1.216c-5.272-0.769-9.621-3.836-11.919-8.407l-2.751-5.472l-3.66,2.059c-0.882,0.496-1.337,1.523-1.057,2.387l0.801,2.472  l-5.018,1.97c-3.399,1.334-7.004,0.72-9.286-1.583l-3.524-3.555c-0.617-0.623-1.795-0.156-1.976,0.784L4.73,344.189l0.434,3.765  L50.716,348.536z"/>
<path fill="#016EEA" d="M3.349,345.241l0.523,1.583c0.942,2.848,3.552,4.665,6.7,4.665h33.473c0.643,0,1.299-0.166,1.905-0.481  l6.047-3.153c0.5-0.261,0.314-1.017-0.249-1.017H26.386c-0.488,0-0.93-0.191-1.232-0.531l0,0c-1.516-1.71-3.736-2.668-6.188-2.668  H4.591C3.766,343.638,3.102,344.496,3.349,345.241z"/>
<polygon fill="#C78982" points="24.535,303.35 18.333,314.458 12.274,319.939 29.584,333.643 41.413,315.612 "/>
<path fill="#2888FF" d="M5.336,327.122l11.521,10.813l14.581,13.685c0.858,0.023,5.805-0.352,5.805-0.352l-0.105-1.539  l-0.816-12.101l-0.918-13.573l-0.61-0.12c-0.936-0.183-1.858,0.367-2.146,1.274l-0.82,2.599L27,326.059  c-3.27-1.18-5.58-4.127-5.948-7.584l-0.569-5.341c-0.097-0.933-1.236-1.341-1.906-0.682l-6.464,6.371l-4.551,4.487l-0.393,0.386  L5.336,327.122z"/>
<path fill="#2888FF" d="M17.272,333.385l2.618,10.539l18.217,4.603l12.618,0.161h0.03l0.195-0.127l2.419-1.573l1.416-0.921  c1.112-0.723,1.783-1.959,1.783-3.285c0-0.974-0.36-1.873-0.959-2.566c-0.599-0.689-1.442-1.172-2.404-1.311l-8.513-1.217  c-2.704-0.386-5.262-1.356-7.506-2.802c-2.217-1.431-4.135-3.333-5.595-5.603l-6.888-3.412c-0.813,0.494-1.124,1.521-0.723,2.386  l1.146,2.472l-4.742,1.97C19.377,333.119,18.321,333.348,17.272,333.385z"/>
<path fill="#016EEA" d="M27.585,346.988v4.652h17.371c0.644,0,1.277-0.165,1.839-0.479l4.389-2.472l0.225-0.128l2.274-1.573H27.585z  "/>
<path fill="#016EEA" d="M7.306,333.718l11.003,10.063l8.416,7.7c1.551,0.045,3.195,0.09,4.712,0.138  c0.858,0.023,1.67,0.049,2.408,0.071l-12.214-11.176c-0.36-0.33-0.577-0.787-0.607-1.273c-0.071-1.221-0.378-2.408-0.895-3.494  s-1.24-2.075-2.146-2.903l-3.094-2.831l-7.33-6.704l-0.184-0.169c-0.607-0.554-1.588-0.288-1.832,0.498l-0.517,1.67  C4.096,328.317,4.983,331.59,7.306,333.718z"/>
<path fill="#013B84" d="M55.331,151.362l29.322,97.227c1.71,5.671,0.819,11.808-2.433,16.758l-33.476,50.948l-6.523,11.419  l-22.053-16.757l5.089-9.261l19.216-42.269c0.412-0.94,0.9-1.845,1.461-2.706l7.151-10.982l-33.32-52.681  c-5.31-8.395-7.306-18.466-5.6-28.252l4.652-26.976l32.591,0.217L55.331,151.362z"/>
<polygon fill="#A5CDFF" points="18.816,137.83 11.993,174.544 11.493,228.544 79.993,228.544 69.993,185.544 69.993,138.09 "/>
<polygon fill="#93C3FF" points="47.7,197.641 39.79,197.7 40.046,169.986 47.7,169.986 "/>
<g>
	<path fill="#C78982" d="M105.998,86.932l16.777-9.076l-1.314,0.625c-0.126,0.058-0.257,0.108-0.393,0.147   c-1.397,0.405-2.859-0.4-3.268-1.795l-0.027-0.041c-0.25-0.876-0.11-1.82,0.385-2.586l2.388-3.655   c0.613-0.916,0.968-1.988,1.023-3.089c0.013-0.754-0.107-1.493-0.417-2.067c-0.166-0.307-0.382-0.566-0.665-0.758   c-0.039-0.025-0.077-0.049-0.118-0.068c-0.52-0.247-1.143-0.028-1.39,0.493l-6.916,11.512l-2.214,2.316   c-1.365,1.414-2.371,3.133-2.939,5.016l-0.845,2.835C106.046,86.804,106.023,86.867,105.998,86.932z"/>
	<g>
		<path fill="#C78982" d="M104.015,91.745c-1.292-3.518,0.88-2.619,1.956-5.074l0.342-0.474l22.522-13.097l0.638-0.926l0.788,2.085    c0.222,0.589,0.07,1.254-0.388,1.687l-0.859,0.813l0.283,1.069c0.141,0.534-0.01,1.103-0.398,1.496l-1.419,1.44l-0.101,3.205    c-0.034,1.115-0.477,2.179-1.254,2.983l-6.479,7.61l-19.933,12.027l-2.574-9.175L104.015,91.745z"/>
	</g>
	<path fill="#C78982" d="M126.763,77.136l-1.434-10.767c-0.061-1.146,0.573-2.123,1.464-2.398c0.005-0.001,0.01-0.002,0.015-0.003   c0.323-0.06,0.634,0.152,0.694,0.474l2.181,8.175L126.763,77.136z"/>
	<path fill="#C78982" d="M126.19,78.022l-4.164-7.928c-0.451-1.056-0.192-2.19,0.55-2.755c0.004-0.002,0.008-0.006,0.013-0.008   c0.282-0.168,0.647-0.076,0.815,0.206l4.978,7.094L126.19,78.022z"/>
	<path fill="#C78982" d="M124.089,81.271l-3.626-6.904c-0.451-1.056-0.192-2.19,0.55-2.755c0.004-0.002,0.008-0.006,0.013-0.008   c0.282-0.168,0.647-0.076,0.815,0.206l4.353,6.203L124.089,81.271z"/>
	
		<rect x="122.677" y="77.364" transform="matrix(-0.9918 -0.1275 0.1275 -0.9918 237.8557 177.6943)" fill="#C78982" width="3.873" height="7.746"/>
	
		<rect x="118.296" y="81.572" transform="matrix(-0.743 -0.6693 0.6693 -0.743 151.7471 233.9823)" fill="#C78982" width="5.007" height="12.565"/>
</g>
<path fill="#93C3FF" d="M108.435,102.453l-34.308,20.685c-3.657,2.204-7.924,3.181-12.175,2.787l-9.891-0.918l-8.555-20.518  l26.45-4.759l33.087-10.385L108.435,102.453z"/>
<rect x="36.166" y="85.316" transform="matrix(-0.3987 -0.9171 0.9171 -0.3987 -8.7123 186.8338)" fill="#93C3FF" width="41.458" height="21.913"/>
<path fill="#A5CDFF" d="M69.973,132.644l-0.055,18.593l-39.285,7.124l-13.47-21.372c-5.478-8.692-9.048-18.447-10.475-28.622  L2.931,77.415c-0.275-1.956,3.133-6.914,4.789-7.991l7.352-4.653l3.849-2.507c16.181-8.383,36.248-4.195,42.019,16.737l8.508,47.622  C69.803,128.611,69.979,130.626,69.973,132.644z"/>
<path fill="#A5CDFF" d="M44.656,60.643l-11.4-16.478l-6.441-0.228c-1.196-0.042-2.384,0.198-3.477,0.684  C9.228,50.893,0.77,65.712,2.711,81.183l2.46,19.613l50.744-22.809L44.656,60.643z"/>
<path opacity="0.07" fill="#002652" d="M23.5,97.235l11.081,1.529c1.813,0.53,3.282-1.516,2.201-3.064L27,81.691L23.5,97.235z"/>
<g>
	<path fill="#C78982" d="M38.538,194.839c-0.996-0.027-1.927-0.85-2.194-2.047l-2.589-18.44l5.117-3.393l0.26,23.191   c0.03,0.349-0.229,0.657-0.578,0.687C38.554,194.838,38.543,194.839,38.538,194.839z"/>
	<path fill="#C78982" d="M35.157,188.979c-0.984,0.153-2.05-0.487-2.528-1.615l-5.888-17.666l4.418-4.264l4.458,22.76   c0.093,0.338-0.106,0.688-0.444,0.78C35.167,188.976,35.162,188.978,35.157,188.979z"/>
	<path fill="#C78982" d="M31.298,186.224c-0.989,0.115-2.029-0.565-2.464-1.711l-5.203-17.879l4.578-4.091l3.579,22.915   c0.08,0.342-0.132,0.683-0.474,0.763C31.309,186.222,31.304,186.223,31.298,186.224z"/>
	<path fill="#C78982" d="M27.392,181.823c-0.989,0.115-2.029-0.565-2.464-1.711l-4.852-16.671c-0.215-0.738,0.013-1.534,0.587-2.046   l3.64-3.253l3.579,22.915c0.08,0.342-0.132,0.683-0.474,0.763C27.403,181.821,27.398,181.822,27.392,181.823z"/>
	<path fill="#C78982" d="M25.963,170.186h5.791c3.369,0,6.125-2.756,6.125-6.125v-5.123c0-3.369-2.756-6.125-6.125-6.125h-1.443   c-5.76,0-10.472,4.713-10.472,10.472v0.775C19.838,167.429,22.594,170.186,25.963,170.186z"/>
	<path fill="#C78982" d="M36.195,154.908v16.434l0.065-1.252c0.008-0.119,0.023-0.239,0.05-0.358   c0.266-1.225,1.08-1.763,2.304-1.501l0.438-0.244c0.766,0.169,1.03,0.902,1.407,1.592l1.791,3.308   c0.443,0.84,1.109,1.548,1.922,2.041c0.566,0.32,1.57,0.292,2.132,0.292c0.3,0,0.585-0.058,0.847-0.193   c0.035-0.019,0.069-0.039,0.1-0.062c0.401-0.293,0.489-0.855,0.196-1.256l-5.889-9.96l-0.847-2.627   c-0.512-1.614-1.402-3.081-2.596-4.283l-1.802-1.802C36.272,154.996,36.234,154.954,36.195,154.908z"/>
	<path fill="#C78982" d="M22.918,166.554c0,5.389,4.041,9.757,9.025,9.757c0.277,0,0.551-0.013,0.821-0.04   c0.168-0.016,0.516,0.103,0.5-0.064c-0.049-0.52,0.625-0.6,0.722-0.147c0.032,0.148,0.292-0.077,0.436-0.122   c1.598-0.493,3.016-1.45,4.119-2.727c0.119-0.138,0.347-0.242,0.347-0.426c-0.007-3.045,1.07-3.98,1.649-3.06   c0.135,0.215,0.085-0.475,0.145-0.726c0.186-0.781,0.286-1.6,0.286-2.445c0-5.389-4.041-9.757-9.025-9.757   S22.918,161.166,22.918,166.554z"/>
</g>
<polygon fill="#93C3FF" points="19.236,197.641 40.79,197.7 40.091,169.986 19.236,169.986 "/>
<path fill="#A5CDFF" d="M17.224,163.733L0.742,118.262c-2.324-6.412,0.99-13.495,7.402-15.819l1.747-0.634  c4-1.45,8.419,0.617,9.868,4.617l18.065,49.839L17.224,163.733z"/>
<g>
	<path fill="#A5CDFF" d="M5.742,117.432c-3.382-0.366-5.827-3.404-5.461-6.786l4.543-41.964c0.734-6.781,6.827-11.683,13.607-10.949   l1.848,0.2c4.23,0.458,7.288,4.258,6.831,8.489l-5.706,52.706L5.742,117.432z"/>
</g>
<g>
	<path fill="#D4E7FF" d="M52.251,44.633l-23.658-6.476c-3.196-0.875-5.078-4.175-4.203-7.371l4.105-14.997   C30.852,7.179,39.742,2.111,48.351,4.468l13.856,3.793L52.251,44.633z"/>
	<path fill="#C78982" d="M66.946,26.842l-5.717,21.373c-0.754,2.506-3.732,3.55-5.886,2.063L35.371,36.491L66.946,26.842z"/>
	<path fill="#C78982" d="M61.657,39.332l3.804,0.944c1.584,0.393,2.878-1.289,2.092-2.72l-3.441-6.26L61.657,39.332z"/>
	<path fill="#C78982" d="M58.094,10.124l-0.483-0.146c-2.04-0.614-4.191,0.543-4.805,2.582l-3.86,12.828l17.105,5.147l1.081-3.593   C69.28,19.802,65.234,12.273,58.094,10.124z"/>
	<path fill="#C78982" d="M33.597,21.685l20.121,5.508L42.816,67.018c-0.265,0.966-1.566,1.13-2.061,0.258l-13.25-23.339   L33.597,21.685L33.597,21.685z"/>
	
		<rect x="53.807" y="26.188" transform="matrix(0.9576 0.2882 -0.2882 0.9576 12.1168 -15.7053)" fill="#C78982" width="11.197" height="14.234"/>
	<path fill="#C78982" d="M54.236,6.192l-5.112-1.399c-5.586-1.529-11.354,1.76-12.884,7.346l-6.922,25.287l32.512,8.9l4.959-18.116   C69.402,18.663,63.783,8.806,54.236,6.192z"/>
	<path opacity="0.1" fill="#1D2445" enable-background="new    " d="M48.37,46.682l-0.255-0.197   c-1.533-1.182-3.684,0.286-3.141,2.144l1.417,4.856"/>
	<path opacity="0.1" fill="#1D2445" enable-background="new    " d="M66.004,30.813l-2.474-0.677   c-0.287-0.079-0.594-0.04-0.854,0.107l-1.312,0.748c-0.87,0.496-0.706,1.795,0.26,2.06l3.53,0.966"/>
	<path fill="#D4E7FF" d="M51.384,30.869L50.336,34.7c-0.967,3.532,0.261,7.3,3.122,9.584l0,0l0,0c0.758-2.77,3.62-4.402,6.39-3.643   l3.292,0.901l-2.181,7.716c-0.763,2.699-3.994,3.795-6.242,2.117l-6.87-5.128c-1.989-1.485-2.858-4.041-2.187-6.43l3.573-12.721   l0,0C50.869,27.544,51.832,29.233,51.384,30.869z"/>
	<path fill="#C78982" d="M57.794,46.224l2.33,1.255c0.62,0.334,1.389,0.004,1.575-0.675l0.823-3.007l-2.384-0.653   c-1.277-0.35-2.595,0.402-2.945,1.679l0,0C57.044,45.373,57.292,45.954,57.794,46.224z"/>
	<path fill="#D4E7FF" d="M24.832,29.172l13.097,3.585c5.416,1.483,11.008-1.706,12.491-7.122l5.694-20.8   c0.292-1.065-0.336-2.165-1.401-2.457l-6.766-1.852C40.1-1.622,31.997,2.998,29.849,10.846L24.832,29.172z"/>
	<path fill="#D4E7FF" d="M64.202,21.628l0.514,0.141c3.826,1.047,7.777-1.205,8.825-5.032l1.136-4.15   c0.507-1.853-0.584-3.767-2.437-4.274l-5.114-1.4L50.192,2.277l-0.47,24.47l3.635-9.158c0.587-1.478,2.217-2.249,3.732-1.764l0,0   c0.636,0.203,1.186,0.611,1.566,1.16l0.963,1.394C60.716,19.967,62.339,21.118,64.202,21.628z"/>
	<path fill="#C78982" d="M44.193,32.021l3.129,1.137l2.083-6.661c0.673-2.153-0.466-4.455-2.586-5.225l-0.227-0.083   c-2.179-0.792-4.49,0.793-4.537,3.111l-0.089,4.474C41.938,30.222,42.833,31.527,44.193,32.021z"/>
</g>

            </g>
        </g>
    </g>
    
    <!-- ITEM 8 -->
    <g>
        <defs>
            <clipPath id="clip-path-id-viewbox-item-8">
                <rect x="0.0" y="0.0" width="20.125" height="20.125"/>
            </clipPath>
        </defs>
        <g transform="translate(211.0 174.0) rotate(0.0 6.5 6.5) scale(0.6459627329192547 0.6459627329192547)">
            <g clip-path="url(#clip-path-id-viewbox-item-8)" transform="translate(-0.0 -0.0)">
                
<g>
	<g>
		<circle fill="#FFFFFF" cx="10.063" cy="10.062" r="4.5"/>
	</g>
	<g>
		<path fill="#FFFFFF" d="M10.063,20.125C4.514,20.125,0,15.611,0,10.063S4.514,0,10.063,0s10.063,4.514,10.063,10.063    S15.611,20.125,10.063,20.125z M10.063,1C5.065,1,1,5.065,1,10.063s4.065,9.063,9.063,9.063s9.063-4.065,9.063-9.063    S15.06,1,10.063,1z"/>
	</g>
</g>

            </g>
        </g>
    </g>
    
    <!-- ITEM 9 -->
    <g>
        <defs>
            <clipPath id="clip-path-id-viewbox-item-9">
                <rect x="0.0" y="0.0" width="20.125" height="20.125"/>
            </clipPath>
        </defs>
        <g transform="translate(194.0 117.0) rotate(0.0 6.5 6.5) scale(0.6459627329192547 0.6459627329192547)">
            <g clip-path="url(#clip-path-id-viewbox-item-9)" transform="translate(-0.0 -0.0)">
                
<g>
	<g>
		<circle fill="#FFFFFF" cx="10.063" cy="10.062" r="4.5"/>
	</g>
	<g>
		<path fill="#FFFFFF" d="M10.063,20.125C4.514,20.125,0,15.611,0,10.063S4.514,0,10.063,0s10.063,4.514,10.063,10.063    S15.611,20.125,10.063,20.125z M10.063,1C5.065,1,1,5.065,1,10.063s4.065,9.063,9.063,9.063s9.063-4.065,9.063-9.063    S15.06,1,10.063,1z"/>
	</g>
</g>

            </g>
        </g>
    </g>
    
    <!-- ITEM 10 -->
    <g>
        <defs>
            <clipPath id="clip-path-id-crop-item-10">
                
          <rect transform="scale(1.6176666666666668 1.5862068965517242)" x="7.0" y="0.0" width="33.0" height="58.0"/>
        
            </clipPath>
            
            <clipPath id="clip-path-id-viewbox-item-10">
                <rect x="0.0" y="0.0" width="72.795" height="92.0"/>
            </clipPath>
        </defs>
        <g clip-path="url(#clip-path-id-crop-item-10)" transform="translate(385.0 209.0) rotate(-36.48541304362003 22.5 29.0) scale(0.6181743251596951 0.6304347826086957)">
            <g clip-path="url(#clip-path-id-viewbox-item-10)" transform="translate(-0.0 -0.0)">
                
<g>
	<path fill="#E5F0FD" d="M64.751,92H8.044C3.601,92,0,88.399,0,83.956V8.044C0,3.601,3.601,0,8.044,0h56.707   c4.443,0,8.044,3.601,8.044,8.044v75.912C72.795,88.399,69.193,92,64.751,92z"/>
	<path fill="#F0F6FE" d="M52.374,43.37c0-2.459-2.196-4.336-4.623-3.948c-3.482,0.557-8.007,1.211-10.138,1.22   c-2.362,0.011-7.472-0.69-11.256-1.265c-2.42-0.368-4.598,1.504-4.598,3.952v3.776c0,1.399,0.731,2.696,1.928,3.42l0,0   c3.962,2.398,6.382,6.692,6.382,11.323V92h13.996V61.847c0-4.631,2.42-8.925,6.382-11.323l0,0c1.196-0.724,1.927-2.021,1.927-3.42   V43.37z"/>
	<path fill="#F2F8FE" d="M52.374,33.542c0,2.459-2.196,4.336-4.623,3.948c-3.482-0.557-8.007,1.789-10.138,1.78   c-2.362-0.011-7.472-2.31-11.256-1.735c-2.42,0.368-4.598-1.504-4.598-3.952v-4.38c0-1.082,0.272-2.146,0.791-3.095l2.534-4.631   c1.958-3.577,2.984-7.59,2.984-11.668V0h17.996v9.809c0,4.078,1.026,8.09,2.984,11.668l2.534,4.631   c0.519,0.949,0.791,2.013,0.791,3.095V33.542z"/>
</g>

            </g>
        </g>
    </g>
    
    <!-- ITEM 11 -->
    <g>
        <defs>
            <clipPath id="clip-path-id-viewbox-item-11">
                <rect x="0.0" y="0.0" width="20.125" height="20.125"/>
            </clipPath>
        </defs>
        <g transform="translate(204.0 82.0) rotate(0.0 6.5 6.5) scale(0.6459627329192547 0.6459627329192547)">
            <g clip-path="url(#clip-path-id-viewbox-item-11)" transform="translate(-0.0 -0.0)">
                
<g>
	<g>
		<circle fill="#FFFFFF" cx="10.063" cy="10.062" r="4.5"/>
	</g>
	<g>
		<path fill="#FFFFFF" d="M10.063,20.125C4.514,20.125,0,15.611,0,10.063S4.514,0,10.063,0s10.063,4.514,10.063,10.063    S15.611,20.125,10.063,20.125z M10.063,1C5.065,1,1,5.065,1,10.063s4.065,9.063,9.063,9.063s9.063-4.065,9.063-9.063    S15.06,1,10.063,1z"/>
	</g>
</g>

            </g>
        </g>
    </g>
    
    <!-- ITEM 12 -->
    <g>
        <defs>
            <clipPath id="clip-path-id-viewbox-item-12">
                <rect x="0.0" y="0.0" width="115.0" height="78.436"/>
            </clipPath>
        </defs>
        <g transform="translate(234.0 249.0) rotate(0.0 63.0 43.0) scale(1.0956521739130434 1.0964353103166913)">
            <g clip-path="url(#clip-path-id-viewbox-item-12)" transform="translate(-0.0 -0.0)">
                
<path fill="#DDDEE3" d="M70.564,73.908c0,2.501,2.027,4.528,4.528,4.528h0.179H38.974h0.934c2.501,0,4.528-2.027,4.528-4.528V30.615  h26.128V73.908z"/>
<rect x="0" y="0" fill="#F3F4F6" width="115" height="61"/>
<rect x="1.333" y="1.333" fill="#E8E9EC" width="112.333" height="50.667"/>

            </g>
        </g>
    </g>
    
    <!-- ITEM 13 -->
    <g>
        <defs>
            <clipPath id="clip-path-id-viewbox-item-13">
                <rect x="0.0" y="0.0" width="37.434" height="56.456"/>
            </clipPath>
        </defs>
        <g transform="translate(147.0 288.0) rotate(180.0 18.0 28.0) scale(0.9616925789389326 0.9919229134193)">
            <g clip-path="url(#clip-path-id-viewbox-item-13)" transform="translate(-0.0 -0.0)">
                
<g>
	<circle fill="#013B84" cx="32.767" cy="19.076" r="4.667"/>
</g>
<g>
	<path fill="#013B84" d="M24.143,56.458c-0.642,0-1.325-0.105-2.039-0.317c-3.696-1.095-7.458-4.776-9.147-8.952   c-2.492-6.156-2.007-11.576-1.985-11.804l1.991,0.19c-0.005,0.051-0.452,5.182,1.848,10.864c1.454,3.592,4.76,6.865,7.862,7.785   c0.882,0.262,2.133,0.434,3.083-0.229c2.859-1.998,5.328-3.724,6.557-20.255c0.345-4.641,0.082-9.236-0.781-13.659l1.963-0.383   c0.897,4.597,1.17,9.371,0.812,14.19c-1.212,16.303-3.606,19.091-7.406,21.745C26.118,56.181,25.184,56.458,24.143,56.458z"/>
</g>
<g>
	<g>
		<path fill="#85A1C4" d="M16.998,23.841c-0.016-0.145-1.567-14.542-5.65-20.711C10.414,1.719,9.342,1.002,8.162,1    C8.161,1,8.159,1,8.158,1C5.208,1,2.352,5.234,2.324,5.277L1.492,4.723C1.62,4.53,4.679,0,8.158,0C8.16,0,8.162,0,8.164,0    c1.535,0.002,2.887,0.87,4.018,2.578c4.218,6.374,5.748,20.558,5.811,21.159L16.998,23.841z"/>
	</g>
	<g>
		<circle fill="#85A1C4" cx="1.667" cy="4.933" r="1.667"/>
	</g>
</g>
<g>
	<g>
		<path fill="#85A1C4" d="M6.557,23.841l-0.994-0.104c0.063-0.601,1.592-14.785,5.811-21.159C12.504,0.87,13.856,0.002,15.391,0    c0.002,0,0.005,0,0.006,0c3.479,0,6.538,4.53,6.667,4.723l-0.832,0.555C21.204,5.235,18.342,1,15.398,1c-0.002,0-0.004,0-0.006,0    c-1.179,0.002-2.25,0.719-3.184,2.13C8.124,9.299,6.573,23.697,6.557,23.841z"/>
	</g>
	<g>
		<circle fill="#85A1C4" cx="21.889" cy="4.933" r="1.667"/>
	</g>
</g>
<g>
	<path fill="#013B84" d="M12.162,37.146H11.44c-2.012,0-3.933-0.862-5.27-2.366c-1.337-1.503-1.969-3.512-1.734-5.51L5.641,19.03   l1.986,0.233L6.423,29.504c-0.168,1.432,0.284,2.871,1.242,3.948s2.334,1.695,3.775,1.695h0.722c1.441,0,2.817-0.618,3.775-1.695   s1.411-2.516,1.242-3.948l-1.205-10.241l1.986-0.233l1.205,10.241c0.235,1.998-0.397,4.006-1.734,5.51   C16.095,36.284,14.174,37.146,12.162,37.146z"/>
</g>

            </g>
        </g>
    </g>
    
    <!-- ITEM 14 -->
    <g>
        <defs>
            <clipPath id="clip-path-id-viewbox-item-14">
                <rect x="0.0" y="0.0" width="21.772" height="15.568"/>
            </clipPath>
        </defs>
        <g transform="translate(158.0 296.0) rotate(125.94860470382686 10.0 -7.0) scale(0.9186110600771634 -0.8992805755395684)">
            <g clip-path="url(#clip-path-id-viewbox-item-14)" transform="translate(-0.0 -0.0)">
                
<g>
	<path fill="#ed956e" d="M21.726,1.066c0.171,1.014-0.133,1.997-0.998,2.192l-8.971,1.53L9.356,0.414l10.948-0.412   C21.57-0.054,21.726,1.061,21.726,1.066z"/>
	<path fill="#ed956e" d="M20.683,4.044c0.171,1.014-0.188,2.707-1.053,2.902l-8.824,1.413L8.405,3.984L19.94,3.542   c0.252-0.017,0.723,0.194,0.742,0.488C20.683,4.035,20.683,4.039,20.683,4.044z"/>
	<path fill="#ed956e" d="M20.363,7.47c0.171,1.014-0.269,2.712-1.133,2.907l-8.744,1.407L8.084,7.41l11.535-0.442   c0.252-0.017,0.723,0.194,0.742,0.488C20.363,7.461,20.362,7.465,20.363,7.47z"/>
	<path fill="#ed956e" d="M19.688,10.663c0.21,0.909,0.221,2.009-0.633,2.238l-9.235,2.42l-2.385-3.973l11.492-1.095   c0.251-0.03,0.729,0.132,0.759,0.398C19.686,10.655,19.687,10.659,19.688,10.663z"/>
	<path fill="#ed956e" d="M12.761,10.989l-0.295-7.766c-0.067-1.78-1.752-3.048-3.482-2.622L0.887,2.598   C0.353,2.729-0.017,3.218,0.001,3.769L0.15,8.273c0.137,4.147,3.643,7.428,7.789,7.291l0.558-0.018   C10.922,15.464,12.841,13.414,12.761,10.989z"/>
	
		<ellipse transform="matrix(-0.9995 0.0331 -0.0331 -0.9995 20.253 13.3424)" fill="#ed956e" cx="10.016" cy="6.839" rx="7.028" ry="6.428"/>
</g>

            </g>
        </g>
    </g>
    
    <!-- ITEM 15 -->
    <g>
        <defs>
            <clipPath id="clip-path-id-viewbox-item-15">
                <rect x="0.0" y="0.0" width="72.795" height="92.0"/>
            </clipPath>
        </defs>
        <g transform="translate(330.0 105.0) rotate(0.0 33.5 43.0) scale(0.920392884126657 0.9347826086956522)">
            <g clip-path="url(#clip-path-id-viewbox-item-15)" transform="translate(-0.0 -0.0)">
                
<g>
	<path fill="#E5F0FD" d="M64.751,92H8.044C3.601,92,0,88.399,0,83.956V8.044C0,3.601,3.601,0,8.044,0h56.707   c4.443,0,8.044,3.601,8.044,8.044v75.912C72.795,88.399,69.193,92,64.751,92z"/>
	<path fill="#F0F6FE" d="M52.374,43.37c0-2.459-2.196-4.336-4.623-3.948c-3.482,0.557-8.007,1.211-10.138,1.22   c-2.362,0.011-7.472-0.69-11.256-1.265c-2.42-0.368-4.598,1.504-4.598,3.952v3.776c0,1.399,0.731,2.696,1.928,3.42l0,0   c3.962,2.398,6.382,6.692,6.382,11.323V92h13.996V61.847c0-4.631,2.42-8.925,6.382-11.323l0,0c1.196-0.724,1.927-2.021,1.927-3.42   V43.37z"/>
	<path fill="#F2F8FE" d="M52.374,33.542c0,2.459-2.196,4.336-4.623,3.948c-3.482-0.557-8.007,1.789-10.138,1.78   c-2.362-0.011-7.472-2.31-11.256-1.735c-2.42,0.368-4.598-1.504-4.598-3.952v-4.38c0-1.082,0.272-2.146,0.791-3.095l2.534-4.631   c1.958-3.577,2.984-7.59,2.984-11.668V0h17.996v9.809c0,4.078,1.026,8.09,2.984,11.668l2.534,4.631   c0.519,0.949,0.791,2.013,0.791,3.095V33.542z"/>
</g>

            </g>
        </g>
    </g>
    
    <!-- ITEM 16 -->
    <g>
        <defs>
            <clipPath id="clip-path-id-viewbox-item-16">
                <rect x="0.0" y="0.0" width="12.102" height="26.926"/>
            </clipPath>
        </defs>
        <g transform="translate(391.0 233.0) rotate(-25.972973442509353 5.0 12.5) scale(0.8263097008758883 0.9284706231894824)">
            <g clip-path="url(#clip-path-id-viewbox-item-16)" transform="translate(-0.0 -0.0)">
                
<g>
	<path fill="#C78982" d="M5.526,18.316l0.903,3.068c0.623,2.117-0.587,4.339-2.703,4.965l-0.97,0.287l-0.73,0.22l-0.25,0.07   l-1.55-5.86c-0.35-1.06-0.29-2.21,0.16-3.23l1.29-2.93L1.017,12.96c-0.174-0.514-0.064-1.082,0.289-1.494l0.72-0.84l-0.42-1.1   c-0.23-0.59-0.08-1.26,0.37-1.69l1.24-1.18l0.38-0.36l0.17,1.11l0.71,1.04l0.87,1.28l1.03,1.51l0.2,0.3l1.7,2.49l-1.77,1.32   L5.526,18.316z"/>
</g>
<path fill="#C78982" d="M3.893,12.01l5.944-9.091c0.55-1.007,0.4-2.162-0.285-2.795C9.547,0.121,9.543,0.118,9.539,0.115  C9.274-0.079,8.902-0.022,8.708,0.243L3.21,6.674L3.893,12.01z"/>
<path fill="#C78982" d="M4.026,12.987l7.18-5.352c0.863-0.757,1.119-1.892,0.694-2.722c-0.003-0.004-0.005-0.009-0.008-0.013  c-0.182-0.273-0.551-0.348-0.824-0.166L3.514,8.982L4.026,12.987z"/>
<path fill="#C78982" d="M10.766,12.166l-2.49,1.86l-1.77,1.32l-1.99,1.48l-0.49-3.84v-0.01l0.05-0.03l0.51-0.28l1.99-1.13l4.05-2.27  c0.28-0.18,0.65-0.11,0.83,0.16c0,0.01,0,0.01,0.01,0.02C11.886,10.276,11.636,11.406,10.766,12.166z"/>
<polygon fill="#C78982" points="7.116,13.496 6.506,15.346 5.526,18.316 4.686,20.856 1.006,19.636 1.346,18.606 3.436,12.286   3.956,12.456 4.496,12.636 4.586,12.666 "/>
<path fill="#C78982" d="M3.726,26.349l-0.97,0.287l-2.29-7.77l0.88-0.26l3.92-1.16l0.26,0.87l0.903,3.068  C7.051,23.502,5.842,25.723,3.726,26.349z"/>

            </g>
        </g>
    </g>
    
    <!-- ITEM 17 -->
    <g>
        <defs>
            <clipPath id="clip-path-id-viewbox-item-17">
                <rect x="0.0" y="0.0" width="25.499" height="97.495"/>
            </clipPath>
        </defs>
        <g transform="translate(212.0 350.0) rotate(0.0 10.0 38.5) scale(0.7843444840974156 0.7897840914918713)">
            <g clip-path="url(#clip-path-id-viewbox-item-17)" transform="translate(-0.0 -0.0)">
                
<g>
	<rect x="0" y="0" fill="#F3F4F6" width="25.499" height="97.495"/>
	<circle fill="#C6C8D0" cx="12.749" cy="62.986" r="7.435"/>
</g>

            </g>
        </g>
    </g>
    
    <!-- ITEM 18 -->
    <g>
        <defs>
            <clipPath id="clip-path-id-viewbox-item-18">
                <rect x="0.0" y="0.0" width="25.499" height="97.495"/>
            </clipPath>
        </defs>
        <g transform="translate(235.0 350.0) rotate(0.0 10.0 38.5) scale(0.7843444840974156 0.7897840914918713)">
            <g clip-path="url(#clip-path-id-viewbox-item-18)" transform="translate(-0.0 -0.0)">
                
<g>
	<rect x="0" y="0" fill="#F3F4F6" width="25.499" height="97.495"/>
	<circle fill="#C6C8D0" cx="12.749" cy="62.986" r="7.435"/>
</g>

            </g>
        </g>
    </g>
    
    <!-- ITEM 19 -->
    <g>
        <defs>
            <clipPath id="clip-path-id-viewbox-item-19">
                <rect x="0.0" y="0.0" width="25.499" height="97.495"/>
            </clipPath>
        </defs>
        <g transform="translate(264.0 348.0) rotate(-12.54593511099579 10.0 38.5) scale(0.7843444840974156 0.7897840914918713)">
            <g clip-path="url(#clip-path-id-viewbox-item-19)" transform="translate(-0.0 -0.0)">
                
<g>
	<rect x="0" y="0" fill="#F3F4F6" width="25.499" height="97.495"/>
	<circle fill="#C6C8D0" cx="12.749" cy="62.986" r="7.435"/>
</g>

            </g>
        </g>
    </g>
    
    <!-- ITEM 20 -->
    <g>
        <defs>
            <clipPath id="clip-path-id-viewbox-item-20">
                <rect x="0.0" y="0.0" width="42.17" height="42.17"/>
            </clipPath>
        </defs>
        <g transform="translate(278.0 261.0) rotate(0.0 17.0 17.0) scale(0.8062603746739387 0.8062603746739387)">
            <g clip-path="url(#clip-path-id-viewbox-item-20)" transform="translate(-0.0 -0.0)">
                
<circle fill="#8BBFFF" cx="21.085" cy="21.085" r="21.085"/>
<circle fill="#C7E0FF" cx="21.085" cy="13.87" r="6.381"/>
<path fill="#C7E0FF" d="M21.085,21.617L21.085,21.617c-5.287,0-9.572,4.286-9.572,9.572v5.542h19.144v-5.542  C30.657,25.903,26.371,21.617,21.085,21.617z"/>

            </g>
        </g>
    </g>
    
    <!-- ITEM 21 -->
    <g>
        <defs>
            <clipPath id="clip-path-id-viewbox-item-21">
                <rect x="0.0" y="0.0" width="72.838" height="92.0"/>
            </clipPath>
        </defs>
        <g transform="translate(298.0 75.0) rotate(6.589891740303566 35.5 46.0) scale(0.9747659188884924 1.0)">
            <g clip-path="url(#clip-path-id-viewbox-item-21)" transform="translate(-0.0 -0.0)">
                
<g>
	<g>
		<path fill="#E5F0FD" d="M64.751,92H8.044C3.601,92,0,88.399,0,83.956V8.044C0,3.601,3.601,0,8.044,0h56.707    c4.443,0,8.044,3.601,8.044,8.044v75.912C72.795,88.399,69.193,92,64.751,92z"/>
	</g>
	<g>
		<path fill="#BFDBFA" d="M65.564,72.411l-5.39-1.125c-8.945-1.868-15.641-9.329-16.532-18.424l-2.826-28.825    c-0.396-4.041,4.027-6.771,7.462-4.605l7.048,4.445c8.663,5.463,13.918,14.989,13.918,25.231V69.42    C69.243,71.359,67.461,72.807,65.564,72.411z"/>
	</g>
	<g>
		<g>
			<path fill="#E5F0FD" d="M66.636,32.768c-9.931-8.16-19.029-9.357-27.044-3.556l-1.173-1.62c8.844-6.401,18.764-5.18,29.486,3.631     L66.636,32.768z"/>
		</g>
		<g>
			<path fill="#E5F0FD" d="M67.871,40.425c-9.828-8.021-18.842-9.205-26.796-3.517l-1.163-1.627     c8.776-6.277,18.608-5.068,29.224,3.594L67.871,40.425z"/>
		</g>
		<g>
			<path fill="#E5F0FD" d="M69.083,47.946c-9.729-7.884-18.662-9.054-26.553-3.479l-1.154-1.633     c8.711-6.158,18.457-4.958,28.966,3.558L69.083,47.946z"/>
		</g>
		<g>
			<path fill="#E5F0FD" d="M70.274,55.333c-9.658-7.773-19.359-8.995-27.313-3.44l-1.146-1.64     c8.622-6.021,19.451-4.736,29.712,3.522L70.274,55.333z"/>
		</g>
		<g>
			<path fill="#E5F0FD" d="M71.445,62.592c-9.533-7.623-18.307-8.769-26.079-3.404l-1.136-1.646     c8.582-5.926,18.159-4.751,28.463,3.487L71.445,62.592z"/>
		</g>
		<g>
			<path fill="#E5F0FD" d="M71.595,69.725c-9.519-7.56-17.182-8.598-24.848-3.368l-1.127-1.652     c8.392-5.726,17.041-4.629,27.219,3.454L71.595,69.725z"/>
		</g>
	</g>
	<g>
		<path fill="#F4F9FF" d="M39.059,11.464h-4.79c-0.868,0-1.578-0.71-1.578-1.578V4.301c0-0.868,0.71-1.578,1.578-1.578h4.79    c0.868,0,1.578,0.71,1.578,1.578v5.584C40.637,10.754,39.927,11.464,39.059,11.464z"/>
	</g>
	<g>
		<path fill="#F2F8FF" d="M38.637,51.725h-3.946c-1.1,0-2-0.9-2-2V39.686c0-1.1,0.9-2,2-2h3.946c1.1,0,2,0.9,2,2v10.038    C40.637,50.825,39.737,51.725,38.637,51.725z"/>
	</g>
	<g>
		<path fill="#EEF6FF" d="M38.637,68.147h-3.946c-1.1,0-2-0.9-2-2V56.108c0-1.1,0.9-2,2-2h3.946c1.1,0,2,0.9,2,2v10.038    C40.637,67.247,39.737,68.147,38.637,68.147z"/>
	</g>
	<g>
		<path fill="#ECF4FF" d="M38.637,84.569h-3.946c-1.1,0-2-0.9-2-2V72.531c0-1.1,0.9-2,2-2h3.946c1.1,0,2,0.9,2,2v10.038    C40.637,83.669,39.737,84.569,38.637,84.569z"/>
	</g>
	<g>
		<path fill="#F4F9FF" d="M39.44,18.483h-5.551c-0.659,0-1.197-0.539-1.197-1.197v-2.638c0-0.659,0.539-1.197,1.197-1.197h5.551    c0.659,0,1.197,0.539,1.197,1.197v2.638C40.637,17.944,40.098,18.483,39.44,18.483z"/>
	</g>
	<g>
		<path fill="#F4F9FF" d="M39.44,24.708h-5.551c-0.659,0-1.197-0.539-1.197-1.197v-2.638c0-0.659,0.539-1.197,1.197-1.197h5.551    c0.659,0,1.197,0.539,1.197,1.197v2.638C40.637,24.169,40.098,24.708,39.44,24.708z"/>
	</g>
	<g>
		<path fill="#BFDBFA" d="M7.447,72.411l5.39-1.125c8.945-1.868,15.641-9.329,16.532-18.424l2.826-28.825    c0.396-4.041-4.027-6.771-7.462-4.605l-7.048,4.445C9.022,29.34,3.768,38.866,3.768,49.108V69.42    C3.768,71.359,5.55,72.807,7.447,72.411z"/>
	</g>
	<g>
		<g>
			<path fill="#E5F0FD" d="M6.375,32.768l-1.27-1.545c10.721-8.812,20.642-10.033,29.486-3.631l-1.173,1.62     C25.405,23.41,16.307,24.608,6.375,32.768z"/>
		</g>
		<g>
			<path fill="#E5F0FD" d="M5.141,40.425l-1.265-1.55c10.614-8.663,20.447-9.872,29.224-3.594l-1.163,1.627     C23.984,31.221,14.969,32.405,5.141,40.425z"/>
		</g>
		<g>
			<path fill="#E5F0FD" d="M3.928,47.946l-1.259-1.554c10.509-8.517,20.254-9.713,28.965-3.558l-1.154,1.633     C22.59,38.892,13.657,40.062,3.928,47.946z"/>
		</g>
		<g>
			<path fill="#E5F0FD" d="M2.737,55.333l-1.254-1.558c10.261-8.259,21.091-9.543,29.713-3.522l-1.146,1.64     C22.097,46.339,12.395,47.559,2.737,55.333z"/>
		</g>
		<g>
			<path fill="#E5F0FD" d="M1.567,62.592L0.318,61.03c10.304-8.238,19.88-9.413,28.463-3.487l-1.136,1.646     C19.873,53.824,11.1,54.969,1.567,62.592z"/>
		</g>
		<g>
			<path fill="#E5F0FD" d="M1.417,69.725l-1.244-1.566c10.177-8.082,18.826-9.179,27.218-3.454l-1.127,1.652     C18.599,61.127,10.935,62.166,1.417,69.725z"/>
		</g>
	</g>
	<g>
		<path fill="#F4F9FF" d="M39.059,35.832h-4.79c-0.868,0-1.578-0.71-1.578-1.578V28.67c0-0.868,0.71-1.578,1.578-1.578h4.79    c0.868,0,1.578,0.71,1.578,1.578v5.584C40.637,35.122,39.927,35.832,39.059,35.832z"/>
	</g>
</g>

            </g>
        </g>
    </g>
    
</svg>